%TF.GenerationSoftware,KiCad,Pcbnew,10.0.4*%
%TF.CreationDate,2026-08-08T20:11:35+03:00*%
%TF.ProjectId,MCU_Datalogger,4d43555f-4461-4746-916c-6f676765722e,1*%
%TF.SameCoordinates,Original*%
%TF.FileFunction,Plated,1,2,PTH,Drill*%
%TF.FilePolarity,Positive*%
%FSLAX46Y46*%
G04 Gerber Fmt 4.6, Leading zero omitted, Abs format (unit mm)*
G04 Created by KiCad (PCBNEW 10.0.4) date 2026-08-08 20:11:35*
%MOMM*%
%LPD*%
G01*
G04 APERTURE LIST*
%TA.AperFunction,ViaDrill*%
%ADD10C,0.300000*%
%TD*%
%TA.AperFunction,ComponentDrill*%
%ADD11C,1.000000*%
%TD*%
G04 APERTURE END LIST*
D10*
X54350000Y-87200000D03*
X54450000Y-82850000D03*
X54750000Y-75150000D03*
X58750000Y-76750000D03*
X58950000Y-72400000D03*
X59900000Y-85250000D03*
X60650000Y-72400000D03*
X60650000Y-86150000D03*
X61750000Y-70400000D03*
X61750000Y-86900000D03*
X62600000Y-70400000D03*
X62600000Y-87500000D03*
X63400000Y-70400000D03*
X64500000Y-84200000D03*
X64900000Y-73700000D03*
X65600000Y-84150000D03*
X66450000Y-75950000D03*
X66800000Y-84150000D03*
X67350000Y-79150000D03*
X67950000Y-84150000D03*
X69100000Y-83950000D03*
X70050000Y-78350000D03*
X70100000Y-83850000D03*
X72150000Y-69450000D03*
X74200000Y-79800000D03*
X76350000Y-73550000D03*
X77600000Y-89200000D03*
X78700000Y-89150000D03*
X79900000Y-89150000D03*
X81050000Y-89150000D03*
X82750000Y-67450000D03*
X83504000Y-82646000D03*
X86250000Y-70000000D03*
X88850000Y-82900000D03*
X90297000Y-81661000D03*
X90650000Y-86600000D03*
X92350000Y-71300000D03*
X92700000Y-67600000D03*
X93345000Y-68580000D03*
X93472000Y-70104000D03*
X94600000Y-71350000D03*
D11*
%TO.C,BT1*%
X51054000Y-70485000D03*
X51054000Y-73025000D03*
%TO.C,J3*%
X56896000Y-91186000D03*
X59436000Y-91186000D03*
X61976000Y-91186000D03*
X64516000Y-91186000D03*
%TO.C,J2*%
X69977000Y-91186000D03*
X72517000Y-91186000D03*
X75057000Y-91186000D03*
X77597000Y-91186000D03*
X80137000Y-91186000D03*
X82677000Y-91186000D03*
X85217000Y-91186000D03*
X87757000Y-91186000D03*
X90297000Y-91186000D03*
%TO.C,J4*%
X94610000Y-81280000D03*
X94610000Y-83820000D03*
X94610000Y-86360000D03*
X97150000Y-81280000D03*
X97150000Y-83820000D03*
X97150000Y-86360000D03*
%TO.C,J1*%
X97155000Y-70104000D03*
X97155000Y-72644000D03*
X97155000Y-75184000D03*
X97155000Y-77724000D03*
M02*
