%TF.GenerationSoftware,KiCad,Pcbnew,10.0.4*%
%TF.CreationDate,2026-08-08T20:11:35+03:00*%
%TF.ProjectId,MCU_Datalogger,4d43555f-4461-4746-916c-6f676765722e,1*%
%TF.SameCoordinates,Original*%
%TF.FileFunction,Drillmap*%
%TF.FilePolarity,Positive*%
%FSLAX45Y45*%
G04 Gerber Fmt 4.5, Leading zero omitted, Abs format (unit mm)*
G04 Created by KiCad (PCBNEW 10.0.4) date 2026-08-08 20:11:35*
%MOMM*%
%LPD*%
G01*
G04 APERTURE LIST*
%ADD10C,0.050000*%
%ADD11C,0.200000*%
%ADD12C,0.210000*%
G04 APERTURE END LIST*
D10*
X4867000Y-6336000D02*
X9919000Y-6336000D01*
X9919000Y-9329000D01*
X4867000Y-9329000D01*
X4867000Y-6336000D01*
D11*
D12*
X5013100Y-6486300D02*
X5223100Y-6696300D01*
X5223100Y-6486300D02*
X5013100Y-6696300D01*
X5025000Y-8961000D02*
X5235000Y-9171000D01*
X5235000Y-8961000D02*
X5025000Y-9171000D01*
X9548000Y-6486300D02*
X9758000Y-6696300D01*
X9758000Y-6486300D02*
X9548000Y-6696300D01*
X9548000Y-8961000D02*
X9758000Y-9171000D01*
X9758000Y-8961000D02*
X9548000Y-9171000D01*
D11*
X5125277Y-9642984D02*
X5125277Y-9442984D01*
X5125277Y-9442984D02*
X5172896Y-9442984D01*
X5172896Y-9442984D02*
X5201467Y-9452508D01*
X5201467Y-9452508D02*
X5220515Y-9471555D01*
X5220515Y-9471555D02*
X5230039Y-9490603D01*
X5230039Y-9490603D02*
X5239563Y-9528698D01*
X5239563Y-9528698D02*
X5239563Y-9557270D01*
X5239563Y-9557270D02*
X5230039Y-9595365D01*
X5230039Y-9595365D02*
X5220515Y-9614412D01*
X5220515Y-9614412D02*
X5201467Y-9633460D01*
X5201467Y-9633460D02*
X5172896Y-9642984D01*
X5172896Y-9642984D02*
X5125277Y-9642984D01*
X5325277Y-9642984D02*
X5325277Y-9509650D01*
X5325277Y-9547746D02*
X5334801Y-9528698D01*
X5334801Y-9528698D02*
X5344324Y-9519174D01*
X5344324Y-9519174D02*
X5363372Y-9509650D01*
X5363372Y-9509650D02*
X5382420Y-9509650D01*
X5449086Y-9642984D02*
X5449086Y-9509650D01*
X5449086Y-9442984D02*
X5439563Y-9452508D01*
X5439563Y-9452508D02*
X5449086Y-9462031D01*
X5449086Y-9462031D02*
X5458610Y-9452508D01*
X5458610Y-9452508D02*
X5449086Y-9442984D01*
X5449086Y-9442984D02*
X5449086Y-9462031D01*
X5572896Y-9642984D02*
X5553848Y-9633460D01*
X5553848Y-9633460D02*
X5544324Y-9614412D01*
X5544324Y-9614412D02*
X5544324Y-9442984D01*
X5677658Y-9642984D02*
X5658610Y-9633460D01*
X5658610Y-9633460D02*
X5649086Y-9614412D01*
X5649086Y-9614412D02*
X5649086Y-9442984D01*
X5906229Y-9642984D02*
X5906229Y-9442984D01*
X5906229Y-9442984D02*
X5972896Y-9585841D01*
X5972896Y-9585841D02*
X6039562Y-9442984D01*
X6039562Y-9442984D02*
X6039562Y-9642984D01*
X6220515Y-9642984D02*
X6220515Y-9538222D01*
X6220515Y-9538222D02*
X6210991Y-9519174D01*
X6210991Y-9519174D02*
X6191943Y-9509650D01*
X6191943Y-9509650D02*
X6153848Y-9509650D01*
X6153848Y-9509650D02*
X6134801Y-9519174D01*
X6220515Y-9633460D02*
X6201467Y-9642984D01*
X6201467Y-9642984D02*
X6153848Y-9642984D01*
X6153848Y-9642984D02*
X6134801Y-9633460D01*
X6134801Y-9633460D02*
X6125277Y-9614412D01*
X6125277Y-9614412D02*
X6125277Y-9595365D01*
X6125277Y-9595365D02*
X6134801Y-9576317D01*
X6134801Y-9576317D02*
X6153848Y-9566793D01*
X6153848Y-9566793D02*
X6201467Y-9566793D01*
X6201467Y-9566793D02*
X6220515Y-9557270D01*
X6315753Y-9509650D02*
X6315753Y-9709650D01*
X6315753Y-9519174D02*
X6334801Y-9509650D01*
X6334801Y-9509650D02*
X6372896Y-9509650D01*
X6372896Y-9509650D02*
X6391943Y-9519174D01*
X6391943Y-9519174D02*
X6401467Y-9528698D01*
X6401467Y-9528698D02*
X6410991Y-9547746D01*
X6410991Y-9547746D02*
X6410991Y-9604889D01*
X6410991Y-9604889D02*
X6401467Y-9623936D01*
X6401467Y-9623936D02*
X6391943Y-9633460D01*
X6391943Y-9633460D02*
X6372896Y-9642984D01*
X6372896Y-9642984D02*
X6334801Y-9642984D01*
X6334801Y-9642984D02*
X6315753Y-9633460D01*
X6496705Y-9623936D02*
X6506229Y-9633460D01*
X6506229Y-9633460D02*
X6496705Y-9642984D01*
X6496705Y-9642984D02*
X6487182Y-9633460D01*
X6487182Y-9633460D02*
X6496705Y-9623936D01*
X6496705Y-9623936D02*
X6496705Y-9642984D01*
X6496705Y-9519174D02*
X6506229Y-9528698D01*
X6506229Y-9528698D02*
X6496705Y-9538222D01*
X6496705Y-9538222D02*
X6487182Y-9528698D01*
X6487182Y-9528698D02*
X6496705Y-9519174D01*
X6496705Y-9519174D02*
X6496705Y-9538222D01*
X4664500Y-9871500D02*
X4864500Y-10071500D01*
X4864500Y-9871500D02*
X4664500Y-10071500D01*
X5115753Y-9882031D02*
X5125277Y-9872508D01*
X5125277Y-9872508D02*
X5144324Y-9862984D01*
X5144324Y-9862984D02*
X5191944Y-9862984D01*
X5191944Y-9862984D02*
X5210991Y-9872508D01*
X5210991Y-9872508D02*
X5220515Y-9882031D01*
X5220515Y-9882031D02*
X5230039Y-9901079D01*
X5230039Y-9901079D02*
X5230039Y-9920127D01*
X5230039Y-9920127D02*
X5220515Y-9948698D01*
X5220515Y-9948698D02*
X5106229Y-10062984D01*
X5106229Y-10062984D02*
X5230039Y-10062984D01*
X5315753Y-10043936D02*
X5325277Y-10053460D01*
X5325277Y-10053460D02*
X5315753Y-10062984D01*
X5315753Y-10062984D02*
X5306229Y-10053460D01*
X5306229Y-10053460D02*
X5315753Y-10043936D01*
X5315753Y-10043936D02*
X5315753Y-10062984D01*
X5515753Y-10062984D02*
X5401467Y-10062984D01*
X5458610Y-10062984D02*
X5458610Y-9862984D01*
X5458610Y-9862984D02*
X5439563Y-9891555D01*
X5439563Y-9891555D02*
X5420515Y-9910603D01*
X5420515Y-9910603D02*
X5401467Y-9920127D01*
X5639562Y-9862984D02*
X5658610Y-9862984D01*
X5658610Y-9862984D02*
X5677658Y-9872508D01*
X5677658Y-9872508D02*
X5687182Y-9882031D01*
X5687182Y-9882031D02*
X5696705Y-9901079D01*
X5696705Y-9901079D02*
X5706229Y-9939174D01*
X5706229Y-9939174D02*
X5706229Y-9986793D01*
X5706229Y-9986793D02*
X5696705Y-10024889D01*
X5696705Y-10024889D02*
X5687182Y-10043936D01*
X5687182Y-10043936D02*
X5677658Y-10053460D01*
X5677658Y-10053460D02*
X5658610Y-10062984D01*
X5658610Y-10062984D02*
X5639562Y-10062984D01*
X5639562Y-10062984D02*
X5620515Y-10053460D01*
X5620515Y-10053460D02*
X5610991Y-10043936D01*
X5610991Y-10043936D02*
X5601467Y-10024889D01*
X5601467Y-10024889D02*
X5591944Y-9986793D01*
X5591944Y-9986793D02*
X5591944Y-9939174D01*
X5591944Y-9939174D02*
X5601467Y-9901079D01*
X5601467Y-9901079D02*
X5610991Y-9882031D01*
X5610991Y-9882031D02*
X5620515Y-9872508D01*
X5620515Y-9872508D02*
X5639562Y-9862984D01*
X5830039Y-9862984D02*
X5849086Y-9862984D01*
X5849086Y-9862984D02*
X5868134Y-9872508D01*
X5868134Y-9872508D02*
X5877658Y-9882031D01*
X5877658Y-9882031D02*
X5887182Y-9901079D01*
X5887182Y-9901079D02*
X5896705Y-9939174D01*
X5896705Y-9939174D02*
X5896705Y-9986793D01*
X5896705Y-9986793D02*
X5887182Y-10024889D01*
X5887182Y-10024889D02*
X5877658Y-10043936D01*
X5877658Y-10043936D02*
X5868134Y-10053460D01*
X5868134Y-10053460D02*
X5849086Y-10062984D01*
X5849086Y-10062984D02*
X5830039Y-10062984D01*
X5830039Y-10062984D02*
X5810991Y-10053460D01*
X5810991Y-10053460D02*
X5801467Y-10043936D01*
X5801467Y-10043936D02*
X5791943Y-10024889D01*
X5791943Y-10024889D02*
X5782420Y-9986793D01*
X5782420Y-9986793D02*
X5782420Y-9939174D01*
X5782420Y-9939174D02*
X5791943Y-9901079D01*
X5791943Y-9901079D02*
X5801467Y-9882031D01*
X5801467Y-9882031D02*
X5810991Y-9872508D01*
X5810991Y-9872508D02*
X5830039Y-9862984D01*
X5982420Y-10062984D02*
X5982420Y-9929650D01*
X5982420Y-9948698D02*
X5991943Y-9939174D01*
X5991943Y-9939174D02*
X6010991Y-9929650D01*
X6010991Y-9929650D02*
X6039563Y-9929650D01*
X6039563Y-9929650D02*
X6058610Y-9939174D01*
X6058610Y-9939174D02*
X6068134Y-9958222D01*
X6068134Y-9958222D02*
X6068134Y-10062984D01*
X6068134Y-9958222D02*
X6077658Y-9939174D01*
X6077658Y-9939174D02*
X6096705Y-9929650D01*
X6096705Y-9929650D02*
X6125277Y-9929650D01*
X6125277Y-9929650D02*
X6144324Y-9939174D01*
X6144324Y-9939174D02*
X6153848Y-9958222D01*
X6153848Y-9958222D02*
X6153848Y-10062984D01*
X6249086Y-10062984D02*
X6249086Y-9929650D01*
X6249086Y-9948698D02*
X6258610Y-9939174D01*
X6258610Y-9939174D02*
X6277658Y-9929650D01*
X6277658Y-9929650D02*
X6306229Y-9929650D01*
X6306229Y-9929650D02*
X6325277Y-9939174D01*
X6325277Y-9939174D02*
X6334801Y-9958222D01*
X6334801Y-9958222D02*
X6334801Y-10062984D01*
X6334801Y-9958222D02*
X6344324Y-9939174D01*
X6344324Y-9939174D02*
X6363372Y-9929650D01*
X6363372Y-9929650D02*
X6391943Y-9929650D01*
X6391943Y-9929650D02*
X6410991Y-9939174D01*
X6410991Y-9939174D02*
X6420515Y-9958222D01*
X6420515Y-9958222D02*
X6420515Y-10062984D01*
X6810991Y-9853460D02*
X6639563Y-10110603D01*
X7068134Y-9862984D02*
X7087182Y-9862984D01*
X7087182Y-9862984D02*
X7106229Y-9872508D01*
X7106229Y-9872508D02*
X7115753Y-9882031D01*
X7115753Y-9882031D02*
X7125277Y-9901079D01*
X7125277Y-9901079D02*
X7134801Y-9939174D01*
X7134801Y-9939174D02*
X7134801Y-9986793D01*
X7134801Y-9986793D02*
X7125277Y-10024889D01*
X7125277Y-10024889D02*
X7115753Y-10043936D01*
X7115753Y-10043936D02*
X7106229Y-10053460D01*
X7106229Y-10053460D02*
X7087182Y-10062984D01*
X7087182Y-10062984D02*
X7068134Y-10062984D01*
X7068134Y-10062984D02*
X7049086Y-10053460D01*
X7049086Y-10053460D02*
X7039563Y-10043936D01*
X7039563Y-10043936D02*
X7030039Y-10024889D01*
X7030039Y-10024889D02*
X7020515Y-9986793D01*
X7020515Y-9986793D02*
X7020515Y-9939174D01*
X7020515Y-9939174D02*
X7030039Y-9901079D01*
X7030039Y-9901079D02*
X7039563Y-9882031D01*
X7039563Y-9882031D02*
X7049086Y-9872508D01*
X7049086Y-9872508D02*
X7068134Y-9862984D01*
X7220515Y-10043936D02*
X7230039Y-10053460D01*
X7230039Y-10053460D02*
X7220515Y-10062984D01*
X7220515Y-10062984D02*
X7210991Y-10053460D01*
X7210991Y-10053460D02*
X7220515Y-10043936D01*
X7220515Y-10043936D02*
X7220515Y-10062984D01*
X7353848Y-9862984D02*
X7372896Y-9862984D01*
X7372896Y-9862984D02*
X7391944Y-9872508D01*
X7391944Y-9872508D02*
X7401467Y-9882031D01*
X7401467Y-9882031D02*
X7410991Y-9901079D01*
X7410991Y-9901079D02*
X7420515Y-9939174D01*
X7420515Y-9939174D02*
X7420515Y-9986793D01*
X7420515Y-9986793D02*
X7410991Y-10024889D01*
X7410991Y-10024889D02*
X7401467Y-10043936D01*
X7401467Y-10043936D02*
X7391944Y-10053460D01*
X7391944Y-10053460D02*
X7372896Y-10062984D01*
X7372896Y-10062984D02*
X7353848Y-10062984D01*
X7353848Y-10062984D02*
X7334801Y-10053460D01*
X7334801Y-10053460D02*
X7325277Y-10043936D01*
X7325277Y-10043936D02*
X7315753Y-10024889D01*
X7315753Y-10024889D02*
X7306229Y-9986793D01*
X7306229Y-9986793D02*
X7306229Y-9939174D01*
X7306229Y-9939174D02*
X7315753Y-9901079D01*
X7315753Y-9901079D02*
X7325277Y-9882031D01*
X7325277Y-9882031D02*
X7334801Y-9872508D01*
X7334801Y-9872508D02*
X7353848Y-9862984D01*
X7534801Y-9948698D02*
X7515753Y-9939174D01*
X7515753Y-9939174D02*
X7506229Y-9929650D01*
X7506229Y-9929650D02*
X7496706Y-9910603D01*
X7496706Y-9910603D02*
X7496706Y-9901079D01*
X7496706Y-9901079D02*
X7506229Y-9882031D01*
X7506229Y-9882031D02*
X7515753Y-9872508D01*
X7515753Y-9872508D02*
X7534801Y-9862984D01*
X7534801Y-9862984D02*
X7572896Y-9862984D01*
X7572896Y-9862984D02*
X7591944Y-9872508D01*
X7591944Y-9872508D02*
X7601467Y-9882031D01*
X7601467Y-9882031D02*
X7610991Y-9901079D01*
X7610991Y-9901079D02*
X7610991Y-9910603D01*
X7610991Y-9910603D02*
X7601467Y-9929650D01*
X7601467Y-9929650D02*
X7591944Y-9939174D01*
X7591944Y-9939174D02*
X7572896Y-9948698D01*
X7572896Y-9948698D02*
X7534801Y-9948698D01*
X7534801Y-9948698D02*
X7515753Y-9958222D01*
X7515753Y-9958222D02*
X7506229Y-9967746D01*
X7506229Y-9967746D02*
X7496706Y-9986793D01*
X7496706Y-9986793D02*
X7496706Y-10024889D01*
X7496706Y-10024889D02*
X7506229Y-10043936D01*
X7506229Y-10043936D02*
X7515753Y-10053460D01*
X7515753Y-10053460D02*
X7534801Y-10062984D01*
X7534801Y-10062984D02*
X7572896Y-10062984D01*
X7572896Y-10062984D02*
X7591944Y-10053460D01*
X7591944Y-10053460D02*
X7601467Y-10043936D01*
X7601467Y-10043936D02*
X7610991Y-10024889D01*
X7610991Y-10024889D02*
X7610991Y-9986793D01*
X7610991Y-9986793D02*
X7601467Y-9967746D01*
X7601467Y-9967746D02*
X7591944Y-9958222D01*
X7591944Y-9958222D02*
X7572896Y-9948698D01*
X7687182Y-9882031D02*
X7696706Y-9872508D01*
X7696706Y-9872508D02*
X7715753Y-9862984D01*
X7715753Y-9862984D02*
X7763372Y-9862984D01*
X7763372Y-9862984D02*
X7782420Y-9872508D01*
X7782420Y-9872508D02*
X7791944Y-9882031D01*
X7791944Y-9882031D02*
X7801467Y-9901079D01*
X7801467Y-9901079D02*
X7801467Y-9920127D01*
X7801467Y-9920127D02*
X7791944Y-9948698D01*
X7791944Y-9948698D02*
X7677658Y-10062984D01*
X7677658Y-10062984D02*
X7801467Y-10062984D01*
X7868134Y-9862984D02*
X8001467Y-9862984D01*
X8001467Y-9862984D02*
X7915753Y-10062984D01*
X8068134Y-9862984D02*
X8068134Y-9901079D01*
X8144325Y-9862984D02*
X8144325Y-9901079D01*
X8439563Y-10139174D02*
X8430039Y-10129650D01*
X8430039Y-10129650D02*
X8410991Y-10101079D01*
X8410991Y-10101079D02*
X8401468Y-10082031D01*
X8401468Y-10082031D02*
X8391944Y-10053460D01*
X8391944Y-10053460D02*
X8382420Y-10005841D01*
X8382420Y-10005841D02*
X8382420Y-9967746D01*
X8382420Y-9967746D02*
X8391944Y-9920127D01*
X8391944Y-9920127D02*
X8401468Y-9891555D01*
X8401468Y-9891555D02*
X8410991Y-9872508D01*
X8410991Y-9872508D02*
X8430039Y-9843936D01*
X8430039Y-9843936D02*
X8439563Y-9834412D01*
X8601468Y-9929650D02*
X8601468Y-10062984D01*
X8553849Y-9853460D02*
X8506230Y-9996317D01*
X8506230Y-9996317D02*
X8630039Y-9996317D01*
X8858611Y-10062984D02*
X8858611Y-9862984D01*
X8944325Y-10062984D02*
X8944325Y-9958222D01*
X8944325Y-9958222D02*
X8934801Y-9939174D01*
X8934801Y-9939174D02*
X8915753Y-9929650D01*
X8915753Y-9929650D02*
X8887182Y-9929650D01*
X8887182Y-9929650D02*
X8868134Y-9939174D01*
X8868134Y-9939174D02*
X8858611Y-9948698D01*
X9068134Y-10062984D02*
X9049087Y-10053460D01*
X9049087Y-10053460D02*
X9039563Y-10043936D01*
X9039563Y-10043936D02*
X9030039Y-10024889D01*
X9030039Y-10024889D02*
X9030039Y-9967746D01*
X9030039Y-9967746D02*
X9039563Y-9948698D01*
X9039563Y-9948698D02*
X9049087Y-9939174D01*
X9049087Y-9939174D02*
X9068134Y-9929650D01*
X9068134Y-9929650D02*
X9096706Y-9929650D01*
X9096706Y-9929650D02*
X9115753Y-9939174D01*
X9115753Y-9939174D02*
X9125277Y-9948698D01*
X9125277Y-9948698D02*
X9134801Y-9967746D01*
X9134801Y-9967746D02*
X9134801Y-10024889D01*
X9134801Y-10024889D02*
X9125277Y-10043936D01*
X9125277Y-10043936D02*
X9115753Y-10053460D01*
X9115753Y-10053460D02*
X9096706Y-10062984D01*
X9096706Y-10062984D02*
X9068134Y-10062984D01*
X9249087Y-10062984D02*
X9230039Y-10053460D01*
X9230039Y-10053460D02*
X9220515Y-10034412D01*
X9220515Y-10034412D02*
X9220515Y-9862984D01*
X9401468Y-10053460D02*
X9382420Y-10062984D01*
X9382420Y-10062984D02*
X9344325Y-10062984D01*
X9344325Y-10062984D02*
X9325277Y-10053460D01*
X9325277Y-10053460D02*
X9315753Y-10034412D01*
X9315753Y-10034412D02*
X9315753Y-9958222D01*
X9315753Y-9958222D02*
X9325277Y-9939174D01*
X9325277Y-9939174D02*
X9344325Y-9929650D01*
X9344325Y-9929650D02*
X9382420Y-9929650D01*
X9382420Y-9929650D02*
X9401468Y-9939174D01*
X9401468Y-9939174D02*
X9410992Y-9958222D01*
X9410992Y-9958222D02*
X9410992Y-9977270D01*
X9410992Y-9977270D02*
X9315753Y-9996317D01*
X9487182Y-10053460D02*
X9506230Y-10062984D01*
X9506230Y-10062984D02*
X9544325Y-10062984D01*
X9544325Y-10062984D02*
X9563373Y-10053460D01*
X9563373Y-10053460D02*
X9572896Y-10034412D01*
X9572896Y-10034412D02*
X9572896Y-10024889D01*
X9572896Y-10024889D02*
X9563373Y-10005841D01*
X9563373Y-10005841D02*
X9544325Y-9996317D01*
X9544325Y-9996317D02*
X9515753Y-9996317D01*
X9515753Y-9996317D02*
X9496706Y-9986793D01*
X9496706Y-9986793D02*
X9487182Y-9967746D01*
X9487182Y-9967746D02*
X9487182Y-9958222D01*
X9487182Y-9958222D02*
X9496706Y-9939174D01*
X9496706Y-9939174D02*
X9515753Y-9929650D01*
X9515753Y-9929650D02*
X9544325Y-9929650D01*
X9544325Y-9929650D02*
X9563373Y-9939174D01*
X9639563Y-10139174D02*
X9649087Y-10129650D01*
X9649087Y-10129650D02*
X9668134Y-10101079D01*
X9668134Y-10101079D02*
X9677658Y-10082031D01*
X9677658Y-10082031D02*
X9687182Y-10053460D01*
X9687182Y-10053460D02*
X9696706Y-10005841D01*
X9696706Y-10005841D02*
X9696706Y-9967746D01*
X9696706Y-9967746D02*
X9687182Y-9920127D01*
X9687182Y-9920127D02*
X9677658Y-9891555D01*
X9677658Y-9891555D02*
X9668134Y-9872508D01*
X9668134Y-9872508D02*
X9649087Y-9843936D01*
X9649087Y-9843936D02*
X9639563Y-9834412D01*
X10001468Y-10139174D02*
X9991944Y-10129650D01*
X9991944Y-10129650D02*
X9972896Y-10101079D01*
X9972896Y-10101079D02*
X9963373Y-10082031D01*
X9963373Y-10082031D02*
X9953849Y-10053460D01*
X9953849Y-10053460D02*
X9944325Y-10005841D01*
X9944325Y-10005841D02*
X9944325Y-9967746D01*
X9944325Y-9967746D02*
X9953849Y-9920127D01*
X9953849Y-9920127D02*
X9963373Y-9891555D01*
X9963373Y-9891555D02*
X9972896Y-9872508D01*
X9972896Y-9872508D02*
X9991944Y-9843936D01*
X9991944Y-9843936D02*
X10001468Y-9834412D01*
X10077658Y-9929650D02*
X10077658Y-10062984D01*
X10077658Y-9948698D02*
X10087182Y-9939174D01*
X10087182Y-9939174D02*
X10106230Y-9929650D01*
X10106230Y-9929650D02*
X10134801Y-9929650D01*
X10134801Y-9929650D02*
X10153849Y-9939174D01*
X10153849Y-9939174D02*
X10163373Y-9958222D01*
X10163373Y-9958222D02*
X10163373Y-10062984D01*
X10287182Y-10062984D02*
X10268134Y-10053460D01*
X10268134Y-10053460D02*
X10258611Y-10043936D01*
X10258611Y-10043936D02*
X10249087Y-10024889D01*
X10249087Y-10024889D02*
X10249087Y-9967746D01*
X10249087Y-9967746D02*
X10258611Y-9948698D01*
X10258611Y-9948698D02*
X10268134Y-9939174D01*
X10268134Y-9939174D02*
X10287182Y-9929650D01*
X10287182Y-9929650D02*
X10315754Y-9929650D01*
X10315754Y-9929650D02*
X10334801Y-9939174D01*
X10334801Y-9939174D02*
X10344325Y-9948698D01*
X10344325Y-9948698D02*
X10353849Y-9967746D01*
X10353849Y-9967746D02*
X10353849Y-10024889D01*
X10353849Y-10024889D02*
X10344325Y-10043936D01*
X10344325Y-10043936D02*
X10334801Y-10053460D01*
X10334801Y-10053460D02*
X10315754Y-10062984D01*
X10315754Y-10062984D02*
X10287182Y-10062984D01*
X10410992Y-9929650D02*
X10487182Y-9929650D01*
X10439563Y-9862984D02*
X10439563Y-10034412D01*
X10439563Y-10034412D02*
X10449087Y-10053460D01*
X10449087Y-10053460D02*
X10468134Y-10062984D01*
X10468134Y-10062984D02*
X10487182Y-10062984D01*
X10706230Y-9929650D02*
X10706230Y-10129650D01*
X10706230Y-9939174D02*
X10725277Y-9929650D01*
X10725277Y-9929650D02*
X10763373Y-9929650D01*
X10763373Y-9929650D02*
X10782420Y-9939174D01*
X10782420Y-9939174D02*
X10791944Y-9948698D01*
X10791944Y-9948698D02*
X10801468Y-9967746D01*
X10801468Y-9967746D02*
X10801468Y-10024889D01*
X10801468Y-10024889D02*
X10791944Y-10043936D01*
X10791944Y-10043936D02*
X10782420Y-10053460D01*
X10782420Y-10053460D02*
X10763373Y-10062984D01*
X10763373Y-10062984D02*
X10725277Y-10062984D01*
X10725277Y-10062984D02*
X10706230Y-10053460D01*
X10915754Y-10062984D02*
X10896706Y-10053460D01*
X10896706Y-10053460D02*
X10887182Y-10034412D01*
X10887182Y-10034412D02*
X10887182Y-9862984D01*
X11077658Y-10062984D02*
X11077658Y-9958222D01*
X11077658Y-9958222D02*
X11068135Y-9939174D01*
X11068135Y-9939174D02*
X11049087Y-9929650D01*
X11049087Y-9929650D02*
X11010992Y-9929650D01*
X11010992Y-9929650D02*
X10991944Y-9939174D01*
X11077658Y-10053460D02*
X11058611Y-10062984D01*
X11058611Y-10062984D02*
X11010992Y-10062984D01*
X11010992Y-10062984D02*
X10991944Y-10053460D01*
X10991944Y-10053460D02*
X10982420Y-10034412D01*
X10982420Y-10034412D02*
X10982420Y-10015365D01*
X10982420Y-10015365D02*
X10991944Y-9996317D01*
X10991944Y-9996317D02*
X11010992Y-9986793D01*
X11010992Y-9986793D02*
X11058611Y-9986793D01*
X11058611Y-9986793D02*
X11077658Y-9977270D01*
X11144325Y-9929650D02*
X11220515Y-9929650D01*
X11172896Y-9862984D02*
X11172896Y-10034412D01*
X11172896Y-10034412D02*
X11182420Y-10053460D01*
X11182420Y-10053460D02*
X11201468Y-10062984D01*
X11201468Y-10062984D02*
X11220515Y-10062984D01*
X11363373Y-10053460D02*
X11344325Y-10062984D01*
X11344325Y-10062984D02*
X11306230Y-10062984D01*
X11306230Y-10062984D02*
X11287182Y-10053460D01*
X11287182Y-10053460D02*
X11277658Y-10034412D01*
X11277658Y-10034412D02*
X11277658Y-9958222D01*
X11277658Y-9958222D02*
X11287182Y-9939174D01*
X11287182Y-9939174D02*
X11306230Y-9929650D01*
X11306230Y-9929650D02*
X11344325Y-9929650D01*
X11344325Y-9929650D02*
X11363373Y-9939174D01*
X11363373Y-9939174D02*
X11372896Y-9958222D01*
X11372896Y-9958222D02*
X11372896Y-9977270D01*
X11372896Y-9977270D02*
X11277658Y-9996317D01*
X11544325Y-10062984D02*
X11544325Y-9862984D01*
X11544325Y-10053460D02*
X11525277Y-10062984D01*
X11525277Y-10062984D02*
X11487182Y-10062984D01*
X11487182Y-10062984D02*
X11468134Y-10053460D01*
X11468134Y-10053460D02*
X11458611Y-10043936D01*
X11458611Y-10043936D02*
X11449087Y-10024889D01*
X11449087Y-10024889D02*
X11449087Y-9967746D01*
X11449087Y-9967746D02*
X11458611Y-9948698D01*
X11458611Y-9948698D02*
X11468134Y-9939174D01*
X11468134Y-9939174D02*
X11487182Y-9929650D01*
X11487182Y-9929650D02*
X11525277Y-9929650D01*
X11525277Y-9929650D02*
X11544325Y-9939174D01*
X11620515Y-10139174D02*
X11630039Y-10129650D01*
X11630039Y-10129650D02*
X11649087Y-10101079D01*
X11649087Y-10101079D02*
X11658611Y-10082031D01*
X11658611Y-10082031D02*
X11668134Y-10053460D01*
X11668134Y-10053460D02*
X11677658Y-10005841D01*
X11677658Y-10005841D02*
X11677658Y-9967746D01*
X11677658Y-9967746D02*
X11668134Y-9920127D01*
X11668134Y-9920127D02*
X11658611Y-9891555D01*
X11658611Y-9891555D02*
X11649087Y-9872508D01*
X11649087Y-9872508D02*
X11630039Y-9843936D01*
X11630039Y-9843936D02*
X11620515Y-9834412D01*
M02*
