%TF.GenerationSoftware,KiCad,Pcbnew,10.0.4*%
%TF.CreationDate,2026-08-08T20:12:06+03:00*%
%TF.ProjectId,MCU_Datalogger,4d43555f-4461-4746-916c-6f676765722e,1*%
%TF.SameCoordinates,Original*%
%TF.FileFunction,Copper,L2,Bot*%
%TF.FilePolarity,Positive*%
%FSLAX46Y46*%
G04 Gerber Fmt 4.6, Leading zero omitted, Abs format (unit mm)*
G04 Created by KiCad (PCBNEW 10.0.4) date 2026-08-08 20:12:06*
%MOMM*%
%LPD*%
G01*
G04 APERTURE LIST*
%TA.AperFunction,ComponentPad*%
%ADD10R,1.700000X1.700000*%
%TD*%
%TA.AperFunction,ComponentPad*%
%ADD11C,1.700000*%
%TD*%
%TA.AperFunction,ViaPad*%
%ADD12C,0.600000*%
%TD*%
%TA.AperFunction,Conductor*%
%ADD13C,0.200000*%
%TD*%
G04 APERTURE END LIST*
D10*
%TO.P,BT1,1,+_1*%
%TO.N,Net-(BT1-+)*%
X51054000Y-70485000D03*
D11*
%TO.P,BT1,2,-_2*%
%TO.N,GND*%
X51054000Y-73025000D03*
%TD*%
D10*
%TO.P,J1,1,Pin_1_1*%
%TO.N,GND*%
X97155000Y-70104000D03*
D11*
%TO.P,J1,2,Pin_2_2*%
%TO.N,/Vcc*%
X97155000Y-72644000D03*
%TO.P,J1,3,Pin_3_3*%
%TO.N,/SDA*%
X97155000Y-75184000D03*
%TO.P,J1,4,Pin_4_4*%
%TO.N,/SCK*%
X97155000Y-77724000D03*
%TD*%
D10*
%TO.P,J4,1,Pin_1_1*%
%TO.N,/MISO*%
X94610000Y-81280000D03*
D11*
%TO.P,J4,2,Pin_2_2*%
%TO.N,/Vcc*%
X97150000Y-81280000D03*
%TO.P,J4,3,Pin_3_3*%
%TO.N,/SCK*%
X94610000Y-83820000D03*
%TO.P,J4,4,Pin_4_4*%
%TO.N,/MOSI*%
X97150000Y-83820000D03*
%TO.P,J4,5,Pin_5_5*%
%TO.N,/RESET*%
X94610000Y-86360000D03*
%TO.P,J4,6,Pin_6_6*%
%TO.N,GND*%
X97150000Y-86360000D03*
%TD*%
D10*
%TO.P,J3,1,Pin_1_1*%
%TO.N,GND*%
X56896000Y-91186000D03*
D11*
%TO.P,J3,2,Pin_2_2*%
%TO.N,/Vcc*%
X59436000Y-91186000D03*
%TO.P,J3,3,Pin_3_3*%
%TO.N,/RX*%
X61976000Y-91186000D03*
%TO.P,J3,4,Pin_4_4*%
%TO.N,/TX*%
X64516000Y-91186000D03*
%TD*%
D10*
%TO.P,J2,1,Pin_1_1*%
%TO.N,/D2*%
X69977000Y-91186000D03*
D11*
%TO.P,J2,2,Pin_2_2*%
%TO.N,/D3*%
X72517000Y-91186000D03*
%TO.P,J2,3,Pin_3_3*%
%TO.N,/D4*%
X75057000Y-91186000D03*
%TO.P,J2,4,Pin_4_4*%
%TO.N,/D5*%
X77597000Y-91186000D03*
%TO.P,J2,5,Pin_5_5*%
%TO.N,/D6*%
X80137000Y-91186000D03*
%TO.P,J2,6,Pin_6_6*%
%TO.N,/D7*%
X82677000Y-91186000D03*
%TO.P,J2,7,Pin_7_7*%
%TO.N,/D8*%
X85217000Y-91186000D03*
%TO.P,J2,8,Pin_8_8*%
%TO.N,GND*%
X87757000Y-91186000D03*
%TO.P,J2,9,Pin_9_9*%
%TO.N,/Vcc*%
X90297000Y-91186000D03*
%TD*%
D12*
%TO.N,GND*%
X94600000Y-71350000D03*
X92700000Y-67600000D03*
X54350000Y-87200000D03*
X58750000Y-76750000D03*
X54750000Y-75150000D03*
X82750000Y-67450000D03*
X88850000Y-82900000D03*
X90650000Y-86600000D03*
X54450000Y-82850000D03*
X76350000Y-73550000D03*
X83504000Y-82646000D03*
X72150000Y-69450000D03*
X92350000Y-71300000D03*
X66450000Y-75950000D03*
X86250000Y-70000000D03*
%TO.N,/SDA*%
X93472000Y-70104000D03*
X90297000Y-81661000D03*
%TO.N,/SCK*%
X64900000Y-73700000D03*
X67350000Y-79150000D03*
X93345000Y-68580000D03*
%TO.N,Net-(BT1-+)*%
X74200000Y-79800000D03*
X70050000Y-78350000D03*
%TO.N,/MISO*%
X70100000Y-83850000D03*
%TO.N,/MOSI*%
X69100000Y-83950000D03*
%TO.N,/RX*%
X63400000Y-70400000D03*
%TO.N,/TX*%
X62600000Y-87500000D03*
X62600000Y-70400000D03*
%TO.N,/D2*%
X61750000Y-86900000D03*
X61750000Y-70400000D03*
%TO.N,/D3*%
X60650000Y-86150000D03*
X60650000Y-72400000D03*
%TO.N,/D4*%
X59900000Y-85250000D03*
X58950000Y-72400000D03*
%TO.N,/D5*%
X64500000Y-84200000D03*
X77600000Y-89200000D03*
%TO.N,/D6*%
X65600000Y-84150000D03*
X78700000Y-89150000D03*
%TO.N,/D7*%
X66800000Y-84150000D03*
X79900000Y-89150000D03*
%TO.N,/D8*%
X67950000Y-84150000D03*
X81050000Y-89150000D03*
%TD*%
%TO.N,/SDA*%
D13*
X93472000Y-71501000D02*
X93472000Y-70104000D01*
X90678000Y-81661000D02*
X97155000Y-75184000D01*
X97155000Y-75184000D02*
X93472000Y-71501000D01*
X90297000Y-81661000D02*
X90678000Y-81661000D01*
%TO.N,/SCK*%
X67350000Y-79150000D02*
X64900000Y-76700000D01*
X96000000Y-78879000D02*
X97155000Y-77724000D01*
X98305000Y-76574000D02*
X98305000Y-68954000D01*
X97931000Y-68580000D02*
X93345000Y-68580000D01*
X94610000Y-83820000D02*
X96000000Y-82430000D01*
X97155000Y-77724000D02*
X98305000Y-76574000D01*
X98305000Y-68954000D02*
X97931000Y-68580000D01*
X64900000Y-76700000D02*
X64900000Y-73700000D01*
X96000000Y-82430000D02*
X96000000Y-78879000D01*
%TO.N,Net-(BT1-+)*%
X71500000Y-79800000D02*
X70050000Y-78350000D01*
X74200000Y-79800000D02*
X71500000Y-79800000D01*
%TO.N,/MISO*%
X92040000Y-83850000D02*
X94610000Y-81280000D01*
X70100000Y-83850000D02*
X92040000Y-83850000D01*
%TO.N,/MOSI*%
X95760000Y-85210000D02*
X97150000Y-83820000D01*
X69100000Y-83950000D02*
X70360000Y-85210000D01*
X70360000Y-85210000D02*
X95760000Y-85210000D01*
%TO.N,/RX*%
X61976000Y-91186000D02*
X63400000Y-89762000D01*
X63400000Y-89762000D02*
X63400000Y-70400000D01*
%TO.N,/TX*%
X62600000Y-87500000D02*
X62600000Y-70400000D01*
%TO.N,/D2*%
X61750000Y-86900000D02*
X61750000Y-70400000D01*
%TO.N,/D3*%
X60650000Y-86150000D02*
X60650000Y-72400000D01*
%TO.N,/D4*%
X59900000Y-85250000D02*
X59900000Y-73350000D01*
X59900000Y-73350000D02*
X58950000Y-72400000D01*
%TO.N,/D5*%
X69500000Y-89200000D02*
X77600000Y-89200000D01*
X64500000Y-84200000D02*
X69500000Y-89200000D01*
%TO.N,/D6*%
X78150000Y-88600000D02*
X78700000Y-89150000D01*
X70050000Y-88600000D02*
X78150000Y-88600000D01*
X65600000Y-84150000D02*
X70050000Y-88600000D01*
%TO.N,/D7*%
X78500000Y-87750000D02*
X70400000Y-87750000D01*
X70400000Y-87750000D02*
X66800000Y-84150000D01*
X79900000Y-89150000D02*
X78500000Y-87750000D01*
%TO.N,/D8*%
X81050000Y-89150000D02*
X78400000Y-86500000D01*
X70300000Y-86500000D02*
X67950000Y-84150000D01*
X78400000Y-86500000D02*
X70300000Y-86500000D01*
%TD*%
%TA.AperFunction,Conductor*%
%TO.N,GND*%
G36*
X98620211Y-84123842D02*
G01*
X98671687Y-84171086D01*
X98689500Y-84235119D01*
X98689500Y-92665500D01*
X98669815Y-92732539D01*
X98617011Y-92778294D01*
X98565500Y-92789500D01*
X78743874Y-92789500D01*
X78743501Y-92789499D01*
X75208264Y-92778861D01*
X75141284Y-92758975D01*
X75095688Y-92706034D01*
X75085953Y-92636846D01*
X75115169Y-92573378D01*
X75174060Y-92535780D01*
X75189230Y-92532390D01*
X75373243Y-92503246D01*
X75575412Y-92437557D01*
X75764816Y-92341051D01*
X75851138Y-92278335D01*
X75936786Y-92216109D01*
X75936788Y-92216106D01*
X75936792Y-92216104D01*
X76087104Y-92065792D01*
X76087106Y-92065788D01*
X76087109Y-92065786D01*
X76212048Y-91893820D01*
X76212047Y-91893820D01*
X76212051Y-91893816D01*
X76216514Y-91885054D01*
X76264488Y-91834259D01*
X76332308Y-91817463D01*
X76398444Y-91839999D01*
X76437486Y-91885056D01*
X76441951Y-91893820D01*
X76566890Y-92065786D01*
X76717213Y-92216109D01*
X76889179Y-92341048D01*
X76889181Y-92341049D01*
X76889184Y-92341051D01*
X77078588Y-92437557D01*
X77280757Y-92503246D01*
X77490713Y-92536500D01*
X77490714Y-92536500D01*
X77703286Y-92536500D01*
X77703287Y-92536500D01*
X77913243Y-92503246D01*
X78115412Y-92437557D01*
X78304816Y-92341051D01*
X78391138Y-92278335D01*
X78476786Y-92216109D01*
X78476788Y-92216106D01*
X78476792Y-92216104D01*
X78627104Y-92065792D01*
X78627106Y-92065788D01*
X78627109Y-92065786D01*
X78752048Y-91893820D01*
X78752047Y-91893820D01*
X78752051Y-91893816D01*
X78756514Y-91885054D01*
X78804488Y-91834259D01*
X78872308Y-91817463D01*
X78938444Y-91839999D01*
X78977486Y-91885056D01*
X78981951Y-91893820D01*
X79106890Y-92065786D01*
X79257213Y-92216109D01*
X79429179Y-92341048D01*
X79429181Y-92341049D01*
X79429184Y-92341051D01*
X79618588Y-92437557D01*
X79820757Y-92503246D01*
X80030713Y-92536500D01*
X80030714Y-92536500D01*
X80243286Y-92536500D01*
X80243287Y-92536500D01*
X80453243Y-92503246D01*
X80655412Y-92437557D01*
X80844816Y-92341051D01*
X80931138Y-92278335D01*
X81016786Y-92216109D01*
X81016788Y-92216106D01*
X81016792Y-92216104D01*
X81167104Y-92065792D01*
X81167106Y-92065788D01*
X81167109Y-92065786D01*
X81292048Y-91893820D01*
X81292047Y-91893820D01*
X81292051Y-91893816D01*
X81296514Y-91885054D01*
X81344488Y-91834259D01*
X81412308Y-91817463D01*
X81478444Y-91839999D01*
X81517486Y-91885056D01*
X81521951Y-91893820D01*
X81646890Y-92065786D01*
X81797213Y-92216109D01*
X81969179Y-92341048D01*
X81969181Y-92341049D01*
X81969184Y-92341051D01*
X82158588Y-92437557D01*
X82360757Y-92503246D01*
X82570713Y-92536500D01*
X82570714Y-92536500D01*
X82783286Y-92536500D01*
X82783287Y-92536500D01*
X82993243Y-92503246D01*
X83195412Y-92437557D01*
X83384816Y-92341051D01*
X83471138Y-92278335D01*
X83556786Y-92216109D01*
X83556788Y-92216106D01*
X83556792Y-92216104D01*
X83707104Y-92065792D01*
X83707106Y-92065788D01*
X83707109Y-92065786D01*
X83832048Y-91893820D01*
X83832047Y-91893820D01*
X83832051Y-91893816D01*
X83836514Y-91885054D01*
X83884488Y-91834259D01*
X83952308Y-91817463D01*
X84018444Y-91839999D01*
X84057486Y-91885056D01*
X84061951Y-91893820D01*
X84186890Y-92065786D01*
X84337213Y-92216109D01*
X84509179Y-92341048D01*
X84509181Y-92341049D01*
X84509184Y-92341051D01*
X84698588Y-92437557D01*
X84900757Y-92503246D01*
X85110713Y-92536500D01*
X85110714Y-92536500D01*
X85323286Y-92536500D01*
X85323287Y-92536500D01*
X85533243Y-92503246D01*
X85735412Y-92437557D01*
X85924816Y-92341051D01*
X86011138Y-92278335D01*
X86096786Y-92216109D01*
X86096788Y-92216106D01*
X86096792Y-92216104D01*
X86247104Y-92065792D01*
X86247106Y-92065788D01*
X86247109Y-92065786D01*
X86372048Y-91893820D01*
X86372047Y-91893820D01*
X86372051Y-91893816D01*
X86468557Y-91704412D01*
X86494035Y-91626000D01*
X87624000Y-91626000D01*
X87988915Y-91626000D01*
X87957723Y-91429059D01*
X87957056Y-91424236D01*
X87953596Y-91395003D01*
X87953119Y-91390165D01*
X87950041Y-91351086D01*
X87949754Y-91346221D01*
X87948596Y-91316769D01*
X87948500Y-91311897D01*
X87948500Y-91079713D01*
X88946500Y-91079713D01*
X88946500Y-91292286D01*
X88977948Y-91490844D01*
X88979754Y-91502243D01*
X89028402Y-91651966D01*
X89045444Y-91704414D01*
X89141951Y-91893820D01*
X89266890Y-92065786D01*
X89417213Y-92216109D01*
X89589179Y-92341048D01*
X89589181Y-92341049D01*
X89589184Y-92341051D01*
X89778588Y-92437557D01*
X89980757Y-92503246D01*
X90190713Y-92536500D01*
X90190714Y-92536500D01*
X90403286Y-92536500D01*
X90403287Y-92536500D01*
X90613243Y-92503246D01*
X90815412Y-92437557D01*
X91004816Y-92341051D01*
X91091138Y-92278335D01*
X91176786Y-92216109D01*
X91176788Y-92216106D01*
X91176792Y-92216104D01*
X91327104Y-92065792D01*
X91327106Y-92065788D01*
X91327109Y-92065786D01*
X91452048Y-91893820D01*
X91452047Y-91893820D01*
X91452051Y-91893816D01*
X91548557Y-91704412D01*
X91614246Y-91502243D01*
X91647500Y-91292287D01*
X91647500Y-91079713D01*
X91614246Y-90869757D01*
X91612839Y-90865426D01*
X92624000Y-90865426D01*
X92636277Y-90942941D01*
X92636944Y-90947764D01*
X92640404Y-90976997D01*
X92640881Y-90981835D01*
X92643959Y-91020914D01*
X92644246Y-91025779D01*
X92645404Y-91055231D01*
X92645500Y-91060103D01*
X92645500Y-91311897D01*
X92645404Y-91316769D01*
X92644246Y-91346221D01*
X92643959Y-91351086D01*
X92640881Y-91390165D01*
X92640404Y-91395003D01*
X92636944Y-91424236D01*
X92636277Y-91429059D01*
X92624000Y-91506572D01*
X92624000Y-91626000D01*
X94126000Y-91626000D01*
X94126000Y-90557648D01*
X95229500Y-90557648D01*
X95229500Y-90762351D01*
X95261522Y-90964534D01*
X95324781Y-91159223D01*
X95388691Y-91284653D01*
X95402573Y-91311897D01*
X95417715Y-91341613D01*
X95538028Y-91507213D01*
X95682786Y-91651971D01*
X95837749Y-91764556D01*
X95848390Y-91772287D01*
X95937053Y-91817463D01*
X96030776Y-91865218D01*
X96030778Y-91865218D01*
X96030781Y-91865220D01*
X96118803Y-91893820D01*
X96225465Y-91928477D01*
X96326557Y-91944488D01*
X96427648Y-91960500D01*
X96427649Y-91960500D01*
X96632351Y-91960500D01*
X96632352Y-91960500D01*
X96834534Y-91928477D01*
X97029219Y-91865220D01*
X97211610Y-91772287D01*
X97305033Y-91704412D01*
X97377213Y-91651971D01*
X97377215Y-91651968D01*
X97377219Y-91651966D01*
X97521966Y-91507219D01*
X97521968Y-91507215D01*
X97521971Y-91507213D01*
X97635402Y-91351086D01*
X97642287Y-91341610D01*
X97735220Y-91159219D01*
X97798477Y-90964534D01*
X97830500Y-90762352D01*
X97830500Y-90557648D01*
X97798477Y-90355466D01*
X97735220Y-90160781D01*
X97735218Y-90160778D01*
X97735218Y-90160776D01*
X97699856Y-90091376D01*
X97642287Y-89978390D01*
X97633104Y-89965751D01*
X97521971Y-89812786D01*
X97377213Y-89668028D01*
X97211613Y-89547715D01*
X97211612Y-89547714D01*
X97211610Y-89547713D01*
X97144002Y-89513265D01*
X97029223Y-89454781D01*
X96834534Y-89391522D01*
X96659995Y-89363878D01*
X96632352Y-89359500D01*
X96427648Y-89359500D01*
X96403329Y-89363351D01*
X96225465Y-89391522D01*
X96030776Y-89454781D01*
X95848386Y-89547715D01*
X95682786Y-89668028D01*
X95538028Y-89812786D01*
X95417715Y-89978386D01*
X95324781Y-90160776D01*
X95261522Y-90355465D01*
X95229500Y-90557648D01*
X94126000Y-90557648D01*
X94126000Y-90124000D01*
X92624000Y-90124000D01*
X92624000Y-90865426D01*
X91612839Y-90865426D01*
X91548557Y-90667588D01*
X91452051Y-90478184D01*
X91452049Y-90478181D01*
X91452048Y-90478179D01*
X91327109Y-90306213D01*
X91176786Y-90155890D01*
X91004820Y-90030951D01*
X90815414Y-89934444D01*
X90815413Y-89934443D01*
X90815412Y-89934443D01*
X90613243Y-89868754D01*
X90613241Y-89868753D01*
X90613240Y-89868753D01*
X90451957Y-89843208D01*
X90403287Y-89835500D01*
X90190713Y-89835500D01*
X90142042Y-89843208D01*
X89980760Y-89868753D01*
X89778585Y-89934444D01*
X89589179Y-90030951D01*
X89417213Y-90155890D01*
X89266890Y-90306213D01*
X89141951Y-90478179D01*
X89045444Y-90667585D01*
X88979753Y-90869760D01*
X88946500Y-91079713D01*
X87948500Y-91079713D01*
X87948500Y-91060103D01*
X87948596Y-91055231D01*
X87949754Y-91025779D01*
X87950041Y-91020914D01*
X87953119Y-90981835D01*
X87953596Y-90976997D01*
X87957056Y-90947764D01*
X87957723Y-90942941D01*
X87997108Y-90694272D01*
X87997964Y-90689477D01*
X88003713Y-90660577D01*
X88004758Y-90655817D01*
X88013911Y-90617700D01*
X88015138Y-90612995D01*
X88023131Y-90584653D01*
X88024545Y-90579993D01*
X88102342Y-90340560D01*
X88103936Y-90335963D01*
X88114121Y-90308353D01*
X88115893Y-90303825D01*
X88130891Y-90267608D01*
X88132846Y-90263139D01*
X88145189Y-90236364D01*
X88147314Y-90231981D01*
X88202333Y-90124000D01*
X87624000Y-90124000D01*
X87624000Y-91626000D01*
X86494035Y-91626000D01*
X86534246Y-91502243D01*
X86567500Y-91292287D01*
X86567500Y-91079713D01*
X86534246Y-90869757D01*
X86468557Y-90667588D01*
X86372051Y-90478184D01*
X86372049Y-90478181D01*
X86372048Y-90478179D01*
X86247109Y-90306213D01*
X86096786Y-90155890D01*
X85924820Y-90030951D01*
X85735414Y-89934444D01*
X85735413Y-89934443D01*
X85735412Y-89934443D01*
X85533243Y-89868754D01*
X85533241Y-89868753D01*
X85533240Y-89868753D01*
X85371957Y-89843208D01*
X85323287Y-89835500D01*
X85110713Y-89835500D01*
X85062042Y-89843208D01*
X84900760Y-89868753D01*
X84698585Y-89934444D01*
X84509179Y-90030951D01*
X84337213Y-90155890D01*
X84186890Y-90306213D01*
X84061949Y-90478182D01*
X84057484Y-90486946D01*
X84009509Y-90537742D01*
X83941688Y-90554536D01*
X83875553Y-90531998D01*
X83836516Y-90486946D01*
X83832050Y-90478182D01*
X83707109Y-90306213D01*
X83556786Y-90155890D01*
X83384820Y-90030951D01*
X83195414Y-89934444D01*
X83195413Y-89934443D01*
X83195412Y-89934443D01*
X82993243Y-89868754D01*
X82993241Y-89868753D01*
X82993240Y-89868753D01*
X82831957Y-89843208D01*
X82783287Y-89835500D01*
X82570713Y-89835500D01*
X82522042Y-89843208D01*
X82360760Y-89868753D01*
X82158585Y-89934444D01*
X81969179Y-90030951D01*
X81797213Y-90155890D01*
X81646890Y-90306213D01*
X81521949Y-90478182D01*
X81517484Y-90486946D01*
X81469509Y-90537742D01*
X81401688Y-90554536D01*
X81335553Y-90531998D01*
X81296516Y-90486946D01*
X81292050Y-90478182D01*
X81167109Y-90306213D01*
X81023077Y-90162181D01*
X80989592Y-90100858D01*
X80994576Y-90031166D01*
X81036448Y-89975233D01*
X81101912Y-89950816D01*
X81110758Y-89950500D01*
X81128844Y-89950500D01*
X81128845Y-89950499D01*
X81283497Y-89919737D01*
X81429179Y-89859394D01*
X81560289Y-89771789D01*
X81671789Y-89660289D01*
X81759394Y-89529179D01*
X81819737Y-89383497D01*
X81850500Y-89228842D01*
X81850500Y-89071158D01*
X81850500Y-89071155D01*
X81850499Y-89071153D01*
X81837319Y-89004893D01*
X81819737Y-88916503D01*
X81807147Y-88886108D01*
X81759397Y-88770827D01*
X81759390Y-88770814D01*
X81671789Y-88639711D01*
X81671786Y-88639707D01*
X81560292Y-88528213D01*
X81560288Y-88528210D01*
X81429185Y-88440609D01*
X81429172Y-88440602D01*
X81283501Y-88380264D01*
X81283491Y-88380261D01*
X81128149Y-88349361D01*
X81066238Y-88316976D01*
X81064660Y-88315425D01*
X81021026Y-88271791D01*
X82624000Y-88271791D01*
X82625009Y-88273475D01*
X82628008Y-88278770D01*
X82651109Y-88321991D01*
X82653845Y-88327426D01*
X82669586Y-88360708D01*
X82672052Y-88366272D01*
X82751145Y-88557222D01*
X82753335Y-88562899D01*
X82765737Y-88597560D01*
X82767646Y-88603338D01*
X82781872Y-88650233D01*
X82783495Y-88656097D01*
X82792445Y-88691823D01*
X82793779Y-88697765D01*
X82821702Y-88838143D01*
X82837221Y-88838754D01*
X82842086Y-88839041D01*
X82881165Y-88842119D01*
X82886003Y-88842596D01*
X82915236Y-88846056D01*
X82920059Y-88846723D01*
X83168728Y-88886108D01*
X83173523Y-88886964D01*
X83202423Y-88892713D01*
X83207183Y-88893758D01*
X83245300Y-88902911D01*
X83250005Y-88904138D01*
X83278347Y-88912131D01*
X83283007Y-88913545D01*
X83522440Y-88991342D01*
X83527037Y-88992936D01*
X83554647Y-89003121D01*
X83559175Y-89004893D01*
X83595392Y-89019891D01*
X83599861Y-89021846D01*
X83626636Y-89034189D01*
X83631019Y-89036314D01*
X83807037Y-89126000D01*
X84086963Y-89126000D01*
X84126000Y-89106109D01*
X84126000Y-88837500D01*
X85124000Y-88837500D01*
X85342897Y-88837500D01*
X85347769Y-88837596D01*
X85377221Y-88838754D01*
X85382086Y-88839041D01*
X85421165Y-88842119D01*
X85426003Y-88842596D01*
X85455236Y-88846056D01*
X85460059Y-88846723D01*
X85708728Y-88886108D01*
X85713523Y-88886964D01*
X85742423Y-88892713D01*
X85747183Y-88893758D01*
X85785300Y-88902911D01*
X85790005Y-88904138D01*
X85818347Y-88912131D01*
X85823007Y-88913545D01*
X86062440Y-88991342D01*
X86067037Y-88992936D01*
X86094647Y-89003121D01*
X86099175Y-89004893D01*
X86135392Y-89019891D01*
X86139861Y-89021846D01*
X86166636Y-89034189D01*
X86171019Y-89036314D01*
X86347037Y-89126000D01*
X86626000Y-89126000D01*
X87624000Y-89126000D01*
X89126000Y-89126000D01*
X89126000Y-88839664D01*
X90124000Y-88839664D01*
X90131914Y-88839041D01*
X90136779Y-88838754D01*
X90166231Y-88837596D01*
X90171103Y-88837500D01*
X90422897Y-88837500D01*
X90427769Y-88837596D01*
X90457221Y-88838754D01*
X90462086Y-88839041D01*
X90501165Y-88842119D01*
X90506003Y-88842596D01*
X90535236Y-88846056D01*
X90540059Y-88846723D01*
X90788728Y-88886108D01*
X90793523Y-88886964D01*
X90822423Y-88892713D01*
X90827183Y-88893758D01*
X90865300Y-88902911D01*
X90870005Y-88904138D01*
X90898347Y-88912131D01*
X90903007Y-88913545D01*
X91142440Y-88991342D01*
X91147037Y-88992936D01*
X91174647Y-89003121D01*
X91179175Y-89004893D01*
X91215392Y-89019891D01*
X91219861Y-89021846D01*
X91246636Y-89034189D01*
X91251019Y-89036314D01*
X91427037Y-89126000D01*
X91626000Y-89126000D01*
X92624000Y-89126000D01*
X94126000Y-89126000D01*
X94126000Y-88661115D01*
X94118272Y-88659892D01*
X94113477Y-88659036D01*
X94095998Y-88655559D01*
X95124000Y-88655559D01*
X95124000Y-88840416D01*
X95277642Y-88728790D01*
X95281637Y-88726005D01*
X95306131Y-88709639D01*
X95310233Y-88707014D01*
X95343656Y-88686533D01*
X95347856Y-88684071D01*
X95373552Y-88669681D01*
X95377845Y-88667386D01*
X95595173Y-88556651D01*
X95599557Y-88554525D01*
X95626333Y-88542182D01*
X95630800Y-88540228D01*
X95667016Y-88525230D01*
X95671547Y-88523457D01*
X95699156Y-88513273D01*
X95703750Y-88511680D01*
X95935717Y-88436308D01*
X95940380Y-88434894D01*
X95968759Y-88426891D01*
X95973478Y-88425660D01*
X96011597Y-88416512D01*
X96016348Y-88415470D01*
X96045211Y-88409730D01*
X96049999Y-88408875D01*
X96290875Y-88370723D01*
X96295699Y-88370055D01*
X96324933Y-88366595D01*
X96329770Y-88366119D01*
X96368849Y-88363041D01*
X96373714Y-88362754D01*
X96403166Y-88361596D01*
X96408038Y-88361500D01*
X96626000Y-88361500D01*
X96626000Y-87624000D01*
X96593821Y-87624000D01*
X96586760Y-87634568D01*
X96583974Y-87638565D01*
X96435975Y-87842269D01*
X96433032Y-87846157D01*
X96414773Y-87869316D01*
X96411683Y-87873081D01*
X96386222Y-87902888D01*
X96382988Y-87906527D01*
X96363014Y-87928132D01*
X96359644Y-87931636D01*
X96181636Y-88109644D01*
X96178132Y-88113014D01*
X96156527Y-88132988D01*
X96152888Y-88136222D01*
X96123081Y-88161683D01*
X96119316Y-88164773D01*
X96096157Y-88183032D01*
X96092269Y-88185975D01*
X95888565Y-88333974D01*
X95884568Y-88336760D01*
X95860073Y-88353126D01*
X95855973Y-88355750D01*
X95822550Y-88376231D01*
X95818350Y-88378693D01*
X95792654Y-88393083D01*
X95788361Y-88395378D01*
X95564019Y-88509686D01*
X95559636Y-88511811D01*
X95532861Y-88524154D01*
X95528392Y-88526109D01*
X95492175Y-88541107D01*
X95487647Y-88542879D01*
X95460037Y-88553064D01*
X95455440Y-88554658D01*
X95216007Y-88632455D01*
X95211347Y-88633869D01*
X95183005Y-88641862D01*
X95178300Y-88643089D01*
X95140183Y-88652242D01*
X95135423Y-88653287D01*
X95124000Y-88655559D01*
X94095998Y-88655559D01*
X94084577Y-88653287D01*
X94079817Y-88652242D01*
X94041700Y-88643089D01*
X94036995Y-88641862D01*
X94008653Y-88633869D01*
X94003993Y-88632455D01*
X93764560Y-88554658D01*
X93759963Y-88553064D01*
X93732353Y-88542879D01*
X93727825Y-88541107D01*
X93691608Y-88526109D01*
X93687139Y-88524154D01*
X93660364Y-88511811D01*
X93655981Y-88509686D01*
X93431639Y-88395378D01*
X93427346Y-88393083D01*
X93401650Y-88378693D01*
X93397450Y-88376231D01*
X93364027Y-88355750D01*
X93359927Y-88353126D01*
X93335432Y-88336760D01*
X93331435Y-88333974D01*
X93127731Y-88185975D01*
X93123843Y-88183032D01*
X93100684Y-88164773D01*
X93096919Y-88161683D01*
X93067112Y-88136222D01*
X93063473Y-88132988D01*
X93041868Y-88113014D01*
X93038364Y-88109644D01*
X92860356Y-87931636D01*
X92856986Y-87928132D01*
X92837012Y-87906527D01*
X92833778Y-87902888D01*
X92808317Y-87873081D01*
X92805227Y-87869316D01*
X92786968Y-87846157D01*
X92784025Y-87842269D01*
X92636026Y-87638565D01*
X92633240Y-87634568D01*
X92626179Y-87624000D01*
X92624000Y-87624000D01*
X92624000Y-89126000D01*
X91626000Y-89126000D01*
X91626000Y-87624000D01*
X90124000Y-87624000D01*
X90124000Y-88839664D01*
X89126000Y-88839664D01*
X89126000Y-87624000D01*
X87624000Y-87624000D01*
X87624000Y-89126000D01*
X86626000Y-89126000D01*
X86626000Y-87624000D01*
X85124000Y-87624000D01*
X85124000Y-88837500D01*
X84126000Y-88837500D01*
X84126000Y-87624000D01*
X82624000Y-87624000D01*
X82624000Y-88271791D01*
X81021026Y-88271791D01*
X78887590Y-86138355D01*
X78887588Y-86138352D01*
X78771417Y-86022181D01*
X78737932Y-85960858D01*
X78742916Y-85891166D01*
X78784788Y-85835233D01*
X78850252Y-85810816D01*
X78859098Y-85810500D01*
X93197873Y-85810500D01*
X93264912Y-85830185D01*
X93310667Y-85882989D01*
X93320611Y-85952147D01*
X93315804Y-85972818D01*
X93292753Y-86043760D01*
X93259500Y-86253713D01*
X93259500Y-86466286D01*
X93290227Y-86660292D01*
X93292754Y-86676243D01*
X93352262Y-86859390D01*
X93358444Y-86878414D01*
X93454951Y-87067820D01*
X93579890Y-87239786D01*
X93730213Y-87390109D01*
X93902179Y-87515048D01*
X93902181Y-87515049D01*
X93902184Y-87515051D01*
X94091588Y-87611557D01*
X94293757Y-87677246D01*
X94503713Y-87710500D01*
X94503714Y-87710500D01*
X94716286Y-87710500D01*
X94716287Y-87710500D01*
X94926243Y-87677246D01*
X95128412Y-87611557D01*
X95317816Y-87515051D01*
X95339789Y-87499086D01*
X95489786Y-87390109D01*
X95489788Y-87390106D01*
X95489792Y-87390104D01*
X95640104Y-87239792D01*
X95640106Y-87239788D01*
X95640109Y-87239786D01*
X95765048Y-87067820D01*
X95765047Y-87067820D01*
X95765051Y-87067816D01*
X95861557Y-86878412D01*
X95927246Y-86676243D01*
X95960500Y-86466287D01*
X95960500Y-86253713D01*
X95927246Y-86043757D01*
X95890840Y-85931714D01*
X95888846Y-85861877D01*
X95924926Y-85802044D01*
X95976678Y-85773624D01*
X95991785Y-85769577D01*
X96059433Y-85730520D01*
X96128716Y-85690520D01*
X96240520Y-85578716D01*
X96240520Y-85578714D01*
X96250724Y-85568511D01*
X96250728Y-85568506D01*
X96665478Y-85153755D01*
X96726799Y-85120272D01*
X96791473Y-85123506D01*
X96833757Y-85137246D01*
X97043713Y-85170500D01*
X97043714Y-85170500D01*
X97256286Y-85170500D01*
X97256287Y-85170500D01*
X97466243Y-85137246D01*
X97668412Y-85071557D01*
X97857816Y-84975051D01*
X97948186Y-84909394D01*
X98029786Y-84850109D01*
X98029788Y-84850106D01*
X98029792Y-84850104D01*
X98180104Y-84699792D01*
X98180106Y-84699788D01*
X98180109Y-84699786D01*
X98305048Y-84527820D01*
X98305047Y-84527820D01*
X98305051Y-84527816D01*
X98401557Y-84338412D01*
X98447569Y-84196799D01*
X98487007Y-84139125D01*
X98551365Y-84111927D01*
X98620211Y-84123842D01*
G37*
%TD.AperFunction*%
%TA.AperFunction,Conductor*%
G36*
X98632539Y-63880185D02*
G01*
X98678294Y-63932989D01*
X98689500Y-63984500D01*
X98689500Y-68189903D01*
X98669815Y-68256942D01*
X98617011Y-68302697D01*
X98547853Y-68312641D01*
X98484297Y-68283616D01*
X98477819Y-68277584D01*
X98418590Y-68218355D01*
X98418588Y-68218352D01*
X98299717Y-68099481D01*
X98299716Y-68099480D01*
X98212904Y-68049360D01*
X98212904Y-68049359D01*
X98212900Y-68049358D01*
X98162785Y-68020423D01*
X98010057Y-67979499D01*
X97851943Y-67979499D01*
X97844347Y-67979499D01*
X97844331Y-67979500D01*
X93924766Y-67979500D01*
X93857727Y-67959815D01*
X93855875Y-67958602D01*
X93724185Y-67870609D01*
X93724172Y-67870602D01*
X93578501Y-67810264D01*
X93578489Y-67810261D01*
X93423845Y-67779500D01*
X93423842Y-67779500D01*
X93266158Y-67779500D01*
X93266155Y-67779500D01*
X93111510Y-67810261D01*
X93111498Y-67810264D01*
X92965827Y-67870602D01*
X92965814Y-67870609D01*
X92834711Y-67958210D01*
X92834707Y-67958213D01*
X92723213Y-68069707D01*
X92723210Y-68069711D01*
X92635609Y-68200814D01*
X92635602Y-68200827D01*
X92575264Y-68346498D01*
X92575261Y-68346510D01*
X92544500Y-68501153D01*
X92544500Y-68658846D01*
X92575261Y-68813489D01*
X92575264Y-68813501D01*
X92635602Y-68959172D01*
X92635609Y-68959185D01*
X92723210Y-69090288D01*
X92723213Y-69090292D01*
X92834707Y-69201786D01*
X92834711Y-69201789D01*
X92954044Y-69281525D01*
X92998849Y-69335137D01*
X93007556Y-69404462D01*
X92977402Y-69467489D01*
X92963828Y-69480472D01*
X92961712Y-69482208D01*
X92850213Y-69593707D01*
X92850210Y-69593711D01*
X92762609Y-69724814D01*
X92762602Y-69724827D01*
X92702264Y-69870498D01*
X92702261Y-69870510D01*
X92671500Y-70025153D01*
X92671500Y-70182846D01*
X92702261Y-70337489D01*
X92702264Y-70337501D01*
X92762602Y-70483172D01*
X92762609Y-70483185D01*
X92850602Y-70614874D01*
X92871480Y-70681551D01*
X92871500Y-70683765D01*
X92871500Y-71414330D01*
X92871499Y-71414348D01*
X92871499Y-71580054D01*
X92871498Y-71580054D01*
X92912423Y-71732787D01*
X92922073Y-71749499D01*
X92922074Y-71749500D01*
X92971725Y-71835499D01*
X92991479Y-71869714D01*
X92991481Y-71869717D01*
X93110349Y-71988585D01*
X93110355Y-71988590D01*
X95821241Y-74699476D01*
X95854726Y-74760799D01*
X95851492Y-74825473D01*
X95837753Y-74867757D01*
X95804500Y-75077713D01*
X95804500Y-75290286D01*
X95837754Y-75500244D01*
X95837754Y-75500247D01*
X95851491Y-75542523D01*
X95853486Y-75612364D01*
X95821241Y-75668522D01*
X90634085Y-80855678D01*
X90572762Y-80889163D01*
X90522213Y-80889614D01*
X90375846Y-80860500D01*
X90375842Y-80860500D01*
X90218158Y-80860500D01*
X90218155Y-80860500D01*
X90063510Y-80891261D01*
X90063498Y-80891264D01*
X89917827Y-80951602D01*
X89917814Y-80951609D01*
X89786711Y-81039210D01*
X89786707Y-81039213D01*
X89675213Y-81150707D01*
X89675210Y-81150711D01*
X89587609Y-81281814D01*
X89587602Y-81281827D01*
X89527264Y-81427498D01*
X89527261Y-81427510D01*
X89496500Y-81582153D01*
X89496500Y-81739846D01*
X89527261Y-81894489D01*
X89527264Y-81894501D01*
X89587602Y-82040172D01*
X89587609Y-82040185D01*
X89675210Y-82171288D01*
X89675213Y-82171292D01*
X89786707Y-82282786D01*
X89786711Y-82282789D01*
X89917814Y-82370390D01*
X89917827Y-82370397D01*
X90063498Y-82430735D01*
X90063503Y-82430737D01*
X90218153Y-82461499D01*
X90218156Y-82461500D01*
X90218158Y-82461500D01*
X90375844Y-82461500D01*
X90375845Y-82461499D01*
X90530497Y-82430737D01*
X90676179Y-82370394D01*
X90807289Y-82282789D01*
X90831262Y-82258814D01*
X90886848Y-82226722D01*
X90909785Y-82220577D01*
X90983750Y-82177873D01*
X91046716Y-82141520D01*
X91158520Y-82029716D01*
X91158520Y-82029714D01*
X91168724Y-82019511D01*
X91168728Y-82019506D01*
X93100898Y-80087335D01*
X93162219Y-80053852D01*
X93231911Y-80058836D01*
X93287844Y-80100708D01*
X93312261Y-80166172D01*
X93304759Y-80218350D01*
X93265909Y-80322514D01*
X93265908Y-80322516D01*
X93259501Y-80382116D01*
X93259500Y-80382135D01*
X93259500Y-81729902D01*
X93239815Y-81796941D01*
X93223181Y-81817583D01*
X91827584Y-83213181D01*
X91766261Y-83246666D01*
X91739903Y-83249500D01*
X70679766Y-83249500D01*
X70612727Y-83229815D01*
X70610875Y-83228602D01*
X70479185Y-83140609D01*
X70479172Y-83140602D01*
X70333501Y-83080264D01*
X70333489Y-83080261D01*
X70178845Y-83049500D01*
X70178842Y-83049500D01*
X70021158Y-83049500D01*
X70021155Y-83049500D01*
X69866510Y-83080261D01*
X69866498Y-83080264D01*
X69720827Y-83140602D01*
X69720814Y-83140609D01*
X69591070Y-83227302D01*
X69524392Y-83248180D01*
X69474727Y-83238761D01*
X69333501Y-83180264D01*
X69333489Y-83180261D01*
X69178845Y-83149500D01*
X69178842Y-83149500D01*
X69021158Y-83149500D01*
X69021155Y-83149500D01*
X68866510Y-83180261D01*
X68866498Y-83180264D01*
X68720827Y-83240602D01*
X68720814Y-83240609D01*
X68589711Y-83328210D01*
X68489938Y-83427983D01*
X68428615Y-83461467D01*
X68358923Y-83456483D01*
X68333371Y-83443407D01*
X68333058Y-83443198D01*
X68329179Y-83440606D01*
X68329176Y-83440604D01*
X68329175Y-83440604D01*
X68183501Y-83380264D01*
X68183489Y-83380261D01*
X68028845Y-83349500D01*
X68028842Y-83349500D01*
X67871158Y-83349500D01*
X67871155Y-83349500D01*
X67716510Y-83380261D01*
X67716498Y-83380264D01*
X67570827Y-83440602D01*
X67570814Y-83440609D01*
X67443891Y-83525417D01*
X67377213Y-83546295D01*
X67309833Y-83527810D01*
X67306109Y-83525417D01*
X67179185Y-83440609D01*
X67179172Y-83440602D01*
X67033501Y-83380264D01*
X67033489Y-83380261D01*
X66878845Y-83349500D01*
X66878842Y-83349500D01*
X66721158Y-83349500D01*
X66721155Y-83349500D01*
X66566510Y-83380261D01*
X66566498Y-83380264D01*
X66420827Y-83440602D01*
X66420814Y-83440609D01*
X66289711Y-83528210D01*
X66289707Y-83528213D01*
X66287681Y-83530240D01*
X66286357Y-83530962D01*
X66285001Y-83532076D01*
X66284789Y-83531818D01*
X66226358Y-83563725D01*
X66156666Y-83558741D01*
X66115060Y-83532001D01*
X66114999Y-83532076D01*
X66114360Y-83531552D01*
X66112319Y-83530240D01*
X66110292Y-83528213D01*
X66110288Y-83528210D01*
X65979185Y-83440609D01*
X65979172Y-83440602D01*
X65833501Y-83380264D01*
X65833489Y-83380261D01*
X65678845Y-83349500D01*
X65678842Y-83349500D01*
X65521158Y-83349500D01*
X65521155Y-83349500D01*
X65366510Y-83380261D01*
X65366498Y-83380264D01*
X65220827Y-83440602D01*
X65220814Y-83440609D01*
X65084646Y-83531595D01*
X65083621Y-83530062D01*
X65027247Y-83553996D01*
X64958381Y-83542195D01*
X64944018Y-83533930D01*
X64879184Y-83490609D01*
X64879172Y-83490602D01*
X64733501Y-83430264D01*
X64733489Y-83430261D01*
X64578845Y-83399500D01*
X64578842Y-83399500D01*
X64421158Y-83399500D01*
X64421155Y-83399500D01*
X64266510Y-83430261D01*
X64266507Y-83430261D01*
X64171952Y-83469427D01*
X64102482Y-83476895D01*
X64040003Y-83445619D01*
X64004351Y-83385530D01*
X64000500Y-83354865D01*
X64000500Y-81626000D01*
X65124000Y-81626000D01*
X66626000Y-81626000D01*
X66626000Y-80929232D01*
X67624000Y-80929232D01*
X67624000Y-81626000D01*
X69126000Y-81626000D01*
X70124000Y-81626000D01*
X71626000Y-81626000D01*
X72624000Y-81626000D01*
X74126000Y-81626000D01*
X74126000Y-81598500D01*
X74096658Y-81598500D01*
X74090575Y-81598351D01*
X74053803Y-81596545D01*
X74047733Y-81596097D01*
X73998961Y-81591294D01*
X73992920Y-81590549D01*
X73956489Y-81585145D01*
X73950492Y-81584104D01*
X73747765Y-81543779D01*
X73741823Y-81542445D01*
X73706097Y-81533495D01*
X73700233Y-81531872D01*
X73653338Y-81517646D01*
X73647560Y-81515737D01*
X73612899Y-81503335D01*
X73607222Y-81501145D01*
X73416272Y-81422052D01*
X73410708Y-81419586D01*
X73377426Y-81403845D01*
X73371991Y-81401109D01*
X73367110Y-81398500D01*
X72624000Y-81398500D01*
X72624000Y-81626000D01*
X71626000Y-81626000D01*
X71626000Y-81398500D01*
X71610018Y-81398500D01*
X71609986Y-81398501D01*
X71388259Y-81398501D01*
X71380149Y-81398236D01*
X71331143Y-81395024D01*
X71323065Y-81394228D01*
X71258263Y-81385695D01*
X71250257Y-81384373D01*
X71202100Y-81374793D01*
X71194200Y-81372951D01*
X71092280Y-81345641D01*
X75124000Y-81345641D01*
X75124000Y-81626000D01*
X76626000Y-81626000D01*
X77624000Y-81626000D01*
X79126000Y-81626000D01*
X80124000Y-81626000D01*
X81626000Y-81626000D01*
X82624000Y-81626000D01*
X84126000Y-81626000D01*
X85124000Y-81626000D01*
X86626000Y-81626000D01*
X87624000Y-81626000D01*
X88498500Y-81626000D01*
X88498500Y-81557658D01*
X88498649Y-81551575D01*
X88500455Y-81514803D01*
X88500903Y-81508733D01*
X88505706Y-81459961D01*
X88506451Y-81453920D01*
X88511855Y-81417489D01*
X88512896Y-81411492D01*
X88553221Y-81208765D01*
X88554555Y-81202823D01*
X88563505Y-81167097D01*
X88565128Y-81161233D01*
X88579354Y-81114338D01*
X88581263Y-81108560D01*
X88593665Y-81073899D01*
X88595855Y-81068222D01*
X88674948Y-80877272D01*
X88677414Y-80871708D01*
X88693155Y-80838426D01*
X88695891Y-80832991D01*
X88718992Y-80789770D01*
X88721991Y-80784475D01*
X88740926Y-80752882D01*
X88744184Y-80747737D01*
X88859017Y-80575878D01*
X88862522Y-80570902D01*
X88884455Y-80541329D01*
X88888199Y-80536531D01*
X88919288Y-80498649D01*
X88923262Y-80494042D01*
X88947993Y-80466755D01*
X88952191Y-80462346D01*
X89098346Y-80316191D01*
X89102755Y-80311993D01*
X89126000Y-80290925D01*
X89126000Y-80124000D01*
X87624000Y-80124000D01*
X87624000Y-81626000D01*
X86626000Y-81626000D01*
X86626000Y-80124000D01*
X85124000Y-80124000D01*
X85124000Y-81626000D01*
X84126000Y-81626000D01*
X84126000Y-80124000D01*
X82624000Y-80124000D01*
X82624000Y-81626000D01*
X81626000Y-81626000D01*
X81626000Y-80124000D01*
X80124000Y-80124000D01*
X80124000Y-81626000D01*
X79126000Y-81626000D01*
X79126000Y-80124000D01*
X77624000Y-80124000D01*
X77624000Y-81626000D01*
X76626000Y-81626000D01*
X76626000Y-80124000D01*
X75969287Y-80124000D01*
X75943779Y-80252235D01*
X75942445Y-80258177D01*
X75933495Y-80293903D01*
X75931872Y-80299767D01*
X75917646Y-80346662D01*
X75915737Y-80352440D01*
X75903335Y-80387101D01*
X75901145Y-80392778D01*
X75822052Y-80583728D01*
X75819586Y-80589292D01*
X75803845Y-80622574D01*
X75801109Y-80628009D01*
X75778008Y-80671230D01*
X75775009Y-80676525D01*
X75756074Y-80708118D01*
X75752816Y-80713263D01*
X75637983Y-80885122D01*
X75634478Y-80890098D01*
X75612545Y-80919671D01*
X75608801Y-80924469D01*
X75577712Y-80962351D01*
X75573738Y-80966958D01*
X75549007Y-80994245D01*
X75544809Y-80998654D01*
X75398654Y-81144809D01*
X75394245Y-81149007D01*
X75366958Y-81173738D01*
X75362351Y-81177712D01*
X75324469Y-81208801D01*
X75319671Y-81212545D01*
X75290098Y-81234478D01*
X75285122Y-81237983D01*
X75124000Y-81345641D01*
X71092280Y-81345641D01*
X70978347Y-81315112D01*
X70970585Y-81312757D01*
X70924093Y-81296976D01*
X70916498Y-81294118D01*
X70856116Y-81269108D01*
X70848723Y-81265758D01*
X70804679Y-81244038D01*
X70797524Y-81240214D01*
X70603982Y-81128474D01*
X70597090Y-81124188D01*
X70556251Y-81096900D01*
X70549653Y-81092172D01*
X70497799Y-81052381D01*
X70491528Y-81047234D01*
X70454617Y-81014863D01*
X70448696Y-81009317D01*
X70124000Y-80684619D01*
X70124000Y-81626000D01*
X69126000Y-81626000D01*
X69126000Y-80124000D01*
X68862232Y-80124000D01*
X68787983Y-80235122D01*
X68784478Y-80240098D01*
X68762545Y-80269671D01*
X68758801Y-80274469D01*
X68727712Y-80312351D01*
X68723738Y-80316958D01*
X68699007Y-80344245D01*
X68694809Y-80348654D01*
X68548654Y-80494809D01*
X68544245Y-80499007D01*
X68516958Y-80523738D01*
X68512351Y-80527712D01*
X68474469Y-80558801D01*
X68469671Y-80562545D01*
X68440098Y-80584478D01*
X68435122Y-80587983D01*
X68263263Y-80702816D01*
X68258118Y-80706074D01*
X68226525Y-80725009D01*
X68221230Y-80728008D01*
X68178009Y-80751109D01*
X68172574Y-80753845D01*
X68139292Y-80769586D01*
X68133728Y-80772052D01*
X67942778Y-80851145D01*
X67937101Y-80853335D01*
X67902440Y-80865737D01*
X67896662Y-80867646D01*
X67849767Y-80881872D01*
X67843903Y-80883495D01*
X67808177Y-80892445D01*
X67802235Y-80893779D01*
X67624000Y-80929232D01*
X66626000Y-80929232D01*
X66626000Y-80796791D01*
X66566272Y-80772052D01*
X66560708Y-80769586D01*
X66527426Y-80753845D01*
X66521991Y-80751109D01*
X66478770Y-80728008D01*
X66473475Y-80725009D01*
X66441882Y-80706074D01*
X66436737Y-80702816D01*
X66264878Y-80587983D01*
X66259902Y-80584478D01*
X66230329Y-80562545D01*
X66225531Y-80558801D01*
X66187649Y-80527712D01*
X66183042Y-80523738D01*
X66155755Y-80499007D01*
X66151346Y-80494809D01*
X66005191Y-80348654D01*
X66000993Y-80344245D01*
X65976262Y-80316958D01*
X65972288Y-80312351D01*
X65941199Y-80274469D01*
X65937455Y-80269671D01*
X65915522Y-80240098D01*
X65912017Y-80235122D01*
X65837768Y-80124000D01*
X65124000Y-80124000D01*
X65124000Y-81626000D01*
X64000500Y-81626000D01*
X64000500Y-74203439D01*
X64020185Y-74136400D01*
X64072989Y-74090645D01*
X64142147Y-74080701D01*
X64205703Y-74109726D01*
X64227602Y-74134548D01*
X64278602Y-74210874D01*
X64299480Y-74277551D01*
X64299500Y-74279765D01*
X64299500Y-76613330D01*
X64299499Y-76613348D01*
X64299499Y-76779054D01*
X64299498Y-76779054D01*
X64340423Y-76931785D01*
X64369358Y-76981900D01*
X64369359Y-76981904D01*
X64369360Y-76981904D01*
X64419479Y-77068714D01*
X64419481Y-77068717D01*
X64538349Y-77187585D01*
X64538355Y-77187590D01*
X66515425Y-79164660D01*
X66548910Y-79225983D01*
X66549361Y-79228149D01*
X66580261Y-79383491D01*
X66580264Y-79383501D01*
X66640602Y-79529172D01*
X66640609Y-79529185D01*
X66728210Y-79660288D01*
X66728213Y-79660292D01*
X66839707Y-79771786D01*
X66839711Y-79771789D01*
X66970814Y-79859390D01*
X66970827Y-79859397D01*
X67042335Y-79889016D01*
X67116503Y-79919737D01*
X67249827Y-79946257D01*
X67271153Y-79950499D01*
X67271156Y-79950500D01*
X67271158Y-79950500D01*
X67428844Y-79950500D01*
X67428845Y-79950499D01*
X67583497Y-79919737D01*
X67729179Y-79859394D01*
X67860289Y-79771789D01*
X67971789Y-79660289D01*
X68059394Y-79529179D01*
X68119737Y-79383497D01*
X68150500Y-79228842D01*
X68150500Y-79071158D01*
X68150500Y-79071155D01*
X68150499Y-79071153D01*
X68138476Y-79010708D01*
X68119737Y-78916503D01*
X68096452Y-78860288D01*
X68059397Y-78770827D01*
X68059390Y-78770814D01*
X67971789Y-78639711D01*
X67971786Y-78639707D01*
X67860292Y-78528213D01*
X67860288Y-78528210D01*
X67729185Y-78440609D01*
X67729172Y-78440602D01*
X67583501Y-78380264D01*
X67583491Y-78380261D01*
X67428149Y-78349361D01*
X67366238Y-78316976D01*
X67364660Y-78315425D01*
X67320388Y-78271153D01*
X69249500Y-78271153D01*
X69249500Y-78428846D01*
X69280261Y-78583489D01*
X69280264Y-78583501D01*
X69340602Y-78729172D01*
X69340609Y-78729185D01*
X69428210Y-78860288D01*
X69428213Y-78860292D01*
X69539707Y-78971786D01*
X69539711Y-78971789D01*
X69670814Y-79059390D01*
X69670827Y-79059397D01*
X69797964Y-79112058D01*
X69816503Y-79119737D01*
X69881147Y-79132595D01*
X69971849Y-79150638D01*
X70033760Y-79183023D01*
X70035337Y-79184572D01*
X71131284Y-80280520D01*
X71131286Y-80280521D01*
X71131290Y-80280524D01*
X71255854Y-80352440D01*
X71268216Y-80359577D01*
X71420943Y-80400501D01*
X71420945Y-80400501D01*
X71586654Y-80400501D01*
X71586670Y-80400500D01*
X73620234Y-80400500D01*
X73687273Y-80420185D01*
X73689125Y-80421398D01*
X73820814Y-80509390D01*
X73820827Y-80509397D01*
X73897919Y-80541329D01*
X73966503Y-80569737D01*
X74121153Y-80600499D01*
X74121156Y-80600500D01*
X74121158Y-80600500D01*
X74278844Y-80600500D01*
X74278845Y-80600499D01*
X74433497Y-80569737D01*
X74579179Y-80509394D01*
X74710289Y-80421789D01*
X74821789Y-80310289D01*
X74909394Y-80179179D01*
X74969737Y-80033497D01*
X75000500Y-79878842D01*
X75000500Y-79721158D01*
X75000500Y-79721155D01*
X75000499Y-79721153D01*
X74969738Y-79566510D01*
X74969737Y-79566503D01*
X74969735Y-79566498D01*
X74909397Y-79420827D01*
X74909390Y-79420814D01*
X74821789Y-79289711D01*
X74821786Y-79289707D01*
X74710292Y-79178213D01*
X74710288Y-79178210D01*
X74579185Y-79090609D01*
X74579172Y-79090602D01*
X74433501Y-79030264D01*
X74433489Y-79030261D01*
X74278845Y-78999500D01*
X74278842Y-78999500D01*
X74121158Y-78999500D01*
X74121155Y-78999500D01*
X73966510Y-79030261D01*
X73966498Y-79030264D01*
X73820827Y-79090602D01*
X73820814Y-79090609D01*
X73689125Y-79178602D01*
X73622447Y-79199480D01*
X73620234Y-79199500D01*
X71800098Y-79199500D01*
X71733059Y-79179815D01*
X71712417Y-79163181D01*
X70884573Y-78335337D01*
X70851088Y-78274014D01*
X70850637Y-78271847D01*
X70847158Y-78254358D01*
X75124000Y-78254358D01*
X75285122Y-78362017D01*
X75290098Y-78365522D01*
X75319671Y-78387455D01*
X75324469Y-78391199D01*
X75362351Y-78422288D01*
X75366958Y-78426262D01*
X75394245Y-78450993D01*
X75398654Y-78455191D01*
X75544809Y-78601346D01*
X75549007Y-78605755D01*
X75573738Y-78633042D01*
X75577712Y-78637649D01*
X75608801Y-78675531D01*
X75612545Y-78680329D01*
X75634478Y-78709902D01*
X75637983Y-78714878D01*
X75752816Y-78886737D01*
X75756074Y-78891882D01*
X75775009Y-78923475D01*
X75778008Y-78928770D01*
X75801109Y-78971991D01*
X75803845Y-78977426D01*
X75819586Y-79010708D01*
X75822052Y-79016272D01*
X75867502Y-79126000D01*
X76626000Y-79126000D01*
X77624000Y-79126000D01*
X79126000Y-79126000D01*
X80124000Y-79126000D01*
X81626000Y-79126000D01*
X82624000Y-79126000D01*
X84126000Y-79126000D01*
X85124000Y-79126000D01*
X86626000Y-79126000D01*
X87624000Y-79126000D01*
X89126000Y-79126000D01*
X90124000Y-79126000D01*
X90952379Y-79126000D01*
X91626000Y-78452378D01*
X91626000Y-77624000D01*
X90124000Y-77624000D01*
X90124000Y-79126000D01*
X89126000Y-79126000D01*
X89126000Y-77624000D01*
X87624000Y-77624000D01*
X87624000Y-79126000D01*
X86626000Y-79126000D01*
X86626000Y-77624000D01*
X85124000Y-77624000D01*
X85124000Y-79126000D01*
X84126000Y-79126000D01*
X84126000Y-77624000D01*
X82624000Y-77624000D01*
X82624000Y-79126000D01*
X81626000Y-79126000D01*
X81626000Y-77624000D01*
X80124000Y-77624000D01*
X80124000Y-79126000D01*
X79126000Y-79126000D01*
X79126000Y-77624000D01*
X77624000Y-77624000D01*
X77624000Y-79126000D01*
X76626000Y-79126000D01*
X76626000Y-77624000D01*
X75124000Y-77624000D01*
X75124000Y-78254358D01*
X70847158Y-78254358D01*
X70836644Y-78201500D01*
X72624000Y-78201500D01*
X73367110Y-78201500D01*
X73371991Y-78198891D01*
X73377426Y-78196155D01*
X73410708Y-78180414D01*
X73416272Y-78177948D01*
X73607222Y-78098855D01*
X73612899Y-78096665D01*
X73647560Y-78084263D01*
X73653338Y-78082354D01*
X73700233Y-78068128D01*
X73706097Y-78066505D01*
X73741823Y-78057555D01*
X73747765Y-78056221D01*
X73950492Y-78015896D01*
X73956489Y-78014855D01*
X73992920Y-78009451D01*
X73998961Y-78008706D01*
X74047733Y-78003903D01*
X74053803Y-78003455D01*
X74090575Y-78001649D01*
X74096658Y-78001500D01*
X74126000Y-78001500D01*
X74126000Y-77624000D01*
X72624000Y-77624000D01*
X72624000Y-78201500D01*
X70836644Y-78201500D01*
X70827353Y-78154791D01*
X70819737Y-78116503D01*
X70799700Y-78068128D01*
X70759397Y-77970827D01*
X70759390Y-77970814D01*
X70671789Y-77839711D01*
X70671786Y-77839707D01*
X70560292Y-77728213D01*
X70560288Y-77728210D01*
X70429185Y-77640609D01*
X70429172Y-77640602D01*
X70283501Y-77580264D01*
X70283489Y-77580261D01*
X70128845Y-77549500D01*
X70128842Y-77549500D01*
X69971158Y-77549500D01*
X69971155Y-77549500D01*
X69816510Y-77580261D01*
X69816498Y-77580264D01*
X69670827Y-77640602D01*
X69670814Y-77640609D01*
X69539711Y-77728210D01*
X69539707Y-77728213D01*
X69428213Y-77839707D01*
X69428210Y-77839711D01*
X69340609Y-77970814D01*
X69340602Y-77970827D01*
X69280264Y-78116498D01*
X69280261Y-78116510D01*
X69249500Y-78271153D01*
X67320388Y-78271153D01*
X65675235Y-76626000D01*
X67624000Y-76626000D01*
X69126000Y-76626000D01*
X69126000Y-76551500D01*
X70124000Y-76551500D01*
X70153342Y-76551500D01*
X70159425Y-76551649D01*
X70196197Y-76553455D01*
X70202267Y-76553903D01*
X70251039Y-76558706D01*
X70257080Y-76559451D01*
X70293511Y-76564855D01*
X70299508Y-76565896D01*
X70502235Y-76606221D01*
X70508177Y-76607555D01*
X70543903Y-76616505D01*
X70549767Y-76618128D01*
X70575716Y-76626000D01*
X71626000Y-76626000D01*
X72624000Y-76626000D01*
X74126000Y-76626000D01*
X75124000Y-76626000D01*
X76626000Y-76626000D01*
X77624000Y-76626000D01*
X79126000Y-76626000D01*
X80124000Y-76626000D01*
X81626000Y-76626000D01*
X82624000Y-76626000D01*
X84126000Y-76626000D01*
X85124000Y-76626000D01*
X86626000Y-76626000D01*
X87624000Y-76626000D01*
X89126000Y-76626000D01*
X90124000Y-76626000D01*
X91626000Y-76626000D01*
X92624000Y-76626000D01*
X93452378Y-76626000D01*
X94126000Y-75952378D01*
X94126000Y-75124000D01*
X92624000Y-75124000D01*
X92624000Y-76626000D01*
X91626000Y-76626000D01*
X91626000Y-75124000D01*
X90124000Y-75124000D01*
X90124000Y-76626000D01*
X89126000Y-76626000D01*
X89126000Y-75124000D01*
X87624000Y-75124000D01*
X87624000Y-76626000D01*
X86626000Y-76626000D01*
X86626000Y-75124000D01*
X85124000Y-75124000D01*
X85124000Y-76626000D01*
X84126000Y-76626000D01*
X84126000Y-75124000D01*
X82624000Y-75124000D01*
X82624000Y-76626000D01*
X81626000Y-76626000D01*
X81626000Y-75124000D01*
X80124000Y-75124000D01*
X80124000Y-76626000D01*
X79126000Y-76626000D01*
X79126000Y-75124000D01*
X77624000Y-75124000D01*
X77624000Y-76626000D01*
X76626000Y-76626000D01*
X76626000Y-75124000D01*
X75124000Y-75124000D01*
X75124000Y-76626000D01*
X74126000Y-76626000D01*
X74126000Y-75124000D01*
X72624000Y-75124000D01*
X72624000Y-76626000D01*
X71626000Y-76626000D01*
X71626000Y-75124000D01*
X70124000Y-75124000D01*
X70124000Y-76551500D01*
X69126000Y-76551500D01*
X69126000Y-75124000D01*
X67624000Y-75124000D01*
X67624000Y-76626000D01*
X65675235Y-76626000D01*
X65536819Y-76487584D01*
X65503334Y-76426261D01*
X65500500Y-76399903D01*
X65500500Y-76037881D01*
X66498500Y-76037881D01*
X66626000Y-76165381D01*
X66626000Y-75124000D01*
X66498500Y-75124000D01*
X66498500Y-76037881D01*
X65500500Y-76037881D01*
X65500500Y-74279765D01*
X65520185Y-74212726D01*
X65521398Y-74210874D01*
X65578109Y-74126000D01*
X67624000Y-74126000D01*
X69126000Y-74126000D01*
X70124000Y-74126000D01*
X71626000Y-74126000D01*
X72624000Y-74126000D01*
X74126000Y-74126000D01*
X75124000Y-74126000D01*
X76626000Y-74126000D01*
X77624000Y-74126000D01*
X79126000Y-74126000D01*
X80124000Y-74126000D01*
X81626000Y-74126000D01*
X82624000Y-74126000D01*
X84126000Y-74126000D01*
X85124000Y-74126000D01*
X86626000Y-74126000D01*
X87624000Y-74126000D01*
X89126000Y-74126000D01*
X90124000Y-74126000D01*
X91626000Y-74126000D01*
X92624000Y-74126000D01*
X93836381Y-74126000D01*
X92624000Y-72913619D01*
X92624000Y-74126000D01*
X91626000Y-74126000D01*
X91626000Y-72624000D01*
X90124000Y-72624000D01*
X90124000Y-74126000D01*
X89126000Y-74126000D01*
X89126000Y-72624000D01*
X87624000Y-72624000D01*
X87624000Y-74126000D01*
X86626000Y-74126000D01*
X86626000Y-72624000D01*
X85124000Y-72624000D01*
X85124000Y-74126000D01*
X84126000Y-74126000D01*
X84126000Y-72624000D01*
X82624000Y-72624000D01*
X82624000Y-74126000D01*
X81626000Y-74126000D01*
X81626000Y-72624000D01*
X80124000Y-72624000D01*
X80124000Y-74126000D01*
X79126000Y-74126000D01*
X79126000Y-72624000D01*
X77624000Y-72624000D01*
X77624000Y-74126000D01*
X76626000Y-74126000D01*
X76626000Y-72624000D01*
X75124000Y-72624000D01*
X75124000Y-74126000D01*
X74126000Y-74126000D01*
X74126000Y-72624000D01*
X72624000Y-72624000D01*
X72624000Y-74126000D01*
X71626000Y-74126000D01*
X71626000Y-72624000D01*
X70124000Y-72624000D01*
X70124000Y-74126000D01*
X69126000Y-74126000D01*
X69126000Y-72624000D01*
X67624000Y-72624000D01*
X67624000Y-74126000D01*
X65578109Y-74126000D01*
X65609390Y-74079185D01*
X65609390Y-74079184D01*
X65609394Y-74079179D01*
X65669737Y-73933497D01*
X65700500Y-73778842D01*
X65700500Y-73621158D01*
X65700500Y-73621155D01*
X65700499Y-73621153D01*
X65669738Y-73466510D01*
X65669737Y-73466503D01*
X65669735Y-73466498D01*
X65609397Y-73320827D01*
X65609390Y-73320814D01*
X65521789Y-73189711D01*
X65521786Y-73189707D01*
X65410292Y-73078213D01*
X65410288Y-73078210D01*
X65279185Y-72990609D01*
X65279172Y-72990602D01*
X65133501Y-72930264D01*
X65133489Y-72930261D01*
X64978845Y-72899500D01*
X64978842Y-72899500D01*
X64821158Y-72899500D01*
X64821155Y-72899500D01*
X64666510Y-72930261D01*
X64666498Y-72930264D01*
X64520827Y-72990602D01*
X64520814Y-72990609D01*
X64389711Y-73078210D01*
X64389707Y-73078213D01*
X64278213Y-73189707D01*
X64278210Y-73189711D01*
X64227602Y-73265451D01*
X64173989Y-73310256D01*
X64104664Y-73318963D01*
X64041637Y-73288808D01*
X64004918Y-73229365D01*
X64000500Y-73196560D01*
X64000500Y-72624000D01*
X66344078Y-72624000D01*
X66452816Y-72786737D01*
X66456074Y-72791882D01*
X66475009Y-72823475D01*
X66478008Y-72828770D01*
X66501109Y-72871991D01*
X66503845Y-72877426D01*
X66519586Y-72910708D01*
X66522052Y-72916272D01*
X66601145Y-73107222D01*
X66603335Y-73112899D01*
X66615737Y-73147560D01*
X66617646Y-73153338D01*
X66626000Y-73180876D01*
X66626000Y-72624000D01*
X66344078Y-72624000D01*
X64000500Y-72624000D01*
X64000500Y-70979765D01*
X64016371Y-70925716D01*
X65124000Y-70925716D01*
X65124000Y-71626000D01*
X66626000Y-71626000D01*
X67624000Y-71626000D01*
X69126000Y-71626000D01*
X70124000Y-71626000D01*
X71626000Y-71626000D01*
X72624000Y-71626000D01*
X74126000Y-71626000D01*
X75124000Y-71626000D01*
X76626000Y-71626000D01*
X77624000Y-71626000D01*
X79126000Y-71626000D01*
X80124000Y-71626000D01*
X81626000Y-71626000D01*
X82624000Y-71626000D01*
X84126000Y-71626000D01*
X85124000Y-71626000D01*
X86626000Y-71626000D01*
X87624000Y-71626000D01*
X89126000Y-71626000D01*
X90124000Y-71626000D01*
X91626000Y-71626000D01*
X91626000Y-70124000D01*
X90124000Y-70124000D01*
X90124000Y-71626000D01*
X89126000Y-71626000D01*
X89126000Y-70124000D01*
X87624000Y-70124000D01*
X87624000Y-71626000D01*
X86626000Y-71626000D01*
X86626000Y-70124000D01*
X85124000Y-70124000D01*
X85124000Y-71626000D01*
X84126000Y-71626000D01*
X84126000Y-70124000D01*
X82624000Y-70124000D01*
X82624000Y-71626000D01*
X81626000Y-71626000D01*
X81626000Y-70124000D01*
X80124000Y-70124000D01*
X80124000Y-71626000D01*
X79126000Y-71626000D01*
X79126000Y-70124000D01*
X77624000Y-70124000D01*
X77624000Y-71626000D01*
X76626000Y-71626000D01*
X76626000Y-70124000D01*
X75124000Y-70124000D01*
X75124000Y-71626000D01*
X74126000Y-71626000D01*
X74126000Y-70124000D01*
X72624000Y-70124000D01*
X72624000Y-71626000D01*
X71626000Y-71626000D01*
X71626000Y-70124000D01*
X70124000Y-70124000D01*
X70124000Y-71626000D01*
X69126000Y-71626000D01*
X69126000Y-70124000D01*
X67624000Y-70124000D01*
X67624000Y-71626000D01*
X66626000Y-71626000D01*
X66626000Y-70124000D01*
X65178834Y-70124000D01*
X65184104Y-70150492D01*
X65185145Y-70156489D01*
X65190549Y-70192920D01*
X65191294Y-70198961D01*
X65196097Y-70247733D01*
X65196545Y-70253803D01*
X65198351Y-70290575D01*
X65198500Y-70296658D01*
X65198500Y-70503342D01*
X65198351Y-70509425D01*
X65196545Y-70546197D01*
X65196097Y-70552267D01*
X65191294Y-70601039D01*
X65190549Y-70607080D01*
X65185145Y-70643511D01*
X65184104Y-70649508D01*
X65143779Y-70852235D01*
X65142445Y-70858177D01*
X65133495Y-70893903D01*
X65131872Y-70899767D01*
X65124000Y-70925716D01*
X64016371Y-70925716D01*
X64020185Y-70912726D01*
X64021398Y-70910874D01*
X64028820Y-70899767D01*
X64109394Y-70779179D01*
X64169737Y-70633497D01*
X64200500Y-70478842D01*
X64200500Y-70321158D01*
X64200500Y-70321155D01*
X64200499Y-70321153D01*
X64176193Y-70198961D01*
X64169737Y-70166503D01*
X64152132Y-70124000D01*
X64109397Y-70020827D01*
X64109390Y-70020814D01*
X64021789Y-69889711D01*
X64021786Y-69889707D01*
X63910292Y-69778213D01*
X63910288Y-69778210D01*
X63779185Y-69690609D01*
X63779172Y-69690602D01*
X63633501Y-69630264D01*
X63633489Y-69630261D01*
X63478845Y-69599500D01*
X63478842Y-69599500D01*
X63321158Y-69599500D01*
X63321155Y-69599500D01*
X63166510Y-69630261D01*
X63166498Y-69630264D01*
X63047452Y-69679574D01*
X62977982Y-69687043D01*
X62952548Y-69679574D01*
X62833501Y-69630264D01*
X62833489Y-69630261D01*
X62678845Y-69599500D01*
X62678842Y-69599500D01*
X62521158Y-69599500D01*
X62521155Y-69599500D01*
X62366510Y-69630261D01*
X62366498Y-69630264D01*
X62222452Y-69689930D01*
X62152983Y-69697399D01*
X62127548Y-69689930D01*
X61983501Y-69630264D01*
X61983489Y-69630261D01*
X61828845Y-69599500D01*
X61828842Y-69599500D01*
X61671158Y-69599500D01*
X61671155Y-69599500D01*
X61516510Y-69630261D01*
X61516498Y-69630264D01*
X61370827Y-69690602D01*
X61370814Y-69690609D01*
X61239711Y-69778210D01*
X61239707Y-69778213D01*
X61128213Y-69889707D01*
X61128210Y-69889711D01*
X61040609Y-70020814D01*
X61040602Y-70020827D01*
X60980264Y-70166498D01*
X60980261Y-70166510D01*
X60949500Y-70321153D01*
X60949500Y-70478846D01*
X60980261Y-70633489D01*
X60980264Y-70633501D01*
X61040602Y-70779172D01*
X61040609Y-70779185D01*
X61128602Y-70910874D01*
X61149480Y-70977551D01*
X61149500Y-70979765D01*
X61149500Y-71554865D01*
X61129815Y-71621904D01*
X61077011Y-71667659D01*
X61007853Y-71677603D01*
X60978048Y-71669427D01*
X60973780Y-71667659D01*
X60883497Y-71630263D01*
X60883494Y-71630262D01*
X60883491Y-71630261D01*
X60728845Y-71599500D01*
X60728842Y-71599500D01*
X60571158Y-71599500D01*
X60571155Y-71599500D01*
X60416510Y-71630261D01*
X60416498Y-71630264D01*
X60270827Y-71690602D01*
X60270814Y-71690609D01*
X60139711Y-71778210D01*
X60139707Y-71778213D01*
X60028213Y-71889707D01*
X60028210Y-71889711D01*
X59940609Y-72020814D01*
X59940604Y-72020823D01*
X59914561Y-72083699D01*
X59870720Y-72138102D01*
X59804426Y-72160167D01*
X59736727Y-72142888D01*
X59689116Y-72091751D01*
X59685439Y-72083699D01*
X59659395Y-72020823D01*
X59659390Y-72020814D01*
X59571789Y-71889711D01*
X59571786Y-71889707D01*
X59460292Y-71778213D01*
X59460288Y-71778210D01*
X59329185Y-71690609D01*
X59329172Y-71690602D01*
X59183501Y-71630264D01*
X59183489Y-71630261D01*
X59028845Y-71599500D01*
X59028842Y-71599500D01*
X58871158Y-71599500D01*
X58871155Y-71599500D01*
X58716510Y-71630261D01*
X58716498Y-71630264D01*
X58570827Y-71690602D01*
X58570814Y-71690609D01*
X58439711Y-71778210D01*
X58439707Y-71778213D01*
X58328213Y-71889707D01*
X58328210Y-71889711D01*
X58240609Y-72020814D01*
X58240602Y-72020827D01*
X58180264Y-72166498D01*
X58180261Y-72166510D01*
X58149500Y-72321153D01*
X58149500Y-72478846D01*
X58180261Y-72633489D01*
X58180264Y-72633501D01*
X58240602Y-72779172D01*
X58240609Y-72779185D01*
X58328210Y-72910288D01*
X58328213Y-72910292D01*
X58439707Y-73021786D01*
X58439711Y-73021789D01*
X58570814Y-73109390D01*
X58570827Y-73109397D01*
X58676912Y-73153338D01*
X58716503Y-73169737D01*
X58772502Y-73180876D01*
X58871849Y-73200638D01*
X58933760Y-73233023D01*
X58935339Y-73234574D01*
X59263181Y-73562416D01*
X59296666Y-73623739D01*
X59299500Y-73650097D01*
X59299500Y-84670234D01*
X59279815Y-84737273D01*
X59278602Y-84739125D01*
X59190609Y-84870814D01*
X59190602Y-84870827D01*
X59130264Y-85016498D01*
X59130261Y-85016510D01*
X59099500Y-85171153D01*
X59099500Y-85328846D01*
X59130261Y-85483489D01*
X59130264Y-85483501D01*
X59190602Y-85629172D01*
X59190609Y-85629185D01*
X59278210Y-85760288D01*
X59278213Y-85760292D01*
X59389707Y-85871786D01*
X59389711Y-85871789D01*
X59520814Y-85959390D01*
X59520827Y-85959397D01*
X59666498Y-86019735D01*
X59666503Y-86019737D01*
X59749693Y-86036284D01*
X59811602Y-86068668D01*
X59846176Y-86129384D01*
X59849500Y-86157901D01*
X59849500Y-86228846D01*
X59880261Y-86383489D01*
X59880264Y-86383501D01*
X59940602Y-86529172D01*
X59940609Y-86529185D01*
X60028210Y-86660288D01*
X60028213Y-86660292D01*
X60139707Y-86771786D01*
X60139711Y-86771789D01*
X60270814Y-86859390D01*
X60270827Y-86859397D01*
X60416498Y-86919735D01*
X60416503Y-86919737D01*
X60571153Y-86950499D01*
X60571156Y-86950500D01*
X60571158Y-86950500D01*
X60728844Y-86950500D01*
X60814060Y-86933549D01*
X60883652Y-86939776D01*
X60938829Y-86982639D01*
X60959869Y-87030974D01*
X60980261Y-87133491D01*
X60980264Y-87133501D01*
X61040602Y-87279172D01*
X61040609Y-87279185D01*
X61128210Y-87410288D01*
X61128213Y-87410292D01*
X61239707Y-87521786D01*
X61239711Y-87521789D01*
X61370814Y-87609390D01*
X61370827Y-87609397D01*
X61516498Y-87669735D01*
X61516503Y-87669737D01*
X61671153Y-87700499D01*
X61671156Y-87700500D01*
X61671158Y-87700500D01*
X61733741Y-87700500D01*
X61800780Y-87720185D01*
X61846535Y-87772989D01*
X61848302Y-87777048D01*
X61890602Y-87879172D01*
X61890609Y-87879185D01*
X61978210Y-88010288D01*
X61978213Y-88010292D01*
X62089707Y-88121786D01*
X62089711Y-88121789D01*
X62220814Y-88209390D01*
X62220827Y-88209397D01*
X62366498Y-88269735D01*
X62366503Y-88269737D01*
X62521153Y-88300499D01*
X62521156Y-88300500D01*
X62675500Y-88300500D01*
X62742539Y-88320185D01*
X62788294Y-88372989D01*
X62799500Y-88424500D01*
X62799500Y-89461902D01*
X62779815Y-89528941D01*
X62763181Y-89549583D01*
X62460522Y-89852241D01*
X62399199Y-89885726D01*
X62334523Y-89882491D01*
X62292245Y-89868754D01*
X62140209Y-89844674D01*
X62082287Y-89835500D01*
X61869713Y-89835500D01*
X61821042Y-89843208D01*
X61659760Y-89868753D01*
X61457585Y-89934444D01*
X61268179Y-90030951D01*
X61096213Y-90155890D01*
X60945890Y-90306213D01*
X60820949Y-90478182D01*
X60816484Y-90486946D01*
X60768509Y-90537742D01*
X60700688Y-90554536D01*
X60634553Y-90531998D01*
X60595516Y-90486946D01*
X60591050Y-90478182D01*
X60466109Y-90306213D01*
X60315786Y-90155890D01*
X60143820Y-90030951D01*
X59954414Y-89934444D01*
X59954413Y-89934443D01*
X59954412Y-89934443D01*
X59752243Y-89868754D01*
X59752241Y-89868753D01*
X59752240Y-89868753D01*
X59590957Y-89843208D01*
X59542287Y-89835500D01*
X59329713Y-89835500D01*
X59281042Y-89843208D01*
X59119760Y-89868753D01*
X58917585Y-89934444D01*
X58728179Y-90030951D01*
X58556213Y-90155890D01*
X58405890Y-90306213D01*
X58280951Y-90478179D01*
X58184444Y-90667585D01*
X58118753Y-90869760D01*
X58085500Y-91079713D01*
X58085500Y-91292286D01*
X58116948Y-91490844D01*
X58118754Y-91502243D01*
X58167402Y-91651966D01*
X58184444Y-91704414D01*
X58280951Y-91893820D01*
X58405890Y-92065786D01*
X58556213Y-92216109D01*
X58728179Y-92341048D01*
X58728181Y-92341049D01*
X58728184Y-92341051D01*
X58917588Y-92437557D01*
X59073653Y-92488265D01*
X59131328Y-92527702D01*
X59158526Y-92592061D01*
X59146611Y-92660907D01*
X59099367Y-92712383D01*
X59034961Y-92730195D01*
X49294127Y-92700884D01*
X49227147Y-92680998D01*
X49181551Y-92628057D01*
X49170500Y-92576885D01*
X49170500Y-90557648D01*
X49999500Y-90557648D01*
X49999500Y-90762351D01*
X50031522Y-90964534D01*
X50094781Y-91159223D01*
X50158691Y-91284653D01*
X50172573Y-91311897D01*
X50187715Y-91341613D01*
X50308028Y-91507213D01*
X50452786Y-91651971D01*
X50607749Y-91764556D01*
X50618390Y-91772287D01*
X50707053Y-91817463D01*
X50800776Y-91865218D01*
X50800778Y-91865218D01*
X50800781Y-91865220D01*
X50888803Y-91893820D01*
X50995465Y-91928477D01*
X51096557Y-91944488D01*
X51197648Y-91960500D01*
X51197649Y-91960500D01*
X51402351Y-91960500D01*
X51402352Y-91960500D01*
X51604534Y-91928477D01*
X51799219Y-91865220D01*
X51981610Y-91772287D01*
X52075033Y-91704412D01*
X52147213Y-91651971D01*
X52147215Y-91651968D01*
X52147219Y-91651966D01*
X52173185Y-91626000D01*
X53387465Y-91626000D01*
X54126000Y-91626000D01*
X55124000Y-91626000D01*
X56626000Y-91626000D01*
X56626000Y-90124000D01*
X55124000Y-90124000D01*
X55124000Y-91626000D01*
X54126000Y-91626000D01*
X54126000Y-90124000D01*
X53539265Y-90124000D01*
X53543488Y-90141597D01*
X53544530Y-90146348D01*
X53550270Y-90175211D01*
X53551125Y-90179999D01*
X53589277Y-90420875D01*
X53589945Y-90425699D01*
X53593405Y-90454933D01*
X53593881Y-90459770D01*
X53596959Y-90498849D01*
X53597246Y-90503714D01*
X53598404Y-90533166D01*
X53598500Y-90538038D01*
X53598500Y-90781962D01*
X53598404Y-90786834D01*
X53597246Y-90816286D01*
X53596959Y-90821151D01*
X53593881Y-90860230D01*
X53593405Y-90865067D01*
X53589945Y-90894301D01*
X53589277Y-90899125D01*
X53551125Y-91140001D01*
X53550270Y-91144789D01*
X53544530Y-91173652D01*
X53543488Y-91178403D01*
X53534340Y-91216522D01*
X53533109Y-91221241D01*
X53525106Y-91249620D01*
X53523692Y-91254283D01*
X53448320Y-91486250D01*
X53446727Y-91490844D01*
X53436543Y-91518453D01*
X53434770Y-91522984D01*
X53419772Y-91559200D01*
X53417818Y-91563667D01*
X53405475Y-91590443D01*
X53403349Y-91594827D01*
X53387465Y-91626000D01*
X52173185Y-91626000D01*
X52291966Y-91507219D01*
X52291968Y-91507215D01*
X52291971Y-91507213D01*
X52405402Y-91351086D01*
X52412287Y-91341610D01*
X52505220Y-91159219D01*
X52568477Y-90964534D01*
X52600500Y-90762352D01*
X52600500Y-90557648D01*
X52568477Y-90355466D01*
X52505220Y-90160781D01*
X52505218Y-90160778D01*
X52505218Y-90160776D01*
X52469856Y-90091376D01*
X52412287Y-89978390D01*
X52403104Y-89965751D01*
X52291971Y-89812786D01*
X52147213Y-89668028D01*
X51981613Y-89547715D01*
X51981612Y-89547714D01*
X51981610Y-89547713D01*
X51914002Y-89513265D01*
X51799223Y-89454781D01*
X51604534Y-89391522D01*
X51429995Y-89363878D01*
X51402352Y-89359500D01*
X51197648Y-89359500D01*
X51173329Y-89363351D01*
X50995465Y-89391522D01*
X50800776Y-89454781D01*
X50618386Y-89547715D01*
X50452786Y-89668028D01*
X50308028Y-89812786D01*
X50187715Y-89978386D01*
X50094781Y-90160776D01*
X50031522Y-90355465D01*
X49999500Y-90557648D01*
X49170500Y-90557648D01*
X49170500Y-88780840D01*
X52624000Y-88780840D01*
X52749696Y-88872163D01*
X52753584Y-88875106D01*
X52776743Y-88893365D01*
X52780508Y-88896455D01*
X52810315Y-88921916D01*
X52813954Y-88925150D01*
X52835559Y-88945124D01*
X52839063Y-88948494D01*
X53011506Y-89120937D01*
X53014876Y-89124441D01*
X53016317Y-89126000D01*
X54126000Y-89126000D01*
X55124000Y-89126000D01*
X56626000Y-89126000D01*
X57624000Y-89126000D01*
X58305963Y-89126000D01*
X58481981Y-89036314D01*
X58486364Y-89034189D01*
X58513139Y-89021846D01*
X58517608Y-89019891D01*
X58553825Y-89004893D01*
X58558353Y-89003121D01*
X58585963Y-88992936D01*
X58590560Y-88991342D01*
X58748001Y-88940186D01*
X60124000Y-88940186D01*
X60281440Y-88991342D01*
X60286037Y-88992936D01*
X60313647Y-89003121D01*
X60318175Y-89004893D01*
X60354392Y-89019891D01*
X60358861Y-89021846D01*
X60385636Y-89034189D01*
X60390019Y-89036314D01*
X60566037Y-89126000D01*
X60845963Y-89126000D01*
X61021981Y-89036314D01*
X61026364Y-89034189D01*
X61053139Y-89021846D01*
X61057608Y-89019891D01*
X61093825Y-89004893D01*
X61098353Y-89003121D01*
X61125963Y-88992936D01*
X61130560Y-88991342D01*
X61369993Y-88913545D01*
X61374653Y-88912131D01*
X61402995Y-88904138D01*
X61407700Y-88902911D01*
X61445817Y-88893758D01*
X61450577Y-88892713D01*
X61454883Y-88891856D01*
X61437649Y-88877712D01*
X61433042Y-88873738D01*
X61405755Y-88849007D01*
X61401346Y-88844809D01*
X61255191Y-88698654D01*
X61250993Y-88694245D01*
X61226262Y-88666958D01*
X61222288Y-88662351D01*
X61191199Y-88624469D01*
X61187455Y-88619671D01*
X61179833Y-88609394D01*
X61162899Y-88603335D01*
X61157222Y-88601145D01*
X60966272Y-88522052D01*
X60960708Y-88519586D01*
X60927426Y-88503845D01*
X60921991Y-88501109D01*
X60878770Y-88478008D01*
X60873475Y-88475009D01*
X60841882Y-88456074D01*
X60836737Y-88452816D01*
X60664878Y-88337983D01*
X60659902Y-88334478D01*
X60630329Y-88312545D01*
X60625531Y-88308801D01*
X60587649Y-88277712D01*
X60583042Y-88273738D01*
X60555755Y-88249007D01*
X60551346Y-88244809D01*
X60405191Y-88098654D01*
X60400993Y-88094245D01*
X60376262Y-88066958D01*
X60372288Y-88062351D01*
X60341199Y-88024469D01*
X60337455Y-88019671D01*
X60315522Y-87990098D01*
X60312017Y-87985122D01*
X60259141Y-87905988D01*
X60197765Y-87893780D01*
X60191823Y-87892445D01*
X60156097Y-87883495D01*
X60150233Y-87881872D01*
X60124000Y-87873913D01*
X60124000Y-88940186D01*
X58748001Y-88940186D01*
X58829993Y-88913545D01*
X58834653Y-88912131D01*
X58862995Y-88904138D01*
X58867700Y-88902911D01*
X58905817Y-88893758D01*
X58910577Y-88892713D01*
X58939477Y-88886964D01*
X58944272Y-88886108D01*
X59126000Y-88857325D01*
X59126000Y-87624000D01*
X57624000Y-87624000D01*
X57624000Y-89126000D01*
X56626000Y-89126000D01*
X56626000Y-87624000D01*
X55124000Y-87624000D01*
X55124000Y-89126000D01*
X54126000Y-89126000D01*
X54126000Y-87624000D01*
X52624000Y-87624000D01*
X52624000Y-88780840D01*
X49170500Y-88780840D01*
X49170500Y-88656861D01*
X50168500Y-88656861D01*
X50365173Y-88556651D01*
X50369557Y-88554525D01*
X50396333Y-88542182D01*
X50400800Y-88540228D01*
X50437016Y-88525230D01*
X50441547Y-88523457D01*
X50469156Y-88513273D01*
X50473750Y-88511680D01*
X50705717Y-88436308D01*
X50710380Y-88434894D01*
X50738759Y-88426891D01*
X50743478Y-88425660D01*
X50781597Y-88416512D01*
X50786348Y-88415470D01*
X50815211Y-88409730D01*
X50819999Y-88408875D01*
X51060875Y-88370723D01*
X51065699Y-88370055D01*
X51094933Y-88366595D01*
X51099770Y-88366119D01*
X51138849Y-88363041D01*
X51143714Y-88362754D01*
X51173166Y-88361596D01*
X51178038Y-88361500D01*
X51421962Y-88361500D01*
X51426834Y-88361596D01*
X51456286Y-88362754D01*
X51461151Y-88363041D01*
X51500230Y-88366119D01*
X51505067Y-88366595D01*
X51534301Y-88370055D01*
X51539125Y-88370723D01*
X51626000Y-88384482D01*
X51626000Y-87624000D01*
X50168500Y-87624000D01*
X50168500Y-88656861D01*
X49170500Y-88656861D01*
X49170500Y-86626000D01*
X50168500Y-86626000D01*
X51626000Y-86626000D01*
X52624000Y-86626000D01*
X54126000Y-86626000D01*
X55124000Y-86626000D01*
X56626000Y-86626000D01*
X57624000Y-86626000D01*
X58735664Y-86626000D01*
X58733042Y-86623738D01*
X58705755Y-86599007D01*
X58701346Y-86594809D01*
X58555191Y-86448654D01*
X58550993Y-86444245D01*
X58526262Y-86416958D01*
X58522288Y-86412351D01*
X58491199Y-86374469D01*
X58487455Y-86369671D01*
X58465522Y-86340098D01*
X58462017Y-86335122D01*
X58347184Y-86163263D01*
X58343926Y-86158118D01*
X58324991Y-86126525D01*
X58321992Y-86121230D01*
X58298891Y-86078009D01*
X58296155Y-86072574D01*
X58280414Y-86039292D01*
X58277948Y-86033728D01*
X58198855Y-85842778D01*
X58196665Y-85837101D01*
X58184263Y-85802440D01*
X58182354Y-85796662D01*
X58168128Y-85749767D01*
X58166505Y-85743903D01*
X58157555Y-85708177D01*
X58156221Y-85702235D01*
X58115896Y-85499508D01*
X58114855Y-85493511D01*
X58109451Y-85457080D01*
X58108706Y-85451039D01*
X58103903Y-85402267D01*
X58103455Y-85396197D01*
X58101649Y-85359425D01*
X58101500Y-85353342D01*
X58101500Y-85146658D01*
X58101649Y-85140575D01*
X58102463Y-85124000D01*
X57624000Y-85124000D01*
X57624000Y-86626000D01*
X56626000Y-86626000D01*
X56626000Y-85124000D01*
X55124000Y-85124000D01*
X55124000Y-86626000D01*
X54126000Y-86626000D01*
X54126000Y-85124000D01*
X52624000Y-85124000D01*
X52624000Y-86626000D01*
X51626000Y-86626000D01*
X51626000Y-85124000D01*
X50168500Y-85124000D01*
X50168500Y-86626000D01*
X49170500Y-86626000D01*
X49170500Y-84126000D01*
X50168500Y-84126000D01*
X51626000Y-84126000D01*
X52624000Y-84126000D01*
X54126000Y-84126000D01*
X55124000Y-84126000D01*
X56626000Y-84126000D01*
X57624000Y-84126000D01*
X58301500Y-84126000D01*
X58301500Y-82624000D01*
X57624000Y-82624000D01*
X57624000Y-84126000D01*
X56626000Y-84126000D01*
X56626000Y-82624000D01*
X55124000Y-82624000D01*
X55124000Y-84126000D01*
X54126000Y-84126000D01*
X54126000Y-82624000D01*
X52624000Y-82624000D01*
X52624000Y-84126000D01*
X51626000Y-84126000D01*
X51626000Y-82624000D01*
X50168500Y-82624000D01*
X50168500Y-84126000D01*
X49170500Y-84126000D01*
X49170500Y-81626000D01*
X50168500Y-81626000D01*
X51626000Y-81626000D01*
X52624000Y-81626000D01*
X54126000Y-81626000D01*
X55124000Y-81626000D01*
X56626000Y-81626000D01*
X57624000Y-81626000D01*
X58301500Y-81626000D01*
X58301500Y-80124000D01*
X57624000Y-80124000D01*
X57624000Y-81626000D01*
X56626000Y-81626000D01*
X56626000Y-80124000D01*
X55124000Y-80124000D01*
X55124000Y-81626000D01*
X54126000Y-81626000D01*
X54126000Y-80124000D01*
X52624000Y-80124000D01*
X52624000Y-81626000D01*
X51626000Y-81626000D01*
X51626000Y-80124000D01*
X50168500Y-80124000D01*
X50168500Y-81626000D01*
X49170500Y-81626000D01*
X49170500Y-79126000D01*
X50168500Y-79126000D01*
X51626000Y-79126000D01*
X52624000Y-79126000D01*
X54126000Y-79126000D01*
X55124000Y-79126000D01*
X56626000Y-79126000D01*
X57624000Y-79126000D01*
X58301500Y-79126000D01*
X58301500Y-77624000D01*
X57624000Y-77624000D01*
X57624000Y-79126000D01*
X56626000Y-79126000D01*
X56626000Y-77624000D01*
X55124000Y-77624000D01*
X55124000Y-79126000D01*
X54126000Y-79126000D01*
X54126000Y-77624000D01*
X52624000Y-77624000D01*
X52624000Y-79126000D01*
X51626000Y-79126000D01*
X51626000Y-77624000D01*
X50168500Y-77624000D01*
X50168500Y-79126000D01*
X49170500Y-79126000D01*
X49170500Y-76626000D01*
X50168500Y-76626000D01*
X51626000Y-76626000D01*
X52624000Y-76626000D01*
X54126000Y-76626000D01*
X55124000Y-76626000D01*
X56626000Y-76626000D01*
X57624000Y-76626000D01*
X58301500Y-76626000D01*
X58301500Y-75124000D01*
X57624000Y-75124000D01*
X57624000Y-76626000D01*
X56626000Y-76626000D01*
X56626000Y-75124000D01*
X55124000Y-75124000D01*
X55124000Y-76626000D01*
X54126000Y-76626000D01*
X54126000Y-75124000D01*
X52624000Y-75124000D01*
X52624000Y-76626000D01*
X51626000Y-76626000D01*
X51626000Y-75124000D01*
X50168500Y-75124000D01*
X50168500Y-76626000D01*
X49170500Y-76626000D01*
X49170500Y-74126000D01*
X50168500Y-74126000D01*
X51626000Y-74126000D01*
X51626000Y-72833499D01*
X50168500Y-72833499D01*
X50168500Y-74126000D01*
X49170500Y-74126000D01*
X49170500Y-72655059D01*
X52624000Y-72655059D01*
X52624000Y-74126000D01*
X54126000Y-74126000D01*
X55124000Y-74126000D01*
X56626000Y-74126000D01*
X57624000Y-74126000D01*
X58301500Y-74126000D01*
X58301500Y-74078064D01*
X58166272Y-74022052D01*
X58160708Y-74019586D01*
X58127426Y-74003845D01*
X58121991Y-74001109D01*
X58078770Y-73978008D01*
X58073475Y-73975009D01*
X58041882Y-73956074D01*
X58036737Y-73952816D01*
X57864878Y-73837983D01*
X57859902Y-73834478D01*
X57830329Y-73812545D01*
X57825531Y-73808801D01*
X57787649Y-73777712D01*
X57783042Y-73773738D01*
X57755755Y-73749007D01*
X57751346Y-73744809D01*
X57624000Y-73617463D01*
X57624000Y-74126000D01*
X56626000Y-74126000D01*
X56626000Y-72624000D01*
X55124000Y-72624000D01*
X55124000Y-74126000D01*
X54126000Y-74126000D01*
X54126000Y-72624000D01*
X52677712Y-72624000D01*
X52663537Y-72633110D01*
X52655923Y-72637628D01*
X52624000Y-72655059D01*
X49170500Y-72655059D01*
X49170500Y-69587135D01*
X49703500Y-69587135D01*
X49703500Y-71382870D01*
X49703501Y-71382876D01*
X49709908Y-71442483D01*
X49760202Y-71577328D01*
X49760206Y-71577335D01*
X49846452Y-71692544D01*
X49846455Y-71692547D01*
X49961664Y-71778793D01*
X49961671Y-71778797D01*
X50096517Y-71829091D01*
X50096516Y-71829091D01*
X50103444Y-71829835D01*
X50156127Y-71835500D01*
X51951872Y-71835499D01*
X52011483Y-71829091D01*
X52146331Y-71778796D01*
X52261546Y-71692546D01*
X52311362Y-71626000D01*
X53379439Y-71626000D01*
X54126000Y-71626000D01*
X55124000Y-71626000D01*
X56626000Y-71626000D01*
X56626000Y-71182537D01*
X57624000Y-71182537D01*
X57751346Y-71055191D01*
X57755755Y-71050993D01*
X57783042Y-71026262D01*
X57787649Y-71022288D01*
X57825531Y-70991199D01*
X57830329Y-70987455D01*
X57859902Y-70965522D01*
X57864878Y-70962017D01*
X58036737Y-70847184D01*
X58041882Y-70843926D01*
X58073475Y-70824991D01*
X58078770Y-70821992D01*
X58121991Y-70798891D01*
X58127426Y-70796155D01*
X58160708Y-70780414D01*
X58166272Y-70777948D01*
X58357222Y-70698855D01*
X58362899Y-70696665D01*
X58397560Y-70684263D01*
X58403338Y-70682354D01*
X58450233Y-70668128D01*
X58456097Y-70666505D01*
X58491823Y-70657555D01*
X58497765Y-70656221D01*
X58700492Y-70615896D01*
X58706489Y-70614855D01*
X58742920Y-70609451D01*
X58748961Y-70608706D01*
X58797733Y-70603903D01*
X58803803Y-70603455D01*
X58840575Y-70601649D01*
X58846658Y-70601500D01*
X59053342Y-70601500D01*
X59059425Y-70601649D01*
X59096197Y-70603455D01*
X59102267Y-70603903D01*
X59126000Y-70606240D01*
X59126000Y-70124000D01*
X57624000Y-70124000D01*
X57624000Y-71182537D01*
X56626000Y-71182537D01*
X56626000Y-70124000D01*
X55124000Y-70124000D01*
X55124000Y-71626000D01*
X54126000Y-71626000D01*
X54126000Y-70124000D01*
X53402499Y-70124000D01*
X53402500Y-71396248D01*
X53402455Y-71399572D01*
X53401916Y-71419673D01*
X53401783Y-71422993D01*
X53400351Y-71449680D01*
X53400129Y-71452989D01*
X53398519Y-71472982D01*
X53398208Y-71476285D01*
X53387038Y-71580175D01*
X53385971Y-71587843D01*
X53379439Y-71626000D01*
X52311362Y-71626000D01*
X52347796Y-71577331D01*
X52398091Y-71442483D01*
X52404500Y-71382873D01*
X52404499Y-69587128D01*
X52398091Y-69527517D01*
X52380544Y-69480472D01*
X52347797Y-69392671D01*
X52347793Y-69392664D01*
X52261547Y-69277455D01*
X52261544Y-69277452D01*
X52146335Y-69191206D01*
X52146328Y-69191202D01*
X52011482Y-69140908D01*
X52011483Y-69140908D01*
X51951883Y-69134501D01*
X51951881Y-69134500D01*
X51951873Y-69134500D01*
X51951864Y-69134500D01*
X50156129Y-69134500D01*
X50156123Y-69134501D01*
X50096516Y-69140908D01*
X49961671Y-69191202D01*
X49961664Y-69191206D01*
X49846455Y-69277452D01*
X49846452Y-69277455D01*
X49760206Y-69392664D01*
X49760202Y-69392671D01*
X49709908Y-69527517D01*
X49703501Y-69587116D01*
X49703501Y-69587123D01*
X49703500Y-69587135D01*
X49170500Y-69587135D01*
X49170500Y-67705702D01*
X52624000Y-67705702D01*
X52624000Y-68314940D01*
X52655923Y-68332372D01*
X52663537Y-68336890D01*
X52708604Y-68365854D01*
X52715874Y-68370902D01*
X52888173Y-68499886D01*
X52895064Y-68505439D01*
X52935549Y-68540519D01*
X52942028Y-68546551D01*
X52992449Y-68596972D01*
X52998481Y-68603451D01*
X53033561Y-68643936D01*
X53039114Y-68650827D01*
X53168098Y-68823126D01*
X53173146Y-68830396D01*
X53202110Y-68875463D01*
X53206628Y-68883077D01*
X53240805Y-68945667D01*
X53244767Y-68953581D01*
X53267025Y-69002318D01*
X53270413Y-69010498D01*
X53313492Y-69126000D01*
X54126000Y-69126000D01*
X55124000Y-69126000D01*
X56626000Y-69126000D01*
X57624000Y-69126000D01*
X59126000Y-69126000D01*
X60124000Y-69126000D01*
X60480537Y-69126000D01*
X65124000Y-69126000D01*
X66626000Y-69126000D01*
X67624000Y-69126000D01*
X69126000Y-69126000D01*
X70124000Y-69126000D01*
X71626000Y-69126000D01*
X72624000Y-69126000D01*
X74126000Y-69126000D01*
X75124000Y-69126000D01*
X76626000Y-69126000D01*
X77624000Y-69126000D01*
X79126000Y-69126000D01*
X80124000Y-69126000D01*
X81626000Y-69126000D01*
X82624000Y-69126000D01*
X84126000Y-69126000D01*
X85124000Y-69126000D01*
X86626000Y-69126000D01*
X87624000Y-69126000D01*
X89126000Y-69126000D01*
X90124000Y-69126000D01*
X91626000Y-69126000D01*
X91626000Y-69122198D01*
X91613128Y-69079767D01*
X91611505Y-69073903D01*
X91602555Y-69038177D01*
X91601221Y-69032235D01*
X91560896Y-68829508D01*
X91559855Y-68823511D01*
X91554451Y-68787080D01*
X91553706Y-68781039D01*
X91548903Y-68732267D01*
X91548455Y-68726197D01*
X91546649Y-68689425D01*
X91546500Y-68683342D01*
X91546500Y-68476658D01*
X91546649Y-68470575D01*
X91548455Y-68433803D01*
X91548903Y-68427733D01*
X91553706Y-68378961D01*
X91554451Y-68372920D01*
X91559855Y-68336489D01*
X91560896Y-68330492D01*
X91601221Y-68127765D01*
X91602555Y-68121823D01*
X91611505Y-68086097D01*
X91613128Y-68080233D01*
X91626000Y-68037801D01*
X91626000Y-67624000D01*
X90124000Y-67624000D01*
X90124000Y-69126000D01*
X89126000Y-69126000D01*
X89126000Y-67624000D01*
X87624000Y-67624000D01*
X87624000Y-69126000D01*
X86626000Y-69126000D01*
X86626000Y-67624000D01*
X85124000Y-67624000D01*
X85124000Y-69126000D01*
X84126000Y-69126000D01*
X84126000Y-67624000D01*
X82624000Y-67624000D01*
X82624000Y-69126000D01*
X81626000Y-69126000D01*
X81626000Y-67624000D01*
X80124000Y-67624000D01*
X80124000Y-69126000D01*
X79126000Y-69126000D01*
X79126000Y-67624000D01*
X77624000Y-67624000D01*
X77624000Y-69126000D01*
X76626000Y-69126000D01*
X76626000Y-67624000D01*
X75124000Y-67624000D01*
X75124000Y-69126000D01*
X74126000Y-69126000D01*
X74126000Y-67624000D01*
X72624000Y-67624000D01*
X72624000Y-69126000D01*
X71626000Y-69126000D01*
X71626000Y-67624000D01*
X70124000Y-67624000D01*
X70124000Y-69126000D01*
X69126000Y-69126000D01*
X69126000Y-67624000D01*
X67624000Y-67624000D01*
X67624000Y-69126000D01*
X66626000Y-69126000D01*
X66626000Y-67624000D01*
X65124000Y-67624000D01*
X65124000Y-69126000D01*
X60480537Y-69126000D01*
X60551346Y-69055191D01*
X60555755Y-69050993D01*
X60583042Y-69026262D01*
X60587649Y-69022288D01*
X60625531Y-68991199D01*
X60630329Y-68987455D01*
X60659902Y-68965522D01*
X60664878Y-68962017D01*
X60836737Y-68847184D01*
X60841882Y-68843926D01*
X60873475Y-68824991D01*
X60878770Y-68821992D01*
X60921991Y-68798891D01*
X60927426Y-68796155D01*
X60960708Y-68780414D01*
X60966272Y-68777948D01*
X61157222Y-68698855D01*
X61162899Y-68696665D01*
X61197560Y-68684263D01*
X61203338Y-68682354D01*
X61250233Y-68668128D01*
X61256097Y-68666505D01*
X61291823Y-68657555D01*
X61297765Y-68656221D01*
X61500492Y-68615896D01*
X61506489Y-68614855D01*
X61542920Y-68609451D01*
X61548961Y-68608706D01*
X61597733Y-68603903D01*
X61603803Y-68603455D01*
X61626000Y-68602364D01*
X61626000Y-68601500D01*
X62624000Y-68601500D01*
X62703342Y-68601500D01*
X62709425Y-68601649D01*
X62746197Y-68603455D01*
X62752267Y-68603903D01*
X62801039Y-68608706D01*
X62807080Y-68609451D01*
X62843511Y-68614855D01*
X62849508Y-68615896D01*
X63000000Y-68645830D01*
X63150492Y-68615896D01*
X63156489Y-68614855D01*
X63192920Y-68609451D01*
X63198961Y-68608706D01*
X63247733Y-68603903D01*
X63253803Y-68603455D01*
X63290575Y-68601649D01*
X63296658Y-68601500D01*
X63503342Y-68601500D01*
X63509425Y-68601649D01*
X63546197Y-68603455D01*
X63552267Y-68603903D01*
X63601039Y-68608706D01*
X63607080Y-68609451D01*
X63643511Y-68614855D01*
X63649508Y-68615896D01*
X63852235Y-68656221D01*
X63858177Y-68657555D01*
X63893903Y-68666505D01*
X63899767Y-68668128D01*
X63946662Y-68682354D01*
X63952440Y-68684263D01*
X63987101Y-68696665D01*
X63992778Y-68698855D01*
X64126000Y-68754036D01*
X64126000Y-67624000D01*
X62624000Y-67624000D01*
X62624000Y-68601500D01*
X61626000Y-68601500D01*
X61626000Y-67624000D01*
X60124000Y-67624000D01*
X60124000Y-69126000D01*
X59126000Y-69126000D01*
X59126000Y-67624000D01*
X57624000Y-67624000D01*
X57624000Y-69126000D01*
X56626000Y-69126000D01*
X56626000Y-67624000D01*
X55124000Y-67624000D01*
X55124000Y-69126000D01*
X54126000Y-69126000D01*
X54126000Y-67624000D01*
X52720569Y-67624000D01*
X52720063Y-67624506D01*
X52716559Y-67627876D01*
X52694954Y-67647850D01*
X52691315Y-67651084D01*
X52661508Y-67676545D01*
X52657743Y-67679635D01*
X52634584Y-67697894D01*
X52630695Y-67700838D01*
X52624000Y-67705702D01*
X49170500Y-67705702D01*
X49170500Y-65810648D01*
X49880500Y-65810648D01*
X49880500Y-66015351D01*
X49912522Y-66217534D01*
X49975781Y-66412223D01*
X50068715Y-66594613D01*
X50189028Y-66760213D01*
X50333786Y-66904971D01*
X50488749Y-67017556D01*
X50499390Y-67025287D01*
X50615607Y-67084503D01*
X50681776Y-67118218D01*
X50681778Y-67118218D01*
X50681781Y-67118220D01*
X50786137Y-67152127D01*
X50876465Y-67181477D01*
X50977557Y-67197488D01*
X51078648Y-67213500D01*
X51078649Y-67213500D01*
X51283351Y-67213500D01*
X51283352Y-67213500D01*
X51485534Y-67181477D01*
X51680219Y-67118220D01*
X51862610Y-67025287D01*
X51955590Y-66957732D01*
X52028213Y-66904971D01*
X52028215Y-66904968D01*
X52028219Y-66904966D01*
X52172966Y-66760219D01*
X52172968Y-66760215D01*
X52172971Y-66760213D01*
X52225732Y-66687590D01*
X52293287Y-66594610D01*
X52386220Y-66412219D01*
X52449477Y-66217534D01*
X52481500Y-66015352D01*
X52481500Y-65810648D01*
X52449477Y-65608466D01*
X52386220Y-65413781D01*
X52386218Y-65413778D01*
X52386218Y-65413776D01*
X52337782Y-65318717D01*
X52293287Y-65231390D01*
X52285556Y-65220749D01*
X52215265Y-65124000D01*
X53341423Y-65124000D01*
X53404692Y-65318717D01*
X53406106Y-65323380D01*
X53414109Y-65351759D01*
X53415340Y-65356478D01*
X53424488Y-65394597D01*
X53425530Y-65399348D01*
X53431270Y-65428211D01*
X53432125Y-65432999D01*
X53470277Y-65673875D01*
X53470945Y-65678699D01*
X53474405Y-65707933D01*
X53474881Y-65712770D01*
X53477959Y-65751849D01*
X53478246Y-65756714D01*
X53479404Y-65786166D01*
X53479500Y-65791038D01*
X53479500Y-66034962D01*
X53479404Y-66039834D01*
X53478246Y-66069286D01*
X53477959Y-66074151D01*
X53474881Y-66113230D01*
X53474405Y-66118067D01*
X53470945Y-66147301D01*
X53470277Y-66152125D01*
X53432125Y-66393001D01*
X53431270Y-66397789D01*
X53425530Y-66426652D01*
X53424488Y-66431403D01*
X53415340Y-66469522D01*
X53414109Y-66474241D01*
X53406106Y-66502620D01*
X53404692Y-66507283D01*
X53366118Y-66626000D01*
X54126000Y-66626000D01*
X55124000Y-66626000D01*
X56626000Y-66626000D01*
X57624000Y-66626000D01*
X59126000Y-66626000D01*
X60124000Y-66626000D01*
X61626000Y-66626000D01*
X62624000Y-66626000D01*
X64126000Y-66626000D01*
X65124000Y-66626000D01*
X66626000Y-66626000D01*
X67624000Y-66626000D01*
X69126000Y-66626000D01*
X70124000Y-66626000D01*
X71626000Y-66626000D01*
X72624000Y-66626000D01*
X74126000Y-66626000D01*
X75124000Y-66626000D01*
X76626000Y-66626000D01*
X77624000Y-66626000D01*
X79126000Y-66626000D01*
X80124000Y-66626000D01*
X81626000Y-66626000D01*
X82624000Y-66626000D01*
X84126000Y-66626000D01*
X85124000Y-66626000D01*
X86626000Y-66626000D01*
X87624000Y-66626000D01*
X89126000Y-66626000D01*
X90124000Y-66626000D01*
X91626000Y-66626000D01*
X92624000Y-66626000D01*
X94126000Y-66626000D01*
X94126000Y-65810648D01*
X95229500Y-65810648D01*
X95229500Y-66015351D01*
X95261522Y-66217534D01*
X95324781Y-66412223D01*
X95417715Y-66594613D01*
X95538028Y-66760213D01*
X95682786Y-66904971D01*
X95837749Y-67017556D01*
X95848390Y-67025287D01*
X95964607Y-67084503D01*
X96030776Y-67118218D01*
X96030778Y-67118218D01*
X96030781Y-67118220D01*
X96135137Y-67152127D01*
X96225465Y-67181477D01*
X96326557Y-67197488D01*
X96427648Y-67213500D01*
X96427649Y-67213500D01*
X96632351Y-67213500D01*
X96632352Y-67213500D01*
X96834534Y-67181477D01*
X97029219Y-67118220D01*
X97211610Y-67025287D01*
X97304590Y-66957732D01*
X97377213Y-66904971D01*
X97377215Y-66904968D01*
X97377219Y-66904966D01*
X97521966Y-66760219D01*
X97521968Y-66760215D01*
X97521971Y-66760213D01*
X97574732Y-66687590D01*
X97642287Y-66594610D01*
X97735220Y-66412219D01*
X97798477Y-66217534D01*
X97830500Y-66015352D01*
X97830500Y-65810648D01*
X97798477Y-65608466D01*
X97735220Y-65413781D01*
X97735218Y-65413778D01*
X97735218Y-65413776D01*
X97686782Y-65318717D01*
X97642287Y-65231390D01*
X97634556Y-65220749D01*
X97521971Y-65065786D01*
X97377213Y-64921028D01*
X97211613Y-64800715D01*
X97211612Y-64800714D01*
X97211610Y-64800713D01*
X97154653Y-64771691D01*
X97029223Y-64707781D01*
X96834534Y-64644522D01*
X96659995Y-64616878D01*
X96632352Y-64612500D01*
X96427648Y-64612500D01*
X96403329Y-64616351D01*
X96225465Y-64644522D01*
X96030776Y-64707781D01*
X95848386Y-64800715D01*
X95682786Y-64921028D01*
X95538028Y-65065786D01*
X95417715Y-65231386D01*
X95324781Y-65413776D01*
X95261522Y-65608465D01*
X95229500Y-65810648D01*
X94126000Y-65810648D01*
X94126000Y-65124000D01*
X92624000Y-65124000D01*
X92624000Y-66626000D01*
X91626000Y-66626000D01*
X91626000Y-65124000D01*
X90124000Y-65124000D01*
X90124000Y-66626000D01*
X89126000Y-66626000D01*
X89126000Y-65124000D01*
X87624000Y-65124000D01*
X87624000Y-66626000D01*
X86626000Y-66626000D01*
X86626000Y-65124000D01*
X85124000Y-65124000D01*
X85124000Y-66626000D01*
X84126000Y-66626000D01*
X84126000Y-65124000D01*
X82624000Y-65124000D01*
X82624000Y-66626000D01*
X81626000Y-66626000D01*
X81626000Y-65124000D01*
X80124000Y-65124000D01*
X80124000Y-66626000D01*
X79126000Y-66626000D01*
X79126000Y-65124000D01*
X77624000Y-65124000D01*
X77624000Y-66626000D01*
X76626000Y-66626000D01*
X76626000Y-65124000D01*
X75124000Y-65124000D01*
X75124000Y-66626000D01*
X74126000Y-66626000D01*
X74126000Y-65124000D01*
X72624000Y-65124000D01*
X72624000Y-66626000D01*
X71626000Y-66626000D01*
X71626000Y-65124000D01*
X70124000Y-65124000D01*
X70124000Y-66626000D01*
X69126000Y-66626000D01*
X69126000Y-65124000D01*
X67624000Y-65124000D01*
X67624000Y-66626000D01*
X66626000Y-66626000D01*
X66626000Y-65124000D01*
X65124000Y-65124000D01*
X65124000Y-66626000D01*
X64126000Y-66626000D01*
X64126000Y-65124000D01*
X62624000Y-65124000D01*
X62624000Y-66626000D01*
X61626000Y-66626000D01*
X61626000Y-65124000D01*
X60124000Y-65124000D01*
X60124000Y-66626000D01*
X59126000Y-66626000D01*
X59126000Y-65124000D01*
X57624000Y-65124000D01*
X57624000Y-66626000D01*
X56626000Y-66626000D01*
X56626000Y-65124000D01*
X55124000Y-65124000D01*
X55124000Y-66626000D01*
X54126000Y-66626000D01*
X54126000Y-65124000D01*
X53341423Y-65124000D01*
X52215265Y-65124000D01*
X52172971Y-65065786D01*
X52028213Y-64921028D01*
X51862613Y-64800715D01*
X51862612Y-64800714D01*
X51862610Y-64800713D01*
X51805653Y-64771691D01*
X51680223Y-64707781D01*
X51485534Y-64644522D01*
X51310995Y-64616878D01*
X51283352Y-64612500D01*
X51078648Y-64612500D01*
X51054329Y-64616351D01*
X50876465Y-64644522D01*
X50681776Y-64707781D01*
X50499386Y-64800715D01*
X50333786Y-64921028D01*
X50189028Y-65065786D01*
X50068715Y-65231386D01*
X49975781Y-65413776D01*
X49912522Y-65608465D01*
X49880500Y-65810648D01*
X49170500Y-65810648D01*
X49170500Y-64023024D01*
X49190185Y-63955985D01*
X49242989Y-63910230D01*
X49293874Y-63899026D01*
X56968002Y-63860502D01*
X56968624Y-63860500D01*
X98565500Y-63860500D01*
X98632539Y-63880185D01*
G37*
%TD.AperFunction*%
%TA.AperFunction,Conductor*%
G36*
X97647539Y-69200185D02*
G01*
X97693294Y-69252989D01*
X97704500Y-69304500D01*
X97704500Y-71231872D01*
X97684815Y-71298911D01*
X97632011Y-71344666D01*
X97562853Y-71354610D01*
X97542183Y-71349803D01*
X97471244Y-71326754D01*
X97471240Y-71326753D01*
X97295450Y-71298911D01*
X97261287Y-71293500D01*
X97048713Y-71293500D01*
X97014550Y-71298911D01*
X96838760Y-71326753D01*
X96636585Y-71392444D01*
X96447179Y-71488951D01*
X96275213Y-71613890D01*
X96124890Y-71764213D01*
X95999951Y-71936179D01*
X95903444Y-72125585D01*
X95837753Y-72327760D01*
X95804500Y-72537713D01*
X95804500Y-72684902D01*
X95784815Y-72751941D01*
X95732011Y-72797696D01*
X95662853Y-72807640D01*
X95599297Y-72778615D01*
X95592819Y-72772583D01*
X94108819Y-71288583D01*
X94075334Y-71227260D01*
X94072500Y-71200902D01*
X94072500Y-70815425D01*
X95124000Y-70815425D01*
X95124000Y-70892380D01*
X95357565Y-71125945D01*
X95378778Y-71101112D01*
X95382012Y-71097473D01*
X95401986Y-71075868D01*
X95405356Y-71072364D01*
X95583364Y-70894356D01*
X95586868Y-70890986D01*
X95608473Y-70871012D01*
X95612112Y-70867778D01*
X95641919Y-70842317D01*
X95645684Y-70839227D01*
X95668843Y-70820968D01*
X95672731Y-70818025D01*
X95876435Y-70670026D01*
X95880432Y-70667240D01*
X95904927Y-70650874D01*
X95909027Y-70648250D01*
X95942450Y-70627769D01*
X95946650Y-70625307D01*
X95972346Y-70610917D01*
X95976639Y-70608622D01*
X96200981Y-70494314D01*
X96205364Y-70492189D01*
X96232139Y-70479846D01*
X96236608Y-70477891D01*
X96272825Y-70462893D01*
X96277353Y-70461121D01*
X96304963Y-70450936D01*
X96309560Y-70449342D01*
X96548993Y-70371545D01*
X96553653Y-70370131D01*
X96581995Y-70362138D01*
X96586700Y-70360911D01*
X96624817Y-70351758D01*
X96626000Y-70351498D01*
X96626000Y-70178500D01*
X95270500Y-70178500D01*
X95270500Y-70207342D01*
X95270351Y-70213425D01*
X95268545Y-70250197D01*
X95268097Y-70256267D01*
X95263294Y-70305039D01*
X95262549Y-70311080D01*
X95257145Y-70347511D01*
X95256104Y-70353508D01*
X95215779Y-70556235D01*
X95214445Y-70562177D01*
X95205495Y-70597903D01*
X95203872Y-70603767D01*
X95189646Y-70650662D01*
X95187737Y-70656440D01*
X95175335Y-70691101D01*
X95173145Y-70696778D01*
X95124000Y-70815425D01*
X94072500Y-70815425D01*
X94072500Y-70683765D01*
X94092185Y-70616726D01*
X94093398Y-70614874D01*
X94097576Y-70608622D01*
X94181394Y-70483179D01*
X94183191Y-70478842D01*
X94227634Y-70371545D01*
X94241737Y-70337497D01*
X94272500Y-70182842D01*
X94272500Y-70025158D01*
X94272500Y-70025155D01*
X94272499Y-70025153D01*
X94241737Y-69870503D01*
X94203509Y-69778211D01*
X94181397Y-69724827D01*
X94181390Y-69724814D01*
X94093789Y-69593711D01*
X94093786Y-69593707D01*
X93982292Y-69482213D01*
X93982288Y-69482210D01*
X93870630Y-69407602D01*
X93825825Y-69353990D01*
X93817118Y-69284665D01*
X93847273Y-69221637D01*
X93906716Y-69184918D01*
X93939521Y-69180500D01*
X97580500Y-69180500D01*
X97647539Y-69200185D01*
G37*
%TD.AperFunction*%
%TD*%
M02*
