%TF.GenerationSoftware,KiCad,Pcbnew,10.0.4*%
%TF.CreationDate,2026-08-08T20:12:06+03:00*%
%TF.ProjectId,MCU_Datalogger,4d43555f-4461-4746-916c-6f676765722e,1*%
%TF.SameCoordinates,Original*%
%TF.FileFunction,Copper,L1,Top*%
%TF.FilePolarity,Positive*%
%FSLAX46Y46*%
G04 Gerber Fmt 4.6, Leading zero omitted, Abs format (unit mm)*
G04 Created by KiCad (PCBNEW 10.0.4) date 2026-08-08 20:12:06*
%MOMM*%
%LPD*%
G01*
G04 APERTURE LIST*
G04 Aperture macros list*
%AMRoundRect*
0 Rectangle with rounded corners*
0 $1 Rounding radius*
0 $2 $3 $4 $5 $6 $7 $8 $9 X,Y pos of 4 corners*
0 Add a 4 corners polygon primitive as box body*
4,1,4,$2,$3,$4,$5,$6,$7,$8,$9,$2,$3,0*
0 Add four circle primitives for the rounded corners*
1,1,$1+$1,$2,$3*
1,1,$1+$1,$4,$5*
1,1,$1+$1,$6,$7*
1,1,$1+$1,$8,$9*
0 Add four rect primitives between the rounded corners*
20,1,$1+$1,$2,$3,$4,$5,0*
20,1,$1+$1,$4,$5,$6,$7,0*
20,1,$1+$1,$6,$7,$8,$9,0*
20,1,$1+$1,$8,$9,$2,$3,0*%
G04 Aperture macros list end*
%TA.AperFunction,SMDPad,CuDef*%
%ADD10RoundRect,0.162500X-0.650000X-0.162500X0.650000X-0.162500X0.650000X0.162500X-0.650000X0.162500X0*%
%TD*%
%TA.AperFunction,ComponentPad*%
%ADD11R,1.700000X1.700000*%
%TD*%
%TA.AperFunction,ComponentPad*%
%ADD12C,1.700000*%
%TD*%
%TA.AperFunction,SMDPad,CuDef*%
%ADD13RoundRect,0.243750X-0.243750X-0.456250X0.243750X-0.456250X0.243750X0.456250X-0.243750X0.456250X0*%
%TD*%
%TA.AperFunction,SMDPad,CuDef*%
%ADD14RoundRect,0.073750X-0.911250X-0.221250X0.911250X-0.221250X0.911250X0.221250X-0.911250X0.221250X0*%
%TD*%
%TA.AperFunction,SMDPad,CuDef*%
%ADD15RoundRect,0.250000X0.475000X-0.250000X0.475000X0.250000X-0.475000X0.250000X-0.475000X-0.250000X0*%
%TD*%
%TA.AperFunction,SMDPad,CuDef*%
%ADD16RoundRect,0.243750X0.456250X-0.243750X0.456250X0.243750X-0.456250X0.243750X-0.456250X-0.243750X0*%
%TD*%
%TA.AperFunction,SMDPad,CuDef*%
%ADD17RoundRect,0.250000X-0.475000X0.250000X-0.475000X-0.250000X0.475000X-0.250000X0.475000X0.250000X0*%
%TD*%
%TA.AperFunction,SMDPad,CuDef*%
%ADD18RoundRect,0.068750X-0.666250X-0.206250X0.666250X-0.206250X0.666250X0.206250X-0.666250X0.206250X0*%
%TD*%
%TA.AperFunction,SMDPad,CuDef*%
%ADD19RoundRect,0.068750X-0.206250X-0.666250X0.206250X-0.666250X0.206250X0.666250X-0.206250X0.666250X0*%
%TD*%
%TA.AperFunction,SMDPad,CuDef*%
%ADD20RoundRect,0.243750X0.243750X0.456250X-0.243750X0.456250X-0.243750X-0.456250X0.243750X-0.456250X0*%
%TD*%
%TA.AperFunction,SMDPad,CuDef*%
%ADD21RoundRect,0.250000X0.250000X0.475000X-0.250000X0.475000X-0.250000X-0.475000X0.250000X-0.475000X0*%
%TD*%
%TA.AperFunction,SMDPad,CuDef*%
%ADD22RoundRect,0.250001X0.949999X-1.499999X0.949999X1.499999X-0.949999X1.499999X-0.949999X-1.499999X0*%
%TD*%
%TA.AperFunction,ViaPad*%
%ADD23C,0.600000*%
%TD*%
%TA.AperFunction,Conductor*%
%ADD24C,0.200000*%
%TD*%
G04 APERTURE END LIST*
D10*
%TO.P,U2,1,A0_1*%
%TO.N,/Vcc*%
X84169500Y-66167000D03*
%TO.P,U2,2,A1_2*%
%TO.N,GND*%
X84169500Y-67437000D03*
%TO.P,U2,3,A2_3*%
%TO.N,/Vcc*%
X84169500Y-68707000D03*
%TO.P,U2,4,GND_4*%
%TO.N,GND*%
X84169500Y-69977000D03*
%TO.P,U2,5,SDA_5*%
%TO.N,/SDA*%
X91344500Y-69977000D03*
%TO.P,U2,6,SCL_6*%
%TO.N,/SCK*%
X91344500Y-68707000D03*
%TO.P,U2,7,WP_7*%
%TO.N,GND*%
X91344500Y-67437000D03*
%TO.P,U2,8,VCC_8*%
%TO.N,/Vcc*%
X91344500Y-66167000D03*
%TD*%
D11*
%TO.P,BT1,1,+_1*%
%TO.N,Net-(BT1-+)*%
X51054000Y-70485000D03*
D12*
%TO.P,BT1,2,-_2*%
%TO.N,GND*%
X51054000Y-73025000D03*
%TD*%
D13*
%TO.P,R4,1*%
%TO.N,/Vcc*%
X92280500Y-76962000D03*
%TO.P,R4,2*%
%TO.N,/SCK*%
X94155500Y-76962000D03*
%TD*%
D14*
%TO.P,U3,1,X1_1*%
%TO.N,Net-(U3-X1)*%
X83504000Y-77851000D03*
%TO.P,U3,2,X2_2*%
%TO.N,Net-(U3-X2)*%
X83504000Y-79121000D03*
%TO.P,U3,3,~{INTA}_3*%
%TO.N,Net-(U3-~{INTA})*%
X83504000Y-80391000D03*
%TO.P,U3,4,GND_4*%
%TO.N,GND*%
X83504000Y-81661000D03*
%TO.P,U3,5,SDA_5*%
%TO.N,/SDA*%
X88454000Y-81661000D03*
%TO.P,U3,6,SCL_6*%
%TO.N,/SCK*%
X88454000Y-80391000D03*
%TO.P,U3,7,SQW/~INT_7*%
%TO.N,Net-(U3-SQW{slash}~INT)*%
X88454000Y-79121000D03*
%TO.P,U3,8,VCC_8*%
%TO.N,/Vcc*%
X88454000Y-77851000D03*
%TD*%
D11*
%TO.P,J1,1,Pin_1_1*%
%TO.N,GND*%
X97155000Y-70104000D03*
D12*
%TO.P,J1,2,Pin_2_2*%
%TO.N,/Vcc*%
X97155000Y-72644000D03*
%TO.P,J1,3,Pin_3_3*%
%TO.N,/SDA*%
X97155000Y-75184000D03*
%TO.P,J1,4,Pin_4_4*%
%TO.N,/SCK*%
X97155000Y-77724000D03*
%TD*%
D13*
%TO.P,D2,1,K_1*%
%TO.N,Net-(D2-K)*%
X72468500Y-77724000D03*
%TO.P,D2,2,A_2*%
%TO.N,Net-(BT1-+)*%
X74343500Y-77724000D03*
%TD*%
D11*
%TO.P,J4,1,Pin_1_1*%
%TO.N,/MISO*%
X94610000Y-81280000D03*
D12*
%TO.P,J4,2,Pin_2_2*%
%TO.N,/Vcc*%
X97150000Y-81280000D03*
%TO.P,J4,3,Pin_3_3*%
%TO.N,/SCK*%
X94610000Y-83820000D03*
%TO.P,J4,4,Pin_4_4*%
%TO.N,/MOSI*%
X97150000Y-83820000D03*
%TO.P,J4,5,Pin_5_5*%
%TO.N,/RESET*%
X94610000Y-86360000D03*
%TO.P,J4,6,Pin_6_6*%
%TO.N,GND*%
X97150000Y-86360000D03*
%TD*%
D15*
%TO.P,C1,1*%
%TO.N,/Vcc*%
X88900000Y-86548000D03*
%TO.P,C1,2*%
%TO.N,GND*%
X88900000Y-84648000D03*
%TD*%
D16*
%TO.P,R1,1*%
%TO.N,/Vcc*%
X83693000Y-86535500D03*
%TO.P,R1,2*%
%TO.N,Net-(U3-~{INTA})*%
X83693000Y-84660500D03*
%TD*%
D11*
%TO.P,J3,1,Pin_1_1*%
%TO.N,GND*%
X56896000Y-91186000D03*
D12*
%TO.P,J3,2,Pin_2_2*%
%TO.N,/Vcc*%
X59436000Y-91186000D03*
%TO.P,J3,3,Pin_3_3*%
%TO.N,/RX*%
X61976000Y-91186000D03*
%TO.P,J3,4,Pin_4_4*%
%TO.N,/TX*%
X64516000Y-91186000D03*
%TD*%
D15*
%TO.P,C2,1*%
%TO.N,GND*%
X56261000Y-82611000D03*
%TO.P,C2,2*%
%TO.N,Net-(U4-PB6)*%
X56261000Y-80711000D03*
%TD*%
D10*
%TO.P,U1,1,A0_1*%
%TO.N,/Vcc*%
X74136500Y-66167000D03*
%TO.P,U1,2,A1_2*%
X74136500Y-67437000D03*
%TO.P,U1,3,A2_3*%
X74136500Y-68707000D03*
%TO.P,U1,4,GND_4*%
%TO.N,GND*%
X74136500Y-69977000D03*
%TO.P,U1,5,SDA_5*%
%TO.N,/SDA*%
X81311500Y-69977000D03*
%TO.P,U1,6,SCL_6*%
%TO.N,/SCK*%
X81311500Y-68707000D03*
%TO.P,U1,7,WP_7*%
%TO.N,GND*%
X81311500Y-67437000D03*
%TO.P,U1,8,VCC_8*%
%TO.N,/Vcc*%
X81311500Y-66167000D03*
%TD*%
D17*
%TO.P,C5,1*%
%TO.N,Net-(BT1-+)*%
X54737000Y-70805000D03*
%TO.P,C5,2*%
%TO.N,GND*%
X54737000Y-72705000D03*
%TD*%
D11*
%TO.P,J2,1,Pin_1_1*%
%TO.N,/D2*%
X69977000Y-91186000D03*
D12*
%TO.P,J2,2,Pin_2_2*%
%TO.N,/D3*%
X72517000Y-91186000D03*
%TO.P,J2,3,Pin_3_3*%
%TO.N,/D4*%
X75057000Y-91186000D03*
%TO.P,J2,4,Pin_4_4*%
%TO.N,/D5*%
X77597000Y-91186000D03*
%TO.P,J2,5,Pin_5_5*%
%TO.N,/D6*%
X80137000Y-91186000D03*
%TO.P,J2,6,Pin_6_6*%
%TO.N,/D7*%
X82677000Y-91186000D03*
%TO.P,J2,7,Pin_7_7*%
%TO.N,/D8*%
X85217000Y-91186000D03*
%TO.P,J2,8,Pin_8_8*%
%TO.N,GND*%
X87757000Y-91186000D03*
%TO.P,J2,9,Pin_9_9*%
%TO.N,/Vcc*%
X90297000Y-91186000D03*
%TD*%
D17*
%TO.P,C3,1*%
%TO.N,Net-(U4-PB7)*%
X56261000Y-84521000D03*
%TO.P,C3,2*%
%TO.N,GND*%
X56261000Y-86421000D03*
%TD*%
D16*
%TO.P,R2,1*%
%TO.N,/Vcc*%
X86360000Y-86535500D03*
%TO.P,R2,2*%
%TO.N,Net-(U3-SQW{slash}~INT)*%
X86360000Y-84660500D03*
%TD*%
D18*
%TO.P,U4,1,PD3_1*%
%TO.N,/D3*%
X60346000Y-73527000D03*
%TO.P,U4,2,PD4_2*%
%TO.N,/D4*%
X60346000Y-74327000D03*
%TO.P,U4,3,GND_3*%
%TO.N,GND*%
X60346000Y-75127000D03*
%TO.P,U4,4,VCC_4*%
%TO.N,Net-(BT1-+)*%
X60346000Y-75927000D03*
%TO.P,U4,5,GND_5*%
%TO.N,GND*%
X60346000Y-76727000D03*
%TO.P,U4,6,VCC_6*%
%TO.N,unconnected-(U4-VCC-Pad6)*%
X60346000Y-77527000D03*
%TO.P,U4,7,PB6_7*%
%TO.N,Net-(U4-PB6)*%
X60346000Y-78327000D03*
%TO.P,U4,8,PB7_8*%
%TO.N,Net-(U4-PB7)*%
X60346000Y-79127000D03*
D19*
%TO.P,U4,9,PD5_9*%
%TO.N,/D5*%
X61716000Y-80497000D03*
%TO.P,U4,10,PD6_10*%
%TO.N,/D6*%
X62516000Y-80497000D03*
%TO.P,U4,11,PD7_11*%
%TO.N,/D7*%
X63316000Y-80497000D03*
%TO.P,U4,12,PB0_12*%
%TO.N,/D8*%
X64116000Y-80497000D03*
%TO.P,U4,13,PB1_13*%
%TO.N,unconnected-(U4-PB1-Pad13)*%
X64916000Y-80497000D03*
%TO.P,U4,14,PB2_14*%
%TO.N,unconnected-(U4-PB2-Pad14)*%
X65716000Y-80497000D03*
%TO.P,U4,15,PB3_15*%
%TO.N,/MOSI*%
X66516000Y-80497000D03*
%TO.P,U4,16,PB4_16*%
%TO.N,/MISO*%
X67316000Y-80497000D03*
D18*
%TO.P,U4,17,PB5_17*%
%TO.N,/SCK*%
X68686000Y-79127000D03*
%TO.P,U4,18,AVCC_18*%
%TO.N,Net-(BT1-+)*%
X68686000Y-78327000D03*
%TO.P,U4,19,ADC6_19*%
%TO.N,unconnected-(U4-ADC6-Pad19)*%
X68686000Y-77527000D03*
%TO.P,U4,20,AREF_20*%
%TO.N,Net-(U4-AREF)*%
X68686000Y-76727000D03*
%TO.P,U4,21,GND_21*%
%TO.N,GND*%
X68686000Y-75927000D03*
%TO.P,U4,22,ADC7_22*%
%TO.N,unconnected-(U4-ADC7-Pad22)*%
X68686000Y-75127000D03*
%TO.P,U4,23,PC0_23*%
%TO.N,unconnected-(U4-PC0-Pad23)*%
X68686000Y-74327000D03*
%TO.P,U4,24,PC1_24*%
%TO.N,unconnected-(U4-PC1-Pad24)*%
X68686000Y-73527000D03*
D19*
%TO.P,U4,25,PC2_25*%
%TO.N,unconnected-(U4-PC2-Pad25)*%
X67316000Y-72157000D03*
%TO.P,U4,26,PC3_26*%
%TO.N,unconnected-(U4-PC3-Pad26)*%
X66516000Y-72157000D03*
%TO.P,U4,27,PC4_27*%
%TO.N,/SDA*%
X65716000Y-72157000D03*
%TO.P,U4,28,PC5_28*%
%TO.N,/SCK*%
X64916000Y-72157000D03*
%TO.P,U4,29,PC6/~{RESET}_29*%
%TO.N,/RESET*%
X64116000Y-72157000D03*
%TO.P,U4,30,PD0_30*%
%TO.N,/RX*%
X63316000Y-72157000D03*
%TO.P,U4,31,PD1_31*%
%TO.N,/TX*%
X62516000Y-72157000D03*
%TO.P,U4,32,PD2_32*%
%TO.N,/D2*%
X61716000Y-72157000D03*
%TD*%
D20*
%TO.P,D1,1,K_1*%
%TO.N,Net-(D1-K)*%
X74343500Y-82169000D03*
%TO.P,D1,2,A_2*%
%TO.N,/SCK*%
X72468500Y-82169000D03*
%TD*%
D13*
%TO.P,R3,1*%
%TO.N,/Vcc*%
X92280500Y-74676000D03*
%TO.P,R3,2*%
%TO.N,/SDA*%
X94155500Y-74676000D03*
%TD*%
D21*
%TO.P,C4,1*%
%TO.N,GND*%
X74356000Y-73533000D03*
%TO.P,C4,2*%
%TO.N,Net-(U4-AREF)*%
X72456000Y-73533000D03*
%TD*%
D13*
%TO.P,R7,1*%
%TO.N,Net-(D2-K)*%
X72468500Y-84582000D03*
%TO.P,R7,2*%
%TO.N,GND*%
X74343500Y-84582000D03*
%TD*%
D20*
%TO.P,R6,1*%
%TO.N,/Vcc*%
X62405500Y-68707000D03*
%TO.P,R6,2*%
%TO.N,/RESET*%
X60530500Y-68707000D03*
%TD*%
D13*
%TO.P,R5,1*%
%TO.N,GND*%
X72468500Y-75692000D03*
%TO.P,R5,2*%
%TO.N,Net-(D1-K)*%
X74343500Y-75692000D03*
%TD*%
D22*
%TO.P,Y1,1,1_1*%
%TO.N,Net-(U3-X2)*%
X77851000Y-83499000D03*
%TO.P,Y1,2,2_2*%
%TO.N,Net-(U3-X1)*%
X77851000Y-78299000D03*
%TD*%
%TO.P,Y2,1,1_1*%
%TO.N,Net-(U4-PB7)*%
X50927000Y-84896000D03*
%TO.P,Y2,2,2_2*%
%TO.N,Net-(U4-PB6)*%
X50927000Y-79696000D03*
%TD*%
D23*
%TO.N,GND*%
X94600000Y-71350000D03*
X92700000Y-67600000D03*
X54350000Y-87200000D03*
X58750000Y-76750000D03*
X54750000Y-75150000D03*
X82750000Y-67450000D03*
X88850000Y-82900000D03*
X90650000Y-86600000D03*
X54450000Y-82850000D03*
X76350000Y-73550000D03*
X83504000Y-82646000D03*
X72150000Y-69450000D03*
X92350000Y-71300000D03*
X66450000Y-75950000D03*
X86250000Y-70000000D03*
%TO.N,/SDA*%
X93472000Y-70104000D03*
X90297000Y-81661000D03*
%TO.N,/SCK*%
X64900000Y-73700000D03*
X67350000Y-79150000D03*
X93345000Y-68580000D03*
%TO.N,Net-(BT1-+)*%
X74200000Y-79800000D03*
X70050000Y-78350000D03*
%TO.N,/MISO*%
X70100000Y-83850000D03*
%TO.N,/MOSI*%
X69100000Y-83950000D03*
%TO.N,/RX*%
X63400000Y-70400000D03*
%TO.N,/TX*%
X62600000Y-87500000D03*
X62600000Y-70400000D03*
%TO.N,/D2*%
X61750000Y-86900000D03*
X61750000Y-70400000D03*
%TO.N,/D3*%
X60650000Y-86150000D03*
X60650000Y-72400000D03*
%TO.N,/D4*%
X59900000Y-85250000D03*
X58950000Y-72400000D03*
%TO.N,/D5*%
X64500000Y-84200000D03*
X77600000Y-89200000D03*
%TO.N,/D6*%
X65600000Y-84150000D03*
X78700000Y-89150000D03*
%TO.N,/D7*%
X66800000Y-84150000D03*
X79900000Y-89150000D03*
%TO.N,/D8*%
X67950000Y-84150000D03*
X81050000Y-89150000D03*
%TD*%
%TO.N,/Vcc*%
D24*
X74136500Y-66167000D02*
X74136500Y-67437000D01*
X94312500Y-72644000D02*
X97155000Y-72644000D01*
X91344500Y-66167000D02*
X92156999Y-66167000D01*
X88821500Y-86535500D02*
X86360000Y-86535500D01*
X92156999Y-66167000D02*
X94500000Y-68510001D01*
X91344500Y-66167000D02*
X84169500Y-66167000D01*
X88900000Y-86548000D02*
X88834000Y-86548000D01*
X85360000Y-79960000D02*
X87469000Y-77851000D01*
X97150000Y-81280000D02*
X96997768Y-81280000D01*
X94500000Y-68510001D02*
X94500000Y-69989000D01*
X87469000Y-77851000D02*
X88454000Y-77851000D01*
X84169500Y-68707000D02*
X84709000Y-68707000D01*
X59436000Y-91186000D02*
X60586000Y-92336000D01*
X90297000Y-87945000D02*
X88900000Y-86548000D01*
X85360000Y-84868500D02*
X85360000Y-79960000D01*
X83693000Y-86535500D02*
X85360000Y-84868500D01*
X74136500Y-67437000D02*
X74136500Y-68707000D01*
X96997768Y-81280000D02*
X92679768Y-76962000D01*
X81311500Y-66167000D02*
X84169500Y-66167000D01*
X89147000Y-92336000D02*
X90297000Y-91186000D01*
X83693000Y-86535500D02*
X86360000Y-86535500D01*
X92280500Y-74676000D02*
X94312500Y-72644000D01*
X92280500Y-76962000D02*
X89343000Y-76962000D01*
X94500000Y-69989000D02*
X97155000Y-72644000D01*
X81311500Y-66167000D02*
X74136500Y-66167000D01*
X64945500Y-66167000D02*
X62405500Y-68707000D01*
X84709000Y-68707000D02*
X85598000Y-67818000D01*
X92280500Y-76962000D02*
X92280500Y-74676000D01*
X74136500Y-66167000D02*
X64945500Y-66167000D01*
X90297000Y-91186000D02*
X90297000Y-87945000D01*
X89343000Y-76962000D02*
X88454000Y-77851000D01*
X84836000Y-66167000D02*
X84169500Y-66167000D01*
X85598000Y-66929000D02*
X84836000Y-66167000D01*
X88834000Y-86548000D02*
X88821500Y-86535500D01*
X92679768Y-76962000D02*
X92280500Y-76962000D01*
X85598000Y-67818000D02*
X85598000Y-66929000D01*
X60586000Y-92336000D02*
X89147000Y-92336000D01*
%TO.N,GND*%
X67423000Y-75927000D02*
X66473000Y-75927000D01*
X58773000Y-76727000D02*
X58750000Y-76750000D01*
X88900000Y-82950000D02*
X88850000Y-82900000D01*
X68686000Y-75927000D02*
X67423000Y-75927000D01*
X81311500Y-67437000D02*
X82737000Y-67437000D01*
X86227000Y-69977000D02*
X86250000Y-70000000D01*
X54689000Y-82611000D02*
X54450000Y-82850000D01*
X88900000Y-84648000D02*
X88900000Y-84850000D01*
X82763000Y-67437000D02*
X82750000Y-67450000D01*
X74136500Y-69977000D02*
X72677000Y-69977000D01*
X88900000Y-84850000D02*
X90650000Y-86600000D01*
X72468500Y-75420500D02*
X74356000Y-73533000D01*
X55129000Y-86421000D02*
X54350000Y-87200000D01*
X66473000Y-75927000D02*
X66450000Y-75950000D01*
X72468500Y-75692000D02*
X72468500Y-75420500D01*
X60346000Y-75127000D02*
X65627000Y-75127000D01*
X82737000Y-67437000D02*
X82750000Y-67450000D01*
X60346000Y-76727000D02*
X58773000Y-76727000D01*
X91707500Y-67800000D02*
X91344500Y-67437000D01*
X67423000Y-75927000D02*
X67400000Y-75950000D01*
X92400000Y-71350000D02*
X94600000Y-71350000D01*
X92350000Y-71300000D02*
X92400000Y-71350000D01*
X65627000Y-75127000D02*
X66450000Y-75950000D01*
X74343500Y-84582000D02*
X75310500Y-85549000D01*
X56261000Y-86421000D02*
X55129000Y-86421000D01*
X54737000Y-72705000D02*
X54737000Y-75137000D01*
X83504000Y-81661000D02*
X83504000Y-82646000D01*
X84169500Y-67437000D02*
X82763000Y-67437000D01*
X56261000Y-82611000D02*
X54689000Y-82611000D01*
X84169500Y-69977000D02*
X86227000Y-69977000D01*
X54737000Y-75137000D02*
X54750000Y-75150000D01*
X92500000Y-67800000D02*
X91707500Y-67800000D01*
X72677000Y-69977000D02*
X72150000Y-69450000D01*
X74356000Y-73533000D02*
X76333000Y-73533000D01*
X76333000Y-73533000D02*
X76350000Y-73550000D01*
X75310500Y-85549000D02*
X80601000Y-85549000D01*
X80601000Y-85549000D02*
X83504000Y-82646000D01*
X88900000Y-84648000D02*
X88900000Y-82950000D01*
X92700000Y-67600000D02*
X92500000Y-67800000D01*
%TO.N,/SDA*%
X97155000Y-75184000D02*
X94663500Y-75184000D01*
X81936500Y-70602000D02*
X90719500Y-70602000D01*
X81311500Y-69977000D02*
X81936500Y-70602000D01*
X90719500Y-70602000D02*
X91344500Y-69977000D01*
X93345000Y-69977000D02*
X91344500Y-69977000D01*
X65716000Y-71422000D02*
X66536000Y-70602000D01*
X66536000Y-70602000D02*
X80686500Y-70602000D01*
X80686500Y-70602000D02*
X81311500Y-69977000D01*
X93472000Y-70104000D02*
X93345000Y-69977000D01*
X94663500Y-75184000D02*
X94155500Y-74676000D01*
X65716000Y-72157000D02*
X65716000Y-71422000D01*
X88454000Y-81661000D02*
X90297000Y-81661000D01*
%TO.N,/SCK*%
X91181000Y-80391000D02*
X94610000Y-83820000D01*
X81311500Y-68707000D02*
X80686500Y-69332000D01*
X88454000Y-80391000D02*
X91181000Y-80391000D01*
X72750000Y-68850000D02*
X67488000Y-68850000D01*
X93345000Y-68580000D02*
X93218000Y-68707000D01*
X64916000Y-71422000D02*
X64916000Y-72157000D01*
X69426500Y-79127000D02*
X68686000Y-79127000D01*
X64900000Y-73700000D02*
X64900000Y-72173000D01*
X72468500Y-82169000D02*
X69426500Y-79127000D01*
X68686000Y-79127000D02*
X67373000Y-79127000D01*
X91344500Y-68707000D02*
X90719500Y-69332000D01*
X80686500Y-69332000D02*
X73232000Y-69332000D01*
X67488000Y-68850000D02*
X64916000Y-71422000D01*
X97155000Y-77724000D02*
X94917500Y-77724000D01*
X94917500Y-77724000D02*
X94155500Y-76962000D01*
X93218000Y-68707000D02*
X91344500Y-68707000D01*
X73232000Y-69332000D02*
X72750000Y-68850000D01*
X81936500Y-69332000D02*
X81311500Y-68707000D01*
X67373000Y-79127000D02*
X67350000Y-79150000D01*
X64900000Y-72173000D02*
X64916000Y-72157000D01*
X90719500Y-69332000D02*
X81936500Y-69332000D01*
%TO.N,Net-(BT1-+)*%
X51181000Y-70485000D02*
X51501000Y-70805000D01*
X74343500Y-77724000D02*
X74343500Y-79656500D01*
X74343500Y-79656500D02*
X74200000Y-79800000D01*
X70027000Y-78327000D02*
X70050000Y-78350000D01*
X59611000Y-75927000D02*
X60346000Y-75927000D01*
X68686000Y-78327000D02*
X70027000Y-78327000D01*
X51054000Y-70485000D02*
X51181000Y-70485000D01*
X60941896Y-75927000D02*
X60346000Y-75927000D01*
X51501000Y-70805000D02*
X54737000Y-70805000D01*
X54737000Y-70805000D02*
X54737000Y-71053000D01*
X54737000Y-71053000D02*
X59611000Y-75927000D01*
X68686000Y-78327000D02*
X63341896Y-78327000D01*
X63341896Y-78327000D02*
X60941896Y-75927000D01*
%TO.N,Net-(U3-X1)*%
X78299000Y-77851000D02*
X77851000Y-78299000D01*
X83504000Y-77851000D02*
X78299000Y-77851000D01*
%TO.N,Net-(U3-X2)*%
X83504000Y-79121000D02*
X82229000Y-79121000D01*
X82229000Y-79121000D02*
X77851000Y-83499000D01*
%TO.N,Net-(U3-~{INTA})*%
X83897106Y-80391000D02*
X84789000Y-81282894D01*
X84789000Y-83564500D02*
X83693000Y-84660500D01*
X84789000Y-81282894D02*
X84789000Y-83564500D01*
X83504000Y-80391000D02*
X83897106Y-80391000D01*
%TO.N,Net-(U3-SQW{slash}~INT)*%
X87469000Y-79121000D02*
X86360000Y-80230000D01*
X88454000Y-79121000D02*
X87469000Y-79121000D01*
X86360000Y-80230000D02*
X86360000Y-84660500D01*
%TO.N,Net-(D2-K)*%
X73256000Y-83794500D02*
X73256000Y-78511500D01*
X73256000Y-78511500D02*
X72468500Y-77724000D01*
X72468500Y-84582000D02*
X73256000Y-83794500D01*
%TO.N,/MISO*%
X70100000Y-83281000D02*
X70100000Y-83850000D01*
X67316000Y-80497000D02*
X70100000Y-83281000D01*
%TO.N,/MOSI*%
X66516000Y-80497000D02*
X66516000Y-81366000D01*
X66516000Y-81366000D02*
X69100000Y-83950000D01*
%TO.N,/RESET*%
X95602576Y-68954000D02*
X92190576Y-65542000D01*
X98305000Y-68954000D02*
X95602576Y-68954000D01*
X61530500Y-69707000D02*
X60530500Y-68707000D01*
X96000000Y-84970000D02*
X96000000Y-83103654D01*
X98305000Y-81751346D02*
X98305000Y-68954000D01*
X64116000Y-72157000D02*
X64116000Y-70267471D01*
X63695500Y-65542000D02*
X60530500Y-68707000D01*
X63555529Y-69707000D02*
X61530500Y-69707000D01*
X92190576Y-65542000D02*
X63695500Y-65542000D01*
X97626346Y-82430000D02*
X98305000Y-81751346D01*
X96000000Y-83103654D02*
X96673654Y-82430000D01*
X96673654Y-82430000D02*
X97626346Y-82430000D01*
X94610000Y-86360000D02*
X96000000Y-84970000D01*
X64116000Y-70267471D02*
X63555529Y-69707000D01*
%TO.N,/RX*%
X63400000Y-70400000D02*
X63400000Y-72073000D01*
X63400000Y-72073000D02*
X63316000Y-72157000D01*
%TO.N,/TX*%
X64516000Y-88917471D02*
X64516000Y-91186000D01*
X62600000Y-87500000D02*
X63098529Y-87500000D01*
X62600000Y-70400000D02*
X62600000Y-72073000D01*
X63098529Y-87500000D02*
X64516000Y-88917471D01*
X62600000Y-72073000D02*
X62516000Y-72157000D01*
%TO.N,Net-(U4-PB6)*%
X50927000Y-79696000D02*
X55246000Y-79696000D01*
X55246000Y-79696000D02*
X56261000Y-80711000D01*
X58645000Y-78327000D02*
X60346000Y-78327000D01*
X56261000Y-80711000D02*
X58645000Y-78327000D01*
%TO.N,/D2*%
X67300000Y-89600000D02*
X64600000Y-86900000D01*
X69977000Y-91186000D02*
X68886000Y-91186000D01*
X61750000Y-70400000D02*
X61750000Y-72123000D01*
X61750000Y-72123000D02*
X61716000Y-72157000D01*
X68886000Y-91186000D02*
X67300000Y-89600000D01*
X64600000Y-86900000D02*
X61750000Y-86900000D01*
%TO.N,/D3*%
X72517000Y-91186000D02*
X67481000Y-86150000D01*
X67481000Y-86150000D02*
X60650000Y-86150000D01*
X60650000Y-72400000D02*
X60650000Y-73223000D01*
X60650000Y-73223000D02*
X60346000Y-73527000D01*
%TO.N,/D4*%
X75057000Y-91186000D02*
X69121000Y-85250000D01*
X69121000Y-85250000D02*
X59900000Y-85250000D01*
X58950000Y-72400000D02*
X58950000Y-73526896D01*
X58950000Y-73526896D02*
X59750104Y-74327000D01*
X59750104Y-74327000D02*
X60346000Y-74327000D01*
%TO.N,/D5*%
X61716000Y-81416000D02*
X61716000Y-80497000D01*
X64500000Y-84200000D02*
X61716000Y-81416000D01*
X77597000Y-91186000D02*
X77597000Y-89203000D01*
X77597000Y-89203000D02*
X77600000Y-89200000D01*
%TO.N,/D6*%
X65573104Y-84150000D02*
X62516000Y-81092896D01*
X65600000Y-84150000D02*
X65573104Y-84150000D01*
X62516000Y-81092896D02*
X62516000Y-80497000D01*
X80137000Y-91186000D02*
X78700000Y-89749000D01*
X78700000Y-89749000D02*
X78700000Y-89150000D01*
%TO.N,/D7*%
X66800000Y-84150000D02*
X66200000Y-83550000D01*
X66200000Y-83550000D02*
X65600000Y-83550000D01*
X63316000Y-81266000D02*
X63316000Y-80497000D01*
X65600000Y-83550000D02*
X63316000Y-81266000D01*
X82677000Y-91186000D02*
X81936000Y-91186000D01*
X81936000Y-91186000D02*
X79900000Y-89150000D01*
%TO.N,/D8*%
X64116000Y-81232000D02*
X64116000Y-80497000D01*
X83181000Y-89150000D02*
X81050000Y-89150000D01*
X67950000Y-84150000D02*
X65332000Y-81532000D01*
X64416000Y-81532000D02*
X64116000Y-81232000D01*
X85217000Y-91186000D02*
X83181000Y-89150000D01*
X65332000Y-81532000D02*
X64416000Y-81532000D01*
%TO.N,Net-(U4-PB7)*%
X60346000Y-80436000D02*
X60346000Y-79127000D01*
X50927000Y-84896000D02*
X55886000Y-84896000D01*
X55886000Y-84896000D02*
X56261000Y-84521000D01*
X56261000Y-84521000D02*
X60346000Y-80436000D01*
%TO.N,Net-(U4-AREF)*%
X72456000Y-73533000D02*
X72456000Y-73692000D01*
X69421000Y-76727000D02*
X68686000Y-76727000D01*
X72456000Y-73692000D02*
X69421000Y-76727000D01*
%TO.N,Net-(D1-K)*%
X74343500Y-82169000D02*
X75131000Y-81381500D01*
X75131000Y-81381500D02*
X75131000Y-76479500D01*
X75131000Y-76479500D02*
X74343500Y-75692000D01*
%TD*%
M02*
