%TF.GenerationSoftware,KiCad,Pcbnew,10.0.4*%
%TF.CreationDate,2026-08-08T20:31:35+03:00*%
%TF.ProjectId,MCU_Datalogger,4d43555f-4461-4746-916c-6f676765722e,1*%
%TF.SameCoordinates,Original*%
%TF.FileFunction,Legend,Bot*%
%TF.FilePolarity,Positive*%
%FSLAX46Y46*%
G04 Gerber Fmt 4.6, Leading zero omitted, Abs format (unit mm)*
G04 Created by KiCad (PCBNEW 10.0.4) date 2026-08-08 20:31:35*
%MOMM*%
%LPD*%
G01*
G04 APERTURE LIST*
%ADD10C,0.010000*%
G04 APERTURE END LIST*
D10*
%TO.C,REF\u002A\u002A*%
X78961386Y-76525877D02*
X78937673Y-76540647D01*
X78911022Y-76562227D01*
X78911022Y-76883773D01*
X78911107Y-76977830D01*
X78911471Y-77051932D01*
X78912276Y-77108704D01*
X78913687Y-77150768D01*
X78915867Y-77180748D01*
X78918979Y-77201267D01*
X78923186Y-77214949D01*
X78928652Y-77224416D01*
X78932528Y-77229082D01*
X78963966Y-77249575D01*
X78999767Y-77248739D01*
X79031127Y-77231264D01*
X79057778Y-77209684D01*
X79057778Y-76562227D01*
X79031127Y-76540647D01*
X79005406Y-76524949D01*
X78984400Y-76519067D01*
X78961386Y-76525877D01*
G36*
X79005406Y-76524949D02*
G01*
X79031127Y-76540647D01*
X79057778Y-76562227D01*
X79057778Y-77209684D01*
X79031127Y-77231264D01*
X78999767Y-77248739D01*
X78963966Y-77249575D01*
X78932528Y-77229082D01*
X78928652Y-77224416D01*
X78923186Y-77214949D01*
X78918979Y-77201267D01*
X78915867Y-77180748D01*
X78913687Y-77150768D01*
X78912276Y-77108704D01*
X78911471Y-77051932D01*
X78911107Y-76977830D01*
X78911022Y-76883773D01*
X78911022Y-76562227D01*
X78937673Y-76540647D01*
X78961386Y-76525877D01*
X78984400Y-76519067D01*
X79005406Y-76524949D01*
G37*
X86073822Y-76541645D02*
X86067242Y-76549218D01*
X86062079Y-76558987D01*
X86058164Y-76573571D01*
X86055324Y-76595585D01*
X86053387Y-76627648D01*
X86052183Y-76672375D01*
X86051539Y-76732385D01*
X86051284Y-76810294D01*
X86051245Y-76885956D01*
X86051314Y-76979802D01*
X86051638Y-77053689D01*
X86052386Y-77110232D01*
X86053732Y-77152049D01*
X86055846Y-77181757D01*
X86058900Y-77201973D01*
X86063066Y-77215314D01*
X86068516Y-77224398D01*
X86073822Y-77230267D01*
X86106826Y-77249947D01*
X86141991Y-77248181D01*
X86173455Y-77226717D01*
X86180684Y-77218337D01*
X86186334Y-77208614D01*
X86190599Y-77194861D01*
X86193673Y-77174389D01*
X86195752Y-77144512D01*
X86197030Y-77102541D01*
X86197701Y-77045789D01*
X86197959Y-76971567D01*
X86198000Y-76887537D01*
X86198000Y-76574485D01*
X86170291Y-76546776D01*
X86136137Y-76523463D01*
X86103006Y-76522623D01*
X86073822Y-76541645D01*
G36*
X86136137Y-76523463D02*
G01*
X86170291Y-76546776D01*
X86198000Y-76574485D01*
X86198000Y-76887537D01*
X86197959Y-76971567D01*
X86197701Y-77045789D01*
X86197030Y-77102541D01*
X86195752Y-77144512D01*
X86193673Y-77174389D01*
X86190599Y-77194861D01*
X86186334Y-77208614D01*
X86180684Y-77218337D01*
X86173455Y-77226717D01*
X86141991Y-77248181D01*
X86106826Y-77249947D01*
X86073822Y-77230267D01*
X86068516Y-77224398D01*
X86063066Y-77215314D01*
X86058900Y-77201973D01*
X86055846Y-77181757D01*
X86053732Y-77152049D01*
X86052386Y-77110232D01*
X86051638Y-77053689D01*
X86051314Y-76979802D01*
X86051245Y-76885956D01*
X86051284Y-76810294D01*
X86051539Y-76732385D01*
X86052183Y-76672375D01*
X86053387Y-76627648D01*
X86055324Y-76595585D01*
X86058164Y-76573571D01*
X86062079Y-76558987D01*
X86067242Y-76549218D01*
X86073822Y-76541645D01*
X86103006Y-76522623D01*
X86136137Y-76523463D01*
G37*
X85423043Y-71276571D02*
X85326768Y-71300809D01*
X85240184Y-71343641D01*
X85165373Y-71403419D01*
X85104418Y-71478494D01*
X85059399Y-71567220D01*
X85033136Y-71663530D01*
X85027286Y-71760795D01*
X85042140Y-71854654D01*
X85075840Y-71942511D01*
X85126528Y-72021770D01*
X85192345Y-72089836D01*
X85271434Y-72144112D01*
X85361934Y-72182002D01*
X85413200Y-72194426D01*
X85457698Y-72201947D01*
X85491999Y-72204919D01*
X85524960Y-72203094D01*
X85565434Y-72196225D01*
X85598531Y-72189250D01*
X85691947Y-72157741D01*
X85775619Y-72106617D01*
X85847665Y-72037429D01*
X85906200Y-71951728D01*
X85920148Y-71924489D01*
X85936586Y-71888122D01*
X85946894Y-71857582D01*
X85952460Y-71825450D01*
X85954669Y-71784307D01*
X85954948Y-71738222D01*
X85950861Y-71653865D01*
X85937446Y-71584586D01*
X85912256Y-71523961D01*
X85872846Y-71465567D01*
X85834298Y-71421302D01*
X85762406Y-71355484D01*
X85687313Y-71310053D01*
X85604562Y-71282850D01*
X85526928Y-71272576D01*
X85423043Y-71276571D01*
G36*
X85604562Y-71282850D02*
G01*
X85687313Y-71310053D01*
X85762406Y-71355484D01*
X85834298Y-71421302D01*
X85872846Y-71465567D01*
X85912256Y-71523961D01*
X85937446Y-71584586D01*
X85950861Y-71653865D01*
X85954948Y-71738222D01*
X85954669Y-71784307D01*
X85952460Y-71825450D01*
X85946894Y-71857582D01*
X85936586Y-71888122D01*
X85920148Y-71924489D01*
X85906200Y-71951728D01*
X85847665Y-72037429D01*
X85775619Y-72106617D01*
X85691947Y-72157741D01*
X85598531Y-72189250D01*
X85565434Y-72196225D01*
X85524960Y-72203094D01*
X85491999Y-72204919D01*
X85457698Y-72201947D01*
X85413200Y-72194426D01*
X85361934Y-72182002D01*
X85271434Y-72144112D01*
X85192345Y-72089836D01*
X85126528Y-72021770D01*
X85075840Y-71942511D01*
X85042140Y-71854654D01*
X85027286Y-71760795D01*
X85033136Y-71663530D01*
X85059399Y-71567220D01*
X85104418Y-71478494D01*
X85165373Y-71403419D01*
X85240184Y-71343641D01*
X85326768Y-71300809D01*
X85423043Y-71276571D01*
X85526928Y-71272576D01*
X85604562Y-71282850D01*
G37*
X78186935Y-76519163D02*
X78108228Y-76519542D01*
X78047137Y-76520333D01*
X78001183Y-76521670D01*
X77967886Y-76523683D01*
X77944764Y-76526506D01*
X77929338Y-76530269D01*
X77919129Y-76535105D01*
X77914187Y-76538822D01*
X77888543Y-76571358D01*
X77885441Y-76605138D01*
X77901289Y-76635826D01*
X77911652Y-76648089D01*
X77922804Y-76656450D01*
X77938965Y-76661657D01*
X77964358Y-76664457D01*
X78003202Y-76665596D01*
X78059720Y-76665821D01*
X78070820Y-76665822D01*
X78216756Y-76665822D01*
X78216756Y-76936756D01*
X78216852Y-77022154D01*
X78217289Y-77087864D01*
X78218288Y-77136774D01*
X78220072Y-77171773D01*
X78222863Y-77195749D01*
X78226883Y-77211593D01*
X78232355Y-77222191D01*
X78239334Y-77230267D01*
X78272266Y-77250112D01*
X78306646Y-77248548D01*
X78337824Y-77225906D01*
X78340114Y-77223100D01*
X78347571Y-77212492D01*
X78353253Y-77200081D01*
X78357399Y-77182850D01*
X78360250Y-77157784D01*
X78362046Y-77121867D01*
X78363028Y-77072083D01*
X78363436Y-77005417D01*
X78363511Y-76929589D01*
X78363511Y-76665822D01*
X78502873Y-76665822D01*
X78562678Y-76665418D01*
X78604082Y-76663840D01*
X78631252Y-76660547D01*
X78648354Y-76654992D01*
X78659557Y-76646631D01*
X78660917Y-76645178D01*
X78677275Y-76611939D01*
X78675828Y-76574362D01*
X78657022Y-76541645D01*
X78649750Y-76535298D01*
X78640373Y-76530266D01*
X78626391Y-76526396D01*
X78605304Y-76523537D01*
X78574611Y-76521535D01*
X78531811Y-76520239D01*
X78474405Y-76519498D01*
X78399890Y-76519158D01*
X78305767Y-76519068D01*
X78285740Y-76519067D01*
X78186935Y-76519163D01*
G36*
X78305767Y-76519068D02*
G01*
X78399890Y-76519158D01*
X78474405Y-76519498D01*
X78531811Y-76520239D01*
X78574611Y-76521535D01*
X78605304Y-76523537D01*
X78626391Y-76526396D01*
X78640373Y-76530266D01*
X78649750Y-76535298D01*
X78657022Y-76541645D01*
X78675828Y-76574362D01*
X78677275Y-76611939D01*
X78660917Y-76645178D01*
X78659557Y-76646631D01*
X78648354Y-76654992D01*
X78631252Y-76660547D01*
X78604082Y-76663840D01*
X78562678Y-76665418D01*
X78502873Y-76665822D01*
X78363511Y-76665822D01*
X78363511Y-76929589D01*
X78363436Y-77005417D01*
X78363028Y-77072083D01*
X78362046Y-77121867D01*
X78360250Y-77157784D01*
X78357399Y-77182850D01*
X78353253Y-77200081D01*
X78347571Y-77212492D01*
X78340114Y-77223100D01*
X78337824Y-77225906D01*
X78306646Y-77248548D01*
X78272266Y-77250112D01*
X78239334Y-77230267D01*
X78232355Y-77222191D01*
X78226883Y-77211593D01*
X78222863Y-77195749D01*
X78220072Y-77171773D01*
X78218288Y-77136774D01*
X78217289Y-77087864D01*
X78216852Y-77022154D01*
X78216756Y-76936756D01*
X78216756Y-76665822D01*
X78070820Y-76665822D01*
X78059720Y-76665821D01*
X78003202Y-76665596D01*
X77964358Y-76664457D01*
X77938965Y-76661657D01*
X77922804Y-76656450D01*
X77911652Y-76648089D01*
X77901289Y-76635826D01*
X77885441Y-76605138D01*
X77888543Y-76571358D01*
X77914187Y-76538822D01*
X77919129Y-76535105D01*
X77929338Y-76530269D01*
X77944764Y-76526506D01*
X77967886Y-76523683D01*
X78001183Y-76521670D01*
X78047137Y-76520333D01*
X78108228Y-76519542D01*
X78186935Y-76519163D01*
X78285740Y-76519067D01*
X78305767Y-76519068D01*
G37*
X76921177Y-76524533D02*
X76889798Y-76546776D01*
X76862089Y-76574485D01*
X76862089Y-76883920D01*
X76862162Y-76975799D01*
X76862505Y-77047840D01*
X76863308Y-77102780D01*
X76864759Y-77143360D01*
X76867048Y-77172317D01*
X76870364Y-77192391D01*
X76874895Y-77206321D01*
X76880831Y-77216845D01*
X76885486Y-77223100D01*
X76916217Y-77247673D01*
X76951504Y-77250341D01*
X76983755Y-77235271D01*
X76994412Y-77226374D01*
X77001536Y-77214557D01*
X77005833Y-77195526D01*
X77008009Y-77164992D01*
X77008772Y-77118662D01*
X77008845Y-77082871D01*
X77008845Y-76948045D01*
X77505556Y-76948045D01*
X77505556Y-77070700D01*
X77506069Y-77126787D01*
X77508124Y-77165333D01*
X77512492Y-77191361D01*
X77519944Y-77209897D01*
X77528953Y-77223100D01*
X77559856Y-77247604D01*
X77594804Y-77250506D01*
X77628262Y-77233089D01*
X77637396Y-77223959D01*
X77643848Y-77211855D01*
X77648103Y-77193001D01*
X77650648Y-77163620D01*
X77651971Y-77119937D01*
X77652557Y-77058175D01*
X77652625Y-77044000D01*
X77653109Y-76927631D01*
X77653359Y-76831727D01*
X77653277Y-76754177D01*
X77652769Y-76692869D01*
X77651738Y-76645690D01*
X77650087Y-76610530D01*
X77647721Y-76585276D01*
X77644543Y-76567817D01*
X77640456Y-76556041D01*
X77635366Y-76547835D01*
X77629734Y-76541645D01*
X77597872Y-76521844D01*
X77564643Y-76524533D01*
X77533265Y-76546776D01*
X77520567Y-76561126D01*
X77512474Y-76576978D01*
X77507958Y-76599554D01*
X77505994Y-76634078D01*
X77505556Y-76685776D01*
X77505556Y-76801289D01*
X77008845Y-76801289D01*
X77008845Y-76682756D01*
X77008338Y-76628148D01*
X77006302Y-76591275D01*
X77001965Y-76567307D01*
X76994553Y-76551415D01*
X76986267Y-76541645D01*
X76954406Y-76521844D01*
X76921177Y-76524533D01*
G36*
X77629734Y-76541645D02*
G01*
X77635366Y-76547835D01*
X77640456Y-76556041D01*
X77644543Y-76567817D01*
X77647721Y-76585276D01*
X77650087Y-76610530D01*
X77651738Y-76645690D01*
X77652769Y-76692869D01*
X77653277Y-76754177D01*
X77653359Y-76831727D01*
X77653109Y-76927631D01*
X77652625Y-77044000D01*
X77652557Y-77058175D01*
X77651971Y-77119937D01*
X77650648Y-77163620D01*
X77648103Y-77193001D01*
X77643848Y-77211855D01*
X77637396Y-77223959D01*
X77628262Y-77233089D01*
X77594804Y-77250506D01*
X77559856Y-77247604D01*
X77528953Y-77223100D01*
X77519944Y-77209897D01*
X77512492Y-77191361D01*
X77508124Y-77165333D01*
X77506069Y-77126787D01*
X77505556Y-77070700D01*
X77505556Y-76948045D01*
X77008845Y-76948045D01*
X77008845Y-77082871D01*
X77008772Y-77118662D01*
X77008009Y-77164992D01*
X77005833Y-77195526D01*
X77001536Y-77214557D01*
X76994412Y-77226374D01*
X76983755Y-77235271D01*
X76951504Y-77250341D01*
X76916217Y-77247673D01*
X76885486Y-77223100D01*
X76880831Y-77216845D01*
X76874895Y-77206321D01*
X76870364Y-77192391D01*
X76867048Y-77172317D01*
X76864759Y-77143360D01*
X76863308Y-77102780D01*
X76862505Y-77047840D01*
X76862162Y-76975799D01*
X76862089Y-76883920D01*
X76862089Y-76574485D01*
X76889798Y-76546776D01*
X76921177Y-76524533D01*
X76954406Y-76521844D01*
X76986267Y-76541645D01*
X76994553Y-76551415D01*
X77001965Y-76567307D01*
X77006302Y-76591275D01*
X77008338Y-76628148D01*
X77008845Y-76682756D01*
X77008845Y-76801289D01*
X77505556Y-76801289D01*
X77505556Y-76685776D01*
X77505994Y-76634078D01*
X77507958Y-76599554D01*
X77512474Y-76576978D01*
X77520567Y-76561126D01*
X77533265Y-76546776D01*
X77564643Y-76524533D01*
X77597872Y-76521844D01*
X77629734Y-76541645D01*
G37*
X82131691Y-76519275D02*
X82002712Y-76523636D01*
X81893009Y-76536861D01*
X81800774Y-76559741D01*
X81724198Y-76593070D01*
X81661473Y-76637638D01*
X81610788Y-76694236D01*
X81570337Y-76763658D01*
X81569541Y-76765351D01*
X81545399Y-76827483D01*
X81536797Y-76882509D01*
X81543769Y-76937887D01*
X81566346Y-77001073D01*
X81570628Y-77010689D01*
X81599828Y-77066966D01*
X81632644Y-77110451D01*
X81674998Y-77147417D01*
X81732810Y-77184135D01*
X81736169Y-77186052D01*
X81786496Y-77210227D01*
X81843379Y-77228282D01*
X81910473Y-77240839D01*
X81991435Y-77248522D01*
X82089918Y-77251953D01*
X82124714Y-77252251D01*
X82290406Y-77252845D01*
X82313803Y-77223100D01*
X82320743Y-77213319D01*
X82326158Y-77201897D01*
X82330235Y-77186095D01*
X82333163Y-77163175D01*
X82335133Y-77130396D01*
X82335775Y-77106089D01*
X82179156Y-77106089D01*
X82085274Y-77106089D01*
X82030336Y-77104483D01*
X81973940Y-77100255D01*
X81927655Y-77094292D01*
X81924861Y-77093790D01*
X81842652Y-77071736D01*
X81778886Y-77038600D01*
X81731548Y-76992847D01*
X81698618Y-76932939D01*
X81692892Y-76917061D01*
X81687279Y-76892333D01*
X81689709Y-76867902D01*
X81701533Y-76835400D01*
X81708660Y-76819434D01*
X81732000Y-76777006D01*
X81760120Y-76747240D01*
X81791060Y-76726511D01*
X81853034Y-76699537D01*
X81932349Y-76679998D01*
X82024747Y-76668746D01*
X82091667Y-76666270D01*
X82179156Y-76665822D01*
X82179156Y-77106089D01*
X82335775Y-77106089D01*
X82336332Y-77085021D01*
X82336950Y-77024311D01*
X82337175Y-76945526D01*
X82337200Y-76883920D01*
X82337200Y-76574485D01*
X82309491Y-76546776D01*
X82297194Y-76535544D01*
X82283897Y-76527853D01*
X82265328Y-76523040D01*
X82237214Y-76520446D01*
X82195283Y-76519410D01*
X82135263Y-76519270D01*
X82131691Y-76519275D01*
G36*
X82335133Y-77130396D02*
G01*
X82333163Y-77163175D01*
X82330235Y-77186095D01*
X82326158Y-77201897D01*
X82320743Y-77213319D01*
X82313803Y-77223100D01*
X82290406Y-77252845D01*
X82124714Y-77252251D01*
X82089918Y-77251953D01*
X81991435Y-77248522D01*
X81910473Y-77240839D01*
X81843379Y-77228282D01*
X81786496Y-77210227D01*
X81736169Y-77186052D01*
X81732810Y-77184135D01*
X81674998Y-77147417D01*
X81632644Y-77110451D01*
X81599828Y-77066966D01*
X81570628Y-77010689D01*
X81566346Y-77001073D01*
X81543769Y-76937887D01*
X81538034Y-76892333D01*
X81687279Y-76892333D01*
X81692892Y-76917061D01*
X81698618Y-76932939D01*
X81731548Y-76992847D01*
X81778886Y-77038600D01*
X81842652Y-77071736D01*
X81924861Y-77093790D01*
X81927655Y-77094292D01*
X81973940Y-77100255D01*
X82030336Y-77104483D01*
X82085274Y-77106089D01*
X82179156Y-77106089D01*
X82179156Y-76665822D01*
X82091667Y-76666270D01*
X82024747Y-76668746D01*
X81932349Y-76679998D01*
X81853034Y-76699537D01*
X81791060Y-76726511D01*
X81760120Y-76747240D01*
X81732000Y-76777006D01*
X81708660Y-76819434D01*
X81701533Y-76835400D01*
X81689709Y-76867902D01*
X81687279Y-76892333D01*
X81538034Y-76892333D01*
X81536797Y-76882509D01*
X81545399Y-76827483D01*
X81569541Y-76765351D01*
X81570337Y-76763658D01*
X81610788Y-76694236D01*
X81661473Y-76637638D01*
X81724198Y-76593070D01*
X81800774Y-76559741D01*
X81893009Y-76536861D01*
X82002712Y-76523636D01*
X82131691Y-76519275D01*
X82135263Y-76519270D01*
X82195283Y-76519410D01*
X82237214Y-76520446D01*
X82265328Y-76523040D01*
X82283897Y-76527853D01*
X82297194Y-76535544D01*
X82309491Y-76546776D01*
X82337200Y-76574485D01*
X82337200Y-76883920D01*
X82337175Y-76945526D01*
X82336950Y-77024311D01*
X82336332Y-77085021D01*
X82335775Y-77106089D01*
X82335133Y-77130396D01*
G37*
X89271371Y-76519066D02*
X89231889Y-76519467D01*
X89116200Y-76522259D01*
X89019311Y-76530550D01*
X88937919Y-76545232D01*
X88868723Y-76567193D01*
X88808420Y-76597322D01*
X88753708Y-76636510D01*
X88734167Y-76653532D01*
X88701750Y-76693363D01*
X88672520Y-76747413D01*
X88649991Y-76807323D01*
X88637679Y-76864739D01*
X88636400Y-76885956D01*
X88644417Y-76944769D01*
X88665899Y-77009013D01*
X88696999Y-77069821D01*
X88733866Y-77118330D01*
X88739854Y-77124182D01*
X88790579Y-77165321D01*
X88846125Y-77197435D01*
X88909696Y-77221365D01*
X88984494Y-77237953D01*
X89073722Y-77248041D01*
X89180582Y-77252469D01*
X89229528Y-77252845D01*
X89291762Y-77252545D01*
X89335528Y-77251292D01*
X89364931Y-77248554D01*
X89384079Y-77243801D01*
X89397077Y-77236501D01*
X89404045Y-77230267D01*
X89410626Y-77222694D01*
X89415788Y-77212924D01*
X89419703Y-77198340D01*
X89422543Y-77176326D01*
X89424480Y-77144264D01*
X89425684Y-77099536D01*
X89426328Y-77039526D01*
X89426583Y-76961617D01*
X89426622Y-76885956D01*
X89426870Y-76785041D01*
X89426817Y-76704427D01*
X89425857Y-76665822D01*
X89279867Y-76665822D01*
X89279867Y-77106089D01*
X89186734Y-77106004D01*
X89130693Y-77104396D01*
X89071999Y-77100256D01*
X89023028Y-77094464D01*
X89021538Y-77094226D01*
X88942392Y-77075090D01*
X88881002Y-77045287D01*
X88834305Y-77002878D01*
X88804635Y-76956961D01*
X88786353Y-76906026D01*
X88787771Y-76858200D01*
X88808988Y-76806933D01*
X88850489Y-76753899D01*
X88907998Y-76714600D01*
X88982750Y-76688331D01*
X89032708Y-76679035D01*
X89089416Y-76672507D01*
X89149519Y-76667782D01*
X89200639Y-76665817D01*
X89203667Y-76665808D01*
X89279867Y-76665822D01*
X89425857Y-76665822D01*
X89425260Y-76641851D01*
X89420998Y-76595055D01*
X89412830Y-76561778D01*
X89399556Y-76539759D01*
X89379974Y-76526739D01*
X89352883Y-76520457D01*
X89317082Y-76518653D01*
X89271371Y-76519066D01*
G36*
X89426817Y-76704427D02*
G01*
X89426870Y-76785041D01*
X89426622Y-76885956D01*
X89426583Y-76961617D01*
X89426328Y-77039526D01*
X89425684Y-77099536D01*
X89424480Y-77144264D01*
X89422543Y-77176326D01*
X89419703Y-77198340D01*
X89415788Y-77212924D01*
X89410626Y-77222694D01*
X89404045Y-77230267D01*
X89397077Y-77236501D01*
X89384079Y-77243801D01*
X89364931Y-77248554D01*
X89335528Y-77251292D01*
X89291762Y-77252545D01*
X89229528Y-77252845D01*
X89180582Y-77252469D01*
X89073722Y-77248041D01*
X88984494Y-77237953D01*
X88909696Y-77221365D01*
X88846125Y-77197435D01*
X88790579Y-77165321D01*
X88739854Y-77124182D01*
X88733866Y-77118330D01*
X88696999Y-77069821D01*
X88665899Y-77009013D01*
X88644417Y-76944769D01*
X88639136Y-76906026D01*
X88786353Y-76906026D01*
X88804635Y-76956961D01*
X88834305Y-77002878D01*
X88881002Y-77045287D01*
X88942392Y-77075090D01*
X89021538Y-77094226D01*
X89023028Y-77094464D01*
X89071999Y-77100256D01*
X89130693Y-77104396D01*
X89186734Y-77106004D01*
X89279867Y-77106089D01*
X89279867Y-76665822D01*
X89203667Y-76665808D01*
X89200639Y-76665817D01*
X89149519Y-76667782D01*
X89089416Y-76672507D01*
X89032708Y-76679035D01*
X88982750Y-76688331D01*
X88907998Y-76714600D01*
X88850489Y-76753899D01*
X88808988Y-76806933D01*
X88787771Y-76858200D01*
X88786353Y-76906026D01*
X88639136Y-76906026D01*
X88636400Y-76885956D01*
X88637679Y-76864739D01*
X88649991Y-76807323D01*
X88672520Y-76747413D01*
X88701750Y-76693363D01*
X88734167Y-76653532D01*
X88753708Y-76636510D01*
X88808420Y-76597322D01*
X88868723Y-76567193D01*
X88937919Y-76545232D01*
X89019311Y-76530550D01*
X89116200Y-76522259D01*
X89231889Y-76519467D01*
X89271371Y-76519066D01*
X89317082Y-76518653D01*
X89352883Y-76520457D01*
X89379974Y-76526739D01*
X89399556Y-76539759D01*
X89412830Y-76561778D01*
X89420998Y-76595055D01*
X89425260Y-76641851D01*
X89425857Y-76665822D01*
X89426817Y-76704427D01*
G37*
X84450114Y-76523448D02*
X84426548Y-76537273D01*
X84395735Y-76559881D01*
X84356078Y-76592338D01*
X84305980Y-76635708D01*
X84243843Y-76691058D01*
X84168072Y-76759451D01*
X84081334Y-76838084D01*
X83900711Y-77001878D01*
X83895067Y-76782029D01*
X83893029Y-76706351D01*
X83891063Y-76649994D01*
X83888734Y-76609706D01*
X83885606Y-76582235D01*
X83881245Y-76564329D01*
X83875216Y-76552737D01*
X83867084Y-76544208D01*
X83862772Y-76540623D01*
X83828241Y-76521670D01*
X83795383Y-76524441D01*
X83769318Y-76540633D01*
X83742667Y-76562199D01*
X83739352Y-76877151D01*
X83738435Y-76969779D01*
X83737968Y-77042544D01*
X83738113Y-77098161D01*
X83739032Y-77139342D01*
X83740887Y-77168803D01*
X83743839Y-77189255D01*
X83748050Y-77203413D01*
X83753682Y-77213991D01*
X83759927Y-77222474D01*
X83773439Y-77238207D01*
X83786883Y-77248636D01*
X83802124Y-77252639D01*
X83821026Y-77249094D01*
X83845455Y-77236879D01*
X83877273Y-77214871D01*
X83918348Y-77181949D01*
X83970542Y-77136991D01*
X84035722Y-77078875D01*
X84109556Y-77012099D01*
X84374845Y-76771458D01*
X84380489Y-76990589D01*
X84382531Y-77066128D01*
X84384502Y-77122354D01*
X84386839Y-77162524D01*
X84389981Y-77189896D01*
X84394364Y-77207728D01*
X84400424Y-77219279D01*
X84408600Y-77227807D01*
X84412784Y-77231282D01*
X84449765Y-77250372D01*
X84484708Y-77247493D01*
X84515136Y-77223100D01*
X84522097Y-77213286D01*
X84527523Y-77201826D01*
X84531603Y-77185968D01*
X84534529Y-77162963D01*
X84536492Y-77130062D01*
X84537683Y-77084516D01*
X84538292Y-77023573D01*
X84538511Y-76944486D01*
X84538534Y-76885956D01*
X84538460Y-76794407D01*
X84538113Y-76722687D01*
X84537301Y-76668045D01*
X84535833Y-76627732D01*
X84533519Y-76598998D01*
X84530167Y-76579093D01*
X84525588Y-76565268D01*
X84519589Y-76554772D01*
X84515136Y-76548811D01*
X84503850Y-76534691D01*
X84493301Y-76524029D01*
X84481893Y-76517892D01*
X84468030Y-76517343D01*
X84450114Y-76523448D01*
G36*
X84481893Y-76517892D02*
G01*
X84493301Y-76524029D01*
X84503850Y-76534691D01*
X84515136Y-76548811D01*
X84519589Y-76554772D01*
X84525588Y-76565268D01*
X84530167Y-76579093D01*
X84533519Y-76598998D01*
X84535833Y-76627732D01*
X84537301Y-76668045D01*
X84538113Y-76722687D01*
X84538460Y-76794407D01*
X84538534Y-76885956D01*
X84538511Y-76944486D01*
X84538292Y-77023573D01*
X84537683Y-77084516D01*
X84536492Y-77130062D01*
X84534529Y-77162963D01*
X84531603Y-77185968D01*
X84527523Y-77201826D01*
X84522097Y-77213286D01*
X84515136Y-77223100D01*
X84484708Y-77247493D01*
X84449765Y-77250372D01*
X84412784Y-77231282D01*
X84408600Y-77227807D01*
X84400424Y-77219279D01*
X84394364Y-77207728D01*
X84389981Y-77189896D01*
X84386839Y-77162524D01*
X84384502Y-77122354D01*
X84382531Y-77066128D01*
X84380489Y-76990589D01*
X84374845Y-76771458D01*
X84109556Y-77012099D01*
X84035722Y-77078875D01*
X83970542Y-77136991D01*
X83918348Y-77181949D01*
X83877273Y-77214871D01*
X83845455Y-77236879D01*
X83821026Y-77249094D01*
X83802124Y-77252639D01*
X83786883Y-77248636D01*
X83773439Y-77238207D01*
X83759927Y-77222474D01*
X83753682Y-77213991D01*
X83748050Y-77203413D01*
X83743839Y-77189255D01*
X83740887Y-77168803D01*
X83739032Y-77139342D01*
X83738113Y-77098161D01*
X83737968Y-77042544D01*
X83738435Y-76969779D01*
X83739352Y-76877151D01*
X83742667Y-76562199D01*
X83769318Y-76540633D01*
X83795383Y-76524441D01*
X83828241Y-76521670D01*
X83862772Y-76540623D01*
X83867084Y-76544208D01*
X83875216Y-76552737D01*
X83881245Y-76564329D01*
X83885606Y-76582235D01*
X83888734Y-76609706D01*
X83891063Y-76649994D01*
X83893029Y-76706351D01*
X83895067Y-76782029D01*
X83900711Y-77001878D01*
X84081334Y-76838084D01*
X84168072Y-76759451D01*
X84243843Y-76691058D01*
X84305980Y-76635708D01*
X84356078Y-76592338D01*
X84395735Y-76559881D01*
X84426548Y-76537273D01*
X84450114Y-76523448D01*
X84468030Y-76517343D01*
X84481893Y-76517892D01*
G37*
X85100081Y-76524599D02*
X85031565Y-76536095D01*
X84978943Y-76553967D01*
X84944708Y-76577499D01*
X84935379Y-76590924D01*
X84925893Y-76622148D01*
X84932277Y-76650395D01*
X84952430Y-76677182D01*
X84983745Y-76689713D01*
X85029183Y-76688696D01*
X85064326Y-76681906D01*
X85142419Y-76668971D01*
X85222226Y-76667742D01*
X85311555Y-76678241D01*
X85336229Y-76682690D01*
X85419291Y-76706108D01*
X85484273Y-76740945D01*
X85530461Y-76786604D01*
X85557145Y-76842494D01*
X85562663Y-76871388D01*
X85559051Y-76930012D01*
X85535729Y-76981879D01*
X85494824Y-77025978D01*
X85438459Y-77061299D01*
X85368760Y-77086829D01*
X85287852Y-77101559D01*
X85197860Y-77104478D01*
X85100910Y-77094575D01*
X85095436Y-77093641D01*
X85056875Y-77086459D01*
X85035494Y-77079521D01*
X85026227Y-77069227D01*
X85024006Y-77051976D01*
X85023956Y-77042841D01*
X85023956Y-77004489D01*
X85092431Y-77004489D01*
X85152900Y-77000347D01*
X85194165Y-76987147D01*
X85218175Y-76963730D01*
X85226877Y-76928936D01*
X85226983Y-76924394D01*
X85221892Y-76894654D01*
X85204433Y-76873419D01*
X85171939Y-76859366D01*
X85121743Y-76851173D01*
X85073123Y-76848161D01*
X85002456Y-76846433D01*
X84951198Y-76849070D01*
X84916239Y-76858800D01*
X84894470Y-76878353D01*
X84882780Y-76910456D01*
X84878060Y-76957838D01*
X84877200Y-77020071D01*
X84878609Y-77089535D01*
X84882848Y-77136786D01*
X84889936Y-77162012D01*
X84891311Y-77163988D01*
X84930228Y-77195508D01*
X84987286Y-77220470D01*
X85058869Y-77238340D01*
X85141358Y-77248586D01*
X85231139Y-77250673D01*
X85324592Y-77244068D01*
X85379556Y-77235956D01*
X85465766Y-77211554D01*
X85545892Y-77171662D01*
X85612977Y-77119887D01*
X85623173Y-77109539D01*
X85656302Y-77066035D01*
X85686194Y-77012118D01*
X85709357Y-76955592D01*
X85722298Y-76904259D01*
X85723858Y-76884544D01*
X85717218Y-76843419D01*
X85699568Y-76792252D01*
X85674297Y-76738394D01*
X85644789Y-76689195D01*
X85618719Y-76656334D01*
X85557765Y-76607452D01*
X85478969Y-76568545D01*
X85385157Y-76540494D01*
X85279150Y-76524179D01*
X85182000Y-76520192D01*
X85100081Y-76524599D01*
G36*
X85279150Y-76524179D02*
G01*
X85385157Y-76540494D01*
X85478969Y-76568545D01*
X85557765Y-76607452D01*
X85618719Y-76656334D01*
X85644789Y-76689195D01*
X85674297Y-76738394D01*
X85699568Y-76792252D01*
X85717218Y-76843419D01*
X85723858Y-76884544D01*
X85722298Y-76904259D01*
X85709357Y-76955592D01*
X85686194Y-77012118D01*
X85656302Y-77066035D01*
X85623173Y-77109539D01*
X85612977Y-77119887D01*
X85545892Y-77171662D01*
X85465766Y-77211554D01*
X85379556Y-77235956D01*
X85324592Y-77244068D01*
X85231139Y-77250673D01*
X85141358Y-77248586D01*
X85058869Y-77238340D01*
X84987286Y-77220470D01*
X84930228Y-77195508D01*
X84891311Y-77163988D01*
X84889936Y-77162012D01*
X84882848Y-77136786D01*
X84878609Y-77089535D01*
X84877200Y-77020071D01*
X84878060Y-76957838D01*
X84882780Y-76910456D01*
X84894470Y-76878353D01*
X84916239Y-76858800D01*
X84951198Y-76849070D01*
X85002456Y-76846433D01*
X85073123Y-76848161D01*
X85121743Y-76851173D01*
X85171939Y-76859366D01*
X85204433Y-76873419D01*
X85221892Y-76894654D01*
X85226983Y-76924394D01*
X85226877Y-76928936D01*
X85218175Y-76963730D01*
X85194165Y-76987147D01*
X85152900Y-77000347D01*
X85092431Y-77004489D01*
X85023956Y-77004489D01*
X85023956Y-77042841D01*
X85024006Y-77051976D01*
X85026227Y-77069227D01*
X85035494Y-77079521D01*
X85056875Y-77086459D01*
X85095436Y-77093641D01*
X85100910Y-77094575D01*
X85197860Y-77104478D01*
X85287852Y-77101559D01*
X85368760Y-77086829D01*
X85438459Y-77061299D01*
X85494824Y-77025978D01*
X85535729Y-76981879D01*
X85559051Y-76930012D01*
X85562663Y-76871388D01*
X85557145Y-76842494D01*
X85530461Y-76786604D01*
X85484273Y-76740945D01*
X85419291Y-76706108D01*
X85336229Y-76682690D01*
X85311555Y-76678241D01*
X85222226Y-76667742D01*
X85142419Y-76668971D01*
X85064326Y-76681906D01*
X85029183Y-76688696D01*
X84983745Y-76689713D01*
X84952430Y-76677182D01*
X84932277Y-76650395D01*
X84925893Y-76622148D01*
X84935379Y-76590924D01*
X84944708Y-76577499D01*
X84978943Y-76553967D01*
X85031565Y-76536095D01*
X85100081Y-76524599D01*
X85182000Y-76520192D01*
X85279150Y-76524179D01*
G37*
X82919657Y-76519260D02*
X82843299Y-76520174D01*
X82784783Y-76522311D01*
X82741745Y-76526175D01*
X82711817Y-76532267D01*
X82692632Y-76541090D01*
X82681824Y-76553146D01*
X82677027Y-76568939D01*
X82675873Y-76588970D01*
X82675867Y-76591335D01*
X82676869Y-76613992D01*
X82681604Y-76631503D01*
X82692667Y-76644574D01*
X82712652Y-76653913D01*
X82744154Y-76660227D01*
X82789768Y-76664222D01*
X82852087Y-76666606D01*
X82933707Y-76668086D01*
X82958723Y-76668414D01*
X83200800Y-76671467D01*
X83204186Y-76736378D01*
X83207571Y-76801289D01*
X83039424Y-76801289D01*
X82973734Y-76801531D01*
X82926828Y-76802556D01*
X82894917Y-76804811D01*
X82874209Y-76808742D01*
X82860916Y-76814798D01*
X82851245Y-76823424D01*
X82851183Y-76823493D01*
X82833644Y-76857112D01*
X82834278Y-76893448D01*
X82852686Y-76924423D01*
X82856329Y-76927607D01*
X82869259Y-76935812D01*
X82886976Y-76941521D01*
X82913430Y-76945162D01*
X82952568Y-76947167D01*
X83008338Y-76947964D01*
X83044006Y-76948045D01*
X83206445Y-76948045D01*
X83206445Y-77106089D01*
X82959839Y-77106089D01*
X82878420Y-77106231D01*
X82816590Y-77106814D01*
X82771363Y-77108068D01*
X82739752Y-77110227D01*
X82718769Y-77113523D01*
X82705427Y-77118189D01*
X82696739Y-77124457D01*
X82694550Y-77126733D01*
X82678386Y-77158280D01*
X82677203Y-77194168D01*
X82690464Y-77225285D01*
X82700957Y-77235271D01*
X82711871Y-77240769D01*
X82728783Y-77245022D01*
X82754367Y-77248180D01*
X82791299Y-77250392D01*
X82842254Y-77251806D01*
X82909906Y-77252572D01*
X82996931Y-77252838D01*
X83016606Y-77252845D01*
X83105089Y-77252787D01*
X83173773Y-77252467D01*
X83225436Y-77251667D01*
X83262855Y-77250167D01*
X83288810Y-77247749D01*
X83306078Y-77244194D01*
X83317438Y-77239282D01*
X83325668Y-77232795D01*
X83330183Y-77228138D01*
X83336979Y-77219889D01*
X83342288Y-77209669D01*
X83346294Y-77194800D01*
X83349179Y-77172602D01*
X83351126Y-77140393D01*
X83352319Y-77095496D01*
X83352939Y-77035228D01*
X83353171Y-76956911D01*
X83353200Y-76890994D01*
X83353129Y-76798628D01*
X83352792Y-76726117D01*
X83352002Y-76670737D01*
X83350574Y-76629765D01*
X83348321Y-76600478D01*
X83345057Y-76580153D01*
X83340596Y-76566066D01*
X83334752Y-76555495D01*
X83329803Y-76548811D01*
X83306406Y-76519067D01*
X83016226Y-76519067D01*
X82919657Y-76519260D01*
G36*
X83329803Y-76548811D02*
G01*
X83334752Y-76555495D01*
X83340596Y-76566066D01*
X83345057Y-76580153D01*
X83348321Y-76600478D01*
X83350574Y-76629765D01*
X83352002Y-76670737D01*
X83352792Y-76726117D01*
X83353129Y-76798628D01*
X83353200Y-76890994D01*
X83353171Y-76956911D01*
X83352939Y-77035228D01*
X83352319Y-77095496D01*
X83351126Y-77140393D01*
X83349179Y-77172602D01*
X83346294Y-77194800D01*
X83342288Y-77209669D01*
X83336979Y-77219889D01*
X83330183Y-77228138D01*
X83325668Y-77232795D01*
X83317438Y-77239282D01*
X83306078Y-77244194D01*
X83288810Y-77247749D01*
X83262855Y-77250167D01*
X83225436Y-77251667D01*
X83173773Y-77252467D01*
X83105089Y-77252787D01*
X83016606Y-77252845D01*
X82996931Y-77252838D01*
X82909906Y-77252572D01*
X82842254Y-77251806D01*
X82791299Y-77250392D01*
X82754367Y-77248180D01*
X82728783Y-77245022D01*
X82711871Y-77240769D01*
X82700957Y-77235271D01*
X82690464Y-77225285D01*
X82677203Y-77194168D01*
X82678386Y-77158280D01*
X82694550Y-77126733D01*
X82696739Y-77124457D01*
X82705427Y-77118189D01*
X82718769Y-77113523D01*
X82739752Y-77110227D01*
X82771363Y-77108068D01*
X82816590Y-77106814D01*
X82878420Y-77106231D01*
X82959839Y-77106089D01*
X83206445Y-77106089D01*
X83206445Y-76948045D01*
X83044006Y-76948045D01*
X83008338Y-76947964D01*
X82952568Y-76947167D01*
X82913430Y-76945162D01*
X82886976Y-76941521D01*
X82869259Y-76935812D01*
X82856329Y-76927607D01*
X82852686Y-76924423D01*
X82834278Y-76893448D01*
X82833644Y-76857112D01*
X82851183Y-76823493D01*
X82851245Y-76823424D01*
X82860916Y-76814798D01*
X82874209Y-76808742D01*
X82894917Y-76804811D01*
X82926828Y-76802556D01*
X82973734Y-76801531D01*
X83039424Y-76801289D01*
X83207571Y-76801289D01*
X83204186Y-76736378D01*
X83200800Y-76671467D01*
X82958723Y-76668414D01*
X82933707Y-76668086D01*
X82852087Y-76666606D01*
X82789768Y-76664222D01*
X82744154Y-76660227D01*
X82712652Y-76653913D01*
X82692667Y-76644574D01*
X82681604Y-76631503D01*
X82676869Y-76613992D01*
X82675867Y-76591335D01*
X82675873Y-76588970D01*
X82677027Y-76568939D01*
X82681824Y-76553146D01*
X82692632Y-76541090D01*
X82711817Y-76532267D01*
X82741745Y-76526175D01*
X82784783Y-76522311D01*
X82843299Y-76520174D01*
X82919657Y-76519260D01*
X83016226Y-76519067D01*
X83306406Y-76519067D01*
X83329803Y-76548811D01*
G37*
X87862794Y-76519146D02*
X87793386Y-76519518D01*
X87740997Y-76520385D01*
X87702847Y-76521946D01*
X87676159Y-76524403D01*
X87658153Y-76527957D01*
X87646049Y-76532810D01*
X87637069Y-76539161D01*
X87633818Y-76542084D01*
X87614043Y-76573142D01*
X87610482Y-76608828D01*
X87623491Y-76640510D01*
X87629506Y-76646913D01*
X87639235Y-76653121D01*
X87654901Y-76657910D01*
X87679408Y-76661514D01*
X87715661Y-76664164D01*
X87766565Y-76666095D01*
X87835026Y-76667539D01*
X87897617Y-76668418D01*
X88145334Y-76671467D01*
X88148719Y-76736378D01*
X88152105Y-76801289D01*
X87983958Y-76801289D01*
X87910959Y-76801919D01*
X87857517Y-76804553D01*
X87820628Y-76810309D01*
X87797288Y-76820304D01*
X87784494Y-76835656D01*
X87779242Y-76857482D01*
X87778445Y-76877738D01*
X87780923Y-76902592D01*
X87790277Y-76920906D01*
X87809383Y-76933637D01*
X87841118Y-76941741D01*
X87888359Y-76946176D01*
X87953983Y-76947899D01*
X87989801Y-76948045D01*
X88150978Y-76948045D01*
X88150978Y-77106089D01*
X87902622Y-77106089D01*
X87821213Y-77106202D01*
X87759342Y-77106712D01*
X87713968Y-77107870D01*
X87682054Y-77109930D01*
X87660559Y-77113146D01*
X87646443Y-77117772D01*
X87636668Y-77124059D01*
X87631689Y-77128667D01*
X87614610Y-77155560D01*
X87609111Y-77179467D01*
X87616963Y-77208667D01*
X87631689Y-77230267D01*
X87639546Y-77237066D01*
X87649688Y-77242346D01*
X87664844Y-77246298D01*
X87687741Y-77249113D01*
X87721109Y-77250982D01*
X87767675Y-77252098D01*
X87830167Y-77252651D01*
X87911314Y-77252833D01*
X87953422Y-77252845D01*
X88043598Y-77252765D01*
X88113924Y-77252398D01*
X88167129Y-77251552D01*
X88205940Y-77250036D01*
X88233087Y-77247659D01*
X88251298Y-77244229D01*
X88263300Y-77239554D01*
X88271822Y-77233444D01*
X88275156Y-77230267D01*
X88281755Y-77222670D01*
X88286927Y-77212870D01*
X88290846Y-77198239D01*
X88293684Y-77176152D01*
X88295615Y-77143982D01*
X88296812Y-77099103D01*
X88297448Y-77038889D01*
X88297697Y-76960713D01*
X88297734Y-76887923D01*
X88297700Y-76794707D01*
X88297465Y-76721431D01*
X88296830Y-76665458D01*
X88295594Y-76624151D01*
X88293556Y-76594872D01*
X88290517Y-76574984D01*
X88286277Y-76561850D01*
X88280635Y-76552832D01*
X88273391Y-76545293D01*
X88271606Y-76543612D01*
X88262945Y-76536172D01*
X88252882Y-76530409D01*
X88238625Y-76526112D01*
X88217383Y-76523064D01*
X88186364Y-76521051D01*
X88142777Y-76519860D01*
X88083831Y-76519275D01*
X88006734Y-76519083D01*
X87952001Y-76519067D01*
X87862794Y-76519146D01*
G36*
X88006734Y-76519083D02*
G01*
X88083831Y-76519275D01*
X88142777Y-76519860D01*
X88186364Y-76521051D01*
X88217383Y-76523064D01*
X88238625Y-76526112D01*
X88252882Y-76530409D01*
X88262945Y-76536172D01*
X88271606Y-76543612D01*
X88273391Y-76545293D01*
X88280635Y-76552832D01*
X88286277Y-76561850D01*
X88290517Y-76574984D01*
X88293556Y-76594872D01*
X88295594Y-76624151D01*
X88296830Y-76665458D01*
X88297465Y-76721431D01*
X88297700Y-76794707D01*
X88297734Y-76887923D01*
X88297697Y-76960713D01*
X88297448Y-77038889D01*
X88296812Y-77099103D01*
X88295615Y-77143982D01*
X88293684Y-77176152D01*
X88290846Y-77198239D01*
X88286927Y-77212870D01*
X88281755Y-77222670D01*
X88275156Y-77230267D01*
X88271822Y-77233444D01*
X88263300Y-77239554D01*
X88251298Y-77244229D01*
X88233087Y-77247659D01*
X88205940Y-77250036D01*
X88167129Y-77251552D01*
X88113924Y-77252398D01*
X88043598Y-77252765D01*
X87953422Y-77252845D01*
X87911314Y-77252833D01*
X87830167Y-77252651D01*
X87767675Y-77252098D01*
X87721109Y-77250982D01*
X87687741Y-77249113D01*
X87664844Y-77246298D01*
X87649688Y-77242346D01*
X87639546Y-77237066D01*
X87631689Y-77230267D01*
X87616963Y-77208667D01*
X87609111Y-77179467D01*
X87614610Y-77155560D01*
X87631689Y-77128667D01*
X87636668Y-77124059D01*
X87646443Y-77117772D01*
X87660559Y-77113146D01*
X87682054Y-77109930D01*
X87713968Y-77107870D01*
X87759342Y-77106712D01*
X87821213Y-77106202D01*
X87902622Y-77106089D01*
X88150978Y-77106089D01*
X88150978Y-76948045D01*
X87989801Y-76948045D01*
X87953983Y-76947899D01*
X87888359Y-76946176D01*
X87841118Y-76941741D01*
X87809383Y-76933637D01*
X87790277Y-76920906D01*
X87780923Y-76902592D01*
X87778445Y-76877738D01*
X87779242Y-76857482D01*
X87784494Y-76835656D01*
X87797288Y-76820304D01*
X87820628Y-76810309D01*
X87857517Y-76804553D01*
X87910959Y-76801919D01*
X87983958Y-76801289D01*
X88152105Y-76801289D01*
X88148719Y-76736378D01*
X88145334Y-76671467D01*
X87897617Y-76668418D01*
X87835026Y-76667539D01*
X87766565Y-76666095D01*
X87715661Y-76664164D01*
X87679408Y-76661514D01*
X87654901Y-76657910D01*
X87639235Y-76653121D01*
X87629506Y-76646913D01*
X87623491Y-76640510D01*
X87610482Y-76608828D01*
X87614043Y-76573142D01*
X87633818Y-76542084D01*
X87637069Y-76539161D01*
X87646049Y-76532810D01*
X87658153Y-76527957D01*
X87676159Y-76524403D01*
X87702847Y-76521946D01*
X87740997Y-76520385D01*
X87793386Y-76519518D01*
X87862794Y-76519146D01*
X87952001Y-76519067D01*
X88006734Y-76519083D01*
G37*
X79405335Y-76521034D02*
X79385745Y-76528035D01*
X79384990Y-76528377D01*
X79358387Y-76548678D01*
X79343730Y-76569561D01*
X79340862Y-76579352D01*
X79341004Y-76592361D01*
X79345039Y-76610895D01*
X79353854Y-76637257D01*
X79368331Y-76673752D01*
X79389355Y-76722687D01*
X79417812Y-76786365D01*
X79454585Y-76867093D01*
X79474825Y-76911216D01*
X79511375Y-76989985D01*
X79545685Y-77062423D01*
X79576448Y-77125880D01*
X79602352Y-77177708D01*
X79622090Y-77215259D01*
X79634350Y-77235884D01*
X79636776Y-77238733D01*
X79667817Y-77251302D01*
X79702879Y-77249619D01*
X79731000Y-77234332D01*
X79732146Y-77233089D01*
X79743332Y-77216154D01*
X79762096Y-77183170D01*
X79786125Y-77138380D01*
X79813103Y-77086032D01*
X79822799Y-77066742D01*
X79895986Y-76920150D01*
X79975760Y-77079393D01*
X80004233Y-77134415D01*
X80030650Y-77182132D01*
X80052852Y-77218893D01*
X80068681Y-77241044D01*
X80074046Y-77245741D01*
X80115743Y-77252102D01*
X80150151Y-77238733D01*
X80160272Y-77224446D01*
X80177786Y-77192692D01*
X80201265Y-77146597D01*
X80229280Y-77089285D01*
X80260401Y-77023880D01*
X80293201Y-76953507D01*
X80326250Y-76881291D01*
X80358119Y-76810355D01*
X80387381Y-76743825D01*
X80412605Y-76684826D01*
X80432364Y-76636481D01*
X80445228Y-76601915D01*
X80449769Y-76584253D01*
X80449723Y-76583613D01*
X80438674Y-76561388D01*
X80416590Y-76538753D01*
X80415290Y-76537768D01*
X80388147Y-76522425D01*
X80363042Y-76522574D01*
X80353632Y-76525466D01*
X80342166Y-76531718D01*
X80329990Y-76544014D01*
X80315643Y-76564908D01*
X80297664Y-76596949D01*
X80274593Y-76642688D01*
X80244970Y-76704677D01*
X80218255Y-76761898D01*
X80187520Y-76828226D01*
X80159979Y-76887874D01*
X80137062Y-76937725D01*
X80120202Y-76974664D01*
X80110827Y-76995573D01*
X80109460Y-76998845D01*
X80103311Y-76993497D01*
X80089178Y-76971109D01*
X80068943Y-76934946D01*
X80044485Y-76888277D01*
X80034752Y-76869022D01*
X80001783Y-76804004D01*
X79976357Y-76756654D01*
X79956388Y-76724219D01*
X79939790Y-76703946D01*
X79924476Y-76693082D01*
X79908360Y-76688875D01*
X79897857Y-76688400D01*
X79879330Y-76690042D01*
X79863096Y-76696831D01*
X79846965Y-76711566D01*
X79828749Y-76737044D01*
X79806261Y-76776061D01*
X79777311Y-76831414D01*
X79761338Y-76862903D01*
X79735430Y-76913087D01*
X79712833Y-76954704D01*
X79695542Y-76984242D01*
X79685550Y-76998189D01*
X79684191Y-76998770D01*
X79677739Y-76987793D01*
X79663292Y-76959290D01*
X79642297Y-76916244D01*
X79616203Y-76861638D01*
X79586454Y-76798454D01*
X79571820Y-76767071D01*
X79533750Y-76686078D01*
X79503095Y-76623756D01*
X79478263Y-76578071D01*
X79457663Y-76546989D01*
X79439702Y-76528478D01*
X79422790Y-76520504D01*
X79405335Y-76521034D01*
G36*
X79439702Y-76528478D02*
G01*
X79457663Y-76546989D01*
X79478263Y-76578071D01*
X79503095Y-76623756D01*
X79533750Y-76686078D01*
X79571820Y-76767071D01*
X79586454Y-76798454D01*
X79616203Y-76861638D01*
X79642297Y-76916244D01*
X79663292Y-76959290D01*
X79677739Y-76987793D01*
X79684191Y-76998770D01*
X79685550Y-76998189D01*
X79695542Y-76984242D01*
X79712833Y-76954704D01*
X79735430Y-76913087D01*
X79761338Y-76862903D01*
X79777311Y-76831414D01*
X79806261Y-76776061D01*
X79828749Y-76737044D01*
X79846965Y-76711566D01*
X79863096Y-76696831D01*
X79879330Y-76690042D01*
X79897857Y-76688400D01*
X79908360Y-76688875D01*
X79924476Y-76693082D01*
X79939790Y-76703946D01*
X79956388Y-76724219D01*
X79976357Y-76756654D01*
X80001783Y-76804004D01*
X80034752Y-76869022D01*
X80044485Y-76888277D01*
X80068943Y-76934946D01*
X80089178Y-76971109D01*
X80103311Y-76993497D01*
X80109460Y-76998845D01*
X80110827Y-76995573D01*
X80120202Y-76974664D01*
X80137062Y-76937725D01*
X80159979Y-76887874D01*
X80187520Y-76828226D01*
X80218255Y-76761898D01*
X80244970Y-76704677D01*
X80274593Y-76642688D01*
X80297664Y-76596949D01*
X80315643Y-76564908D01*
X80329990Y-76544014D01*
X80342166Y-76531718D01*
X80353632Y-76525466D01*
X80363042Y-76522574D01*
X80388147Y-76522425D01*
X80415290Y-76537768D01*
X80416590Y-76538753D01*
X80438674Y-76561388D01*
X80449723Y-76583613D01*
X80449769Y-76584253D01*
X80445228Y-76601915D01*
X80432364Y-76636481D01*
X80412605Y-76684826D01*
X80387381Y-76743825D01*
X80358119Y-76810355D01*
X80326250Y-76881291D01*
X80293201Y-76953507D01*
X80260401Y-77023880D01*
X80229280Y-77089285D01*
X80201265Y-77146597D01*
X80177786Y-77192692D01*
X80160272Y-77224446D01*
X80150151Y-77238733D01*
X80115743Y-77252102D01*
X80074046Y-77245741D01*
X80068681Y-77241044D01*
X80052852Y-77218893D01*
X80030650Y-77182132D01*
X80004233Y-77134415D01*
X79975760Y-77079393D01*
X79895986Y-76920150D01*
X79822799Y-77066742D01*
X79813103Y-77086032D01*
X79786125Y-77138380D01*
X79762096Y-77183170D01*
X79743332Y-77216154D01*
X79732146Y-77233089D01*
X79731000Y-77234332D01*
X79702879Y-77249619D01*
X79667817Y-77251302D01*
X79636776Y-77238733D01*
X79634350Y-77235884D01*
X79622090Y-77215259D01*
X79602352Y-77177708D01*
X79576448Y-77125880D01*
X79545685Y-77062423D01*
X79511375Y-76989985D01*
X79474825Y-76911216D01*
X79454585Y-76867093D01*
X79417812Y-76786365D01*
X79389355Y-76722687D01*
X79368331Y-76673752D01*
X79353854Y-76637257D01*
X79345039Y-76610895D01*
X79341004Y-76592361D01*
X79340862Y-76579352D01*
X79343730Y-76569561D01*
X79358387Y-76548678D01*
X79384990Y-76528377D01*
X79385745Y-76528035D01*
X79405335Y-76521034D01*
X79422790Y-76520504D01*
X79439702Y-76528478D01*
G37*
X86841703Y-76520351D02*
X86766888Y-76525581D01*
X86697306Y-76533750D01*
X86637002Y-76544550D01*
X86590020Y-76557673D01*
X86560406Y-76572813D01*
X86555860Y-76577269D01*
X86540054Y-76611850D01*
X86544847Y-76647351D01*
X86569364Y-76677725D01*
X86570534Y-76678596D01*
X86584954Y-76687954D01*
X86600008Y-76692876D01*
X86621005Y-76693473D01*
X86653257Y-76689861D01*
X86702073Y-76682154D01*
X86706000Y-76681505D01*
X86778739Y-76672569D01*
X86857217Y-76668161D01*
X86935927Y-76668119D01*
X87009361Y-76672279D01*
X87072011Y-76680479D01*
X87118370Y-76692557D01*
X87121416Y-76693771D01*
X87155048Y-76712615D01*
X87166864Y-76731685D01*
X87157614Y-76750439D01*
X87128047Y-76768337D01*
X87078911Y-76784837D01*
X87010957Y-76799396D01*
X86965645Y-76806406D01*
X86871456Y-76819889D01*
X86796544Y-76832214D01*
X86737717Y-76844449D01*
X86691785Y-76857661D01*
X86655555Y-76872917D01*
X86625838Y-76891285D01*
X86599442Y-76913831D01*
X86578230Y-76935971D01*
X86553065Y-76966819D01*
X86540681Y-76993345D01*
X86536808Y-77026026D01*
X86536667Y-77037995D01*
X86539576Y-77077712D01*
X86551202Y-77107259D01*
X86571323Y-77133486D01*
X86612216Y-77173576D01*
X86657817Y-77204149D01*
X86711513Y-77226203D01*
X86776692Y-77240735D01*
X86856744Y-77248741D01*
X86955057Y-77251218D01*
X86971289Y-77251177D01*
X87036849Y-77249818D01*
X87101866Y-77246730D01*
X87159252Y-77242356D01*
X87201922Y-77237140D01*
X87205372Y-77236541D01*
X87247796Y-77226491D01*
X87283780Y-77213796D01*
X87304150Y-77202190D01*
X87323107Y-77171572D01*
X87324427Y-77135918D01*
X87308085Y-77104144D01*
X87304429Y-77100551D01*
X87289315Y-77089876D01*
X87270415Y-77085276D01*
X87241162Y-77086059D01*
X87205651Y-77090127D01*
X87165970Y-77093762D01*
X87110345Y-77096828D01*
X87045406Y-77099053D01*
X86977785Y-77100164D01*
X86960000Y-77100237D01*
X86892128Y-77099964D01*
X86842454Y-77098646D01*
X86806610Y-77095827D01*
X86780224Y-77091050D01*
X86758926Y-77083857D01*
X86746126Y-77077867D01*
X86718000Y-77061233D01*
X86700068Y-77046168D01*
X86697447Y-77041897D01*
X86702976Y-77024263D01*
X86729260Y-77007192D01*
X86774478Y-76991458D01*
X86836808Y-76977838D01*
X86855171Y-76974804D01*
X86951090Y-76959738D01*
X87027641Y-76947146D01*
X87087780Y-76936111D01*
X87134460Y-76925720D01*
X87170637Y-76915056D01*
X87199265Y-76903205D01*
X87223298Y-76889251D01*
X87245692Y-76872281D01*
X87269402Y-76851378D01*
X87277380Y-76844049D01*
X87305353Y-76816699D01*
X87320160Y-76795029D01*
X87325952Y-76770232D01*
X87326889Y-76738983D01*
X87316575Y-76677705D01*
X87285752Y-76625640D01*
X87234595Y-76582958D01*
X87163283Y-76549825D01*
X87112400Y-76534964D01*
X87057100Y-76525366D01*
X86990853Y-76519936D01*
X86917706Y-76518367D01*
X86841703Y-76520351D01*
G36*
X86990853Y-76519936D02*
G01*
X87057100Y-76525366D01*
X87112400Y-76534964D01*
X87163283Y-76549825D01*
X87234595Y-76582958D01*
X87285752Y-76625640D01*
X87316575Y-76677705D01*
X87326889Y-76738983D01*
X87325952Y-76770232D01*
X87320160Y-76795029D01*
X87305353Y-76816699D01*
X87277380Y-76844049D01*
X87269402Y-76851378D01*
X87245692Y-76872281D01*
X87223298Y-76889251D01*
X87199265Y-76903205D01*
X87170637Y-76915056D01*
X87134460Y-76925720D01*
X87087780Y-76936111D01*
X87027641Y-76947146D01*
X86951090Y-76959738D01*
X86855171Y-76974804D01*
X86836808Y-76977838D01*
X86774478Y-76991458D01*
X86729260Y-77007192D01*
X86702976Y-77024263D01*
X86697447Y-77041897D01*
X86700068Y-77046168D01*
X86718000Y-77061233D01*
X86746126Y-77077867D01*
X86758926Y-77083857D01*
X86780224Y-77091050D01*
X86806610Y-77095827D01*
X86842454Y-77098646D01*
X86892128Y-77099964D01*
X86960000Y-77100237D01*
X86977785Y-77100164D01*
X87045406Y-77099053D01*
X87110345Y-77096828D01*
X87165970Y-77093762D01*
X87205651Y-77090127D01*
X87241162Y-77086059D01*
X87270415Y-77085276D01*
X87289315Y-77089876D01*
X87304429Y-77100551D01*
X87308085Y-77104144D01*
X87324427Y-77135918D01*
X87323107Y-77171572D01*
X87304150Y-77202190D01*
X87283780Y-77213796D01*
X87247796Y-77226491D01*
X87205372Y-77236541D01*
X87201922Y-77237140D01*
X87159252Y-77242356D01*
X87101866Y-77246730D01*
X87036849Y-77249818D01*
X86971289Y-77251177D01*
X86955057Y-77251218D01*
X86856744Y-77248741D01*
X86776692Y-77240735D01*
X86711513Y-77226203D01*
X86657817Y-77204149D01*
X86612216Y-77173576D01*
X86571323Y-77133486D01*
X86551202Y-77107259D01*
X86539576Y-77077712D01*
X86536667Y-77037995D01*
X86536808Y-77026026D01*
X86540681Y-76993345D01*
X86553065Y-76966819D01*
X86578230Y-76935971D01*
X86599442Y-76913831D01*
X86625838Y-76891285D01*
X86655555Y-76872917D01*
X86691785Y-76857661D01*
X86737717Y-76844449D01*
X86796544Y-76832214D01*
X86871456Y-76819889D01*
X86965645Y-76806406D01*
X87010957Y-76799396D01*
X87078911Y-76784837D01*
X87128047Y-76768337D01*
X87157614Y-76750439D01*
X87166864Y-76731685D01*
X87155048Y-76712615D01*
X87121416Y-76693771D01*
X87118370Y-76692557D01*
X87072011Y-76680479D01*
X87009361Y-76672279D01*
X86935927Y-76668119D01*
X86857217Y-76668161D01*
X86778739Y-76672569D01*
X86706000Y-76681505D01*
X86702073Y-76682154D01*
X86653257Y-76689861D01*
X86621005Y-76693473D01*
X86600008Y-76692876D01*
X86584954Y-76687954D01*
X86570534Y-76678596D01*
X86569364Y-76677725D01*
X86544847Y-76647351D01*
X86540054Y-76611850D01*
X86555860Y-76577269D01*
X86560406Y-76572813D01*
X86590020Y-76557673D01*
X86637002Y-76544550D01*
X86697306Y-76533750D01*
X86766888Y-76525581D01*
X86841703Y-76520351D01*
X86917706Y-76518367D01*
X86990853Y-76519936D01*
G37*
X82821571Y-72199071D02*
X82661430Y-72220245D01*
X82497490Y-72260385D01*
X82327687Y-72319889D01*
X82149957Y-72399154D01*
X82138690Y-72404699D01*
X82080995Y-72432725D01*
X82029448Y-72456802D01*
X81987809Y-72475249D01*
X81959838Y-72486386D01*
X81950267Y-72488933D01*
X81931050Y-72493941D01*
X81926439Y-72498147D01*
X81931542Y-72508580D01*
X81947582Y-72534868D01*
X81972712Y-72574257D01*
X82005086Y-72623991D01*
X82042857Y-72681315D01*
X82084178Y-72743476D01*
X82127202Y-72807718D01*
X82170083Y-72871285D01*
X82210974Y-72931425D01*
X82248029Y-72985380D01*
X82279400Y-73030397D01*
X82303241Y-73063721D01*
X82317706Y-73082597D01*
X82319691Y-73084787D01*
X82329809Y-73080138D01*
X82352150Y-73062962D01*
X82382720Y-73036440D01*
X82398464Y-73021964D01*
X82494953Y-72946682D01*
X82601664Y-72891241D01*
X82717168Y-72856141D01*
X82840038Y-72841880D01*
X82909439Y-72843051D01*
X83030577Y-72860212D01*
X83139795Y-72896094D01*
X83237418Y-72950959D01*
X83323772Y-73025070D01*
X83399185Y-73118688D01*
X83463982Y-73232076D01*
X83501399Y-73318667D01*
X83545252Y-73454366D01*
X83577572Y-73601850D01*
X83598443Y-73757314D01*
X83607949Y-73916956D01*
X83606173Y-74076973D01*
X83593197Y-74233561D01*
X83569106Y-74382918D01*
X83533982Y-74521240D01*
X83487908Y-74644724D01*
X83471627Y-74678978D01*
X83403380Y-74793064D01*
X83322921Y-74889557D01*
X83231430Y-74967670D01*
X83130089Y-75026617D01*
X83020080Y-75065612D01*
X82902585Y-75083868D01*
X82861117Y-75085211D01*
X82739559Y-75074290D01*
X82619122Y-75041474D01*
X82501334Y-74987439D01*
X82387723Y-74912865D01*
X82296315Y-74834539D01*
X82249785Y-74790008D01*
X82068517Y-75087271D01*
X82023420Y-75161433D01*
X81982181Y-75229646D01*
X81946265Y-75289459D01*
X81917134Y-75338420D01*
X81896250Y-75374079D01*
X81885076Y-75393984D01*
X81883625Y-75397079D01*
X81891854Y-75406718D01*
X81917433Y-75423999D01*
X81957127Y-75447283D01*
X82007703Y-75474934D01*
X82065926Y-75505315D01*
X82128563Y-75536790D01*
X82192379Y-75567722D01*
X82254140Y-75596473D01*
X82310612Y-75621408D01*
X82358562Y-75640889D01*
X82382014Y-75649318D01*
X82515779Y-75687133D01*
X82653673Y-75712136D01*
X82801378Y-75725140D01*
X82928167Y-75727468D01*
X82996122Y-75726373D01*
X83061723Y-75724275D01*
X83119153Y-75721434D01*
X83162597Y-75718106D01*
X83176702Y-75716422D01*
X83315716Y-75687587D01*
X83457243Y-75642468D01*
X83594725Y-75583750D01*
X83721606Y-75514120D01*
X83799111Y-75461441D01*
X83926519Y-75353239D01*
X84044822Y-75226671D01*
X84151828Y-75084866D01*
X84245348Y-74930951D01*
X84323190Y-74768053D01*
X84367044Y-74650756D01*
X84417292Y-74467128D01*
X84450791Y-74272581D01*
X84467551Y-74071325D01*
X84467584Y-73867568D01*
X84450899Y-73665521D01*
X84417507Y-73469392D01*
X84367420Y-73283391D01*
X84363603Y-73271803D01*
X84300719Y-73109750D01*
X84223972Y-72961832D01*
X84130758Y-72823865D01*
X84018473Y-72691661D01*
X83974608Y-72646399D01*
X83838466Y-72522457D01*
X83698509Y-72419915D01*
X83552589Y-72337656D01*
X83398558Y-72274564D01*
X83234268Y-72229523D01*
X83138711Y-72212033D01*
X82979977Y-72196466D01*
X82821571Y-72199071D01*
G36*
X83138711Y-72212033D02*
G01*
X83234268Y-72229523D01*
X83398558Y-72274564D01*
X83552589Y-72337656D01*
X83698509Y-72419915D01*
X83838466Y-72522457D01*
X83974608Y-72646399D01*
X84018473Y-72691661D01*
X84130758Y-72823865D01*
X84223972Y-72961832D01*
X84300719Y-73109750D01*
X84363603Y-73271803D01*
X84367420Y-73283391D01*
X84417507Y-73469392D01*
X84450899Y-73665521D01*
X84467584Y-73867568D01*
X84467551Y-74071325D01*
X84450791Y-74272581D01*
X84417292Y-74467128D01*
X84367044Y-74650756D01*
X84323190Y-74768053D01*
X84245348Y-74930951D01*
X84151828Y-75084866D01*
X84044822Y-75226671D01*
X83926519Y-75353239D01*
X83799111Y-75461441D01*
X83721606Y-75514120D01*
X83594725Y-75583750D01*
X83457243Y-75642468D01*
X83315716Y-75687587D01*
X83176702Y-75716422D01*
X83162597Y-75718106D01*
X83119153Y-75721434D01*
X83061723Y-75724275D01*
X82996122Y-75726373D01*
X82928167Y-75727468D01*
X82801378Y-75725140D01*
X82653673Y-75712136D01*
X82515779Y-75687133D01*
X82382014Y-75649318D01*
X82358562Y-75640889D01*
X82310612Y-75621408D01*
X82254140Y-75596473D01*
X82192379Y-75567722D01*
X82128563Y-75536790D01*
X82065926Y-75505315D01*
X82007703Y-75474934D01*
X81957127Y-75447283D01*
X81917433Y-75423999D01*
X81891854Y-75406718D01*
X81883625Y-75397079D01*
X81885076Y-75393984D01*
X81896250Y-75374079D01*
X81917134Y-75338420D01*
X81946265Y-75289459D01*
X81982181Y-75229646D01*
X82023420Y-75161433D01*
X82068517Y-75087271D01*
X82249785Y-74790008D01*
X82296315Y-74834539D01*
X82387723Y-74912865D01*
X82501334Y-74987439D01*
X82619122Y-75041474D01*
X82739559Y-75074290D01*
X82861117Y-75085211D01*
X82902585Y-75083868D01*
X83020080Y-75065612D01*
X83130089Y-75026617D01*
X83231430Y-74967670D01*
X83322921Y-74889557D01*
X83403380Y-74793064D01*
X83471627Y-74678978D01*
X83487908Y-74644724D01*
X83533982Y-74521240D01*
X83569106Y-74382918D01*
X83593197Y-74233561D01*
X83606173Y-74076973D01*
X83607949Y-73916956D01*
X83598443Y-73757314D01*
X83577572Y-73601850D01*
X83545252Y-73454366D01*
X83501399Y-73318667D01*
X83463982Y-73232076D01*
X83399185Y-73118688D01*
X83323772Y-73025070D01*
X83237418Y-72950959D01*
X83139795Y-72896094D01*
X83030577Y-72860212D01*
X82909439Y-72843051D01*
X82840038Y-72841880D01*
X82717168Y-72856141D01*
X82601664Y-72891241D01*
X82494953Y-72946682D01*
X82398464Y-73021964D01*
X82382720Y-73036440D01*
X82352150Y-73062962D01*
X82329809Y-73080138D01*
X82319691Y-73084787D01*
X82317706Y-73082597D01*
X82303241Y-73063721D01*
X82279400Y-73030397D01*
X82248029Y-72985380D01*
X82210974Y-72931425D01*
X82170083Y-72871285D01*
X82127202Y-72807718D01*
X82084178Y-72743476D01*
X82042857Y-72681315D01*
X82005086Y-72623991D01*
X81972712Y-72574257D01*
X81947582Y-72534868D01*
X81931542Y-72508580D01*
X81926439Y-72498147D01*
X81931050Y-72493941D01*
X81950267Y-72488933D01*
X81959838Y-72486386D01*
X81987809Y-72475249D01*
X82029448Y-72456802D01*
X82080995Y-72432725D01*
X82138690Y-72404699D01*
X82149957Y-72399154D01*
X82327687Y-72319889D01*
X82497490Y-72260385D01*
X82661430Y-72220245D01*
X82821571Y-72199071D01*
X82979977Y-72196466D01*
X83138711Y-72212033D01*
G37*
X76963493Y-73722245D02*
X76963474Y-73956662D01*
X76963448Y-74169603D01*
X76963375Y-74362168D01*
X76963218Y-74535459D01*
X76962936Y-74690576D01*
X76962491Y-74828620D01*
X76961844Y-74950692D01*
X76960955Y-75057894D01*
X76959787Y-75151326D01*
X76958299Y-75232090D01*
X76956454Y-75301286D01*
X76954211Y-75360015D01*
X76951531Y-75409379D01*
X76948377Y-75450478D01*
X76944708Y-75484413D01*
X76940487Y-75512286D01*
X76935673Y-75535198D01*
X76930227Y-75554249D01*
X76924112Y-75570540D01*
X76917288Y-75585173D01*
X76909715Y-75599249D01*
X76901355Y-75613868D01*
X76896161Y-75622974D01*
X76861896Y-75683689D01*
X77720045Y-75683689D01*
X77720045Y-75587733D01*
X77720776Y-75544370D01*
X77722728Y-75511205D01*
X77725537Y-75493424D01*
X77726779Y-75491778D01*
X77738201Y-75498662D01*
X77760916Y-75516505D01*
X77783615Y-75535879D01*
X77838200Y-75576614D01*
X77907679Y-75617617D01*
X77984730Y-75655123D01*
X78062035Y-75685364D01*
X78092887Y-75695012D01*
X78161384Y-75709578D01*
X78244236Y-75719539D01*
X78333629Y-75724583D01*
X78421752Y-75724396D01*
X78500793Y-75718666D01*
X78538489Y-75712858D01*
X78676586Y-75674797D01*
X78803887Y-75617073D01*
X78919708Y-75540211D01*
X79023363Y-75444739D01*
X79114167Y-75331179D01*
X79180969Y-75220381D01*
X79235836Y-75103625D01*
X79277837Y-74984276D01*
X79307833Y-74858283D01*
X79326689Y-74721594D01*
X79335268Y-74570158D01*
X79335994Y-74492711D01*
X79333900Y-74435934D01*
X78504783Y-74435934D01*
X78504576Y-74529002D01*
X78501663Y-74616692D01*
X78496000Y-74693772D01*
X78487545Y-74755009D01*
X78484962Y-74767350D01*
X78453160Y-74874633D01*
X78411502Y-74961658D01*
X78359637Y-75028642D01*
X78297219Y-75075805D01*
X78223900Y-75103365D01*
X78139331Y-75111541D01*
X78043165Y-75100551D01*
X77979689Y-75084829D01*
X77930546Y-75066639D01*
X77876417Y-75040791D01*
X77835756Y-75017089D01*
X77765200Y-74970721D01*
X77765200Y-73820530D01*
X77832608Y-73776962D01*
X77911133Y-73736040D01*
X77995319Y-73709389D01*
X78080443Y-73697465D01*
X78161784Y-73700722D01*
X78234620Y-73719615D01*
X78266574Y-73735184D01*
X78324499Y-73778181D01*
X78373456Y-73834953D01*
X78414610Y-73907575D01*
X78449126Y-73998121D01*
X78478167Y-74108666D01*
X78479448Y-74114533D01*
X78489619Y-74176788D01*
X78497261Y-74254594D01*
X78502330Y-74342720D01*
X78504783Y-74435934D01*
X79333900Y-74435934D01*
X79328143Y-74279895D01*
X79306198Y-74084059D01*
X79270214Y-73905332D01*
X79220241Y-73743845D01*
X79156332Y-73599726D01*
X79078538Y-73473106D01*
X78986911Y-73364115D01*
X78881503Y-73272883D01*
X78836338Y-73241932D01*
X78735389Y-73185785D01*
X78632099Y-73146174D01*
X78522011Y-73122014D01*
X78400670Y-73112219D01*
X78308164Y-73113265D01*
X78178510Y-73124231D01*
X78065916Y-73146046D01*
X77967125Y-73179714D01*
X77878879Y-73226236D01*
X77830014Y-73260448D01*
X77800647Y-73282362D01*
X77778957Y-73297333D01*
X77770747Y-73301733D01*
X77769132Y-73290904D01*
X77767841Y-73260251D01*
X77766862Y-73212526D01*
X77766183Y-73150479D01*
X77765790Y-73076862D01*
X77765670Y-72994427D01*
X77765812Y-72905925D01*
X77766203Y-72814107D01*
X77766829Y-72721724D01*
X77767680Y-72631528D01*
X77768740Y-72546271D01*
X77769999Y-72468703D01*
X77771444Y-72401576D01*
X77773062Y-72347641D01*
X77774839Y-72309650D01*
X77775331Y-72302667D01*
X77782908Y-72232251D01*
X77794469Y-72177102D01*
X77812208Y-72129981D01*
X77838318Y-72083647D01*
X77844585Y-72074067D01*
X77869017Y-72037378D01*
X76963689Y-72037378D01*
X76963493Y-73722245D01*
G36*
X79335994Y-74492711D02*
G01*
X79335268Y-74570158D01*
X79326689Y-74721594D01*
X79307833Y-74858283D01*
X79277837Y-74984276D01*
X79235836Y-75103625D01*
X79180969Y-75220381D01*
X79114167Y-75331179D01*
X79023363Y-75444739D01*
X78919708Y-75540211D01*
X78803887Y-75617073D01*
X78676586Y-75674797D01*
X78538489Y-75712858D01*
X78500793Y-75718666D01*
X78421752Y-75724396D01*
X78333629Y-75724583D01*
X78244236Y-75719539D01*
X78161384Y-75709578D01*
X78092887Y-75695012D01*
X78062035Y-75685364D01*
X77984730Y-75655123D01*
X77907679Y-75617617D01*
X77838200Y-75576614D01*
X77783615Y-75535879D01*
X77760916Y-75516505D01*
X77738201Y-75498662D01*
X77726779Y-75491778D01*
X77725537Y-75493424D01*
X77722728Y-75511205D01*
X77720776Y-75544370D01*
X77720045Y-75587733D01*
X77720045Y-75683689D01*
X76861896Y-75683689D01*
X76896161Y-75622974D01*
X76901355Y-75613868D01*
X76909715Y-75599249D01*
X76917288Y-75585173D01*
X76924112Y-75570540D01*
X76930227Y-75554249D01*
X76935673Y-75535198D01*
X76940487Y-75512286D01*
X76944708Y-75484413D01*
X76948377Y-75450478D01*
X76951531Y-75409379D01*
X76954211Y-75360015D01*
X76956454Y-75301286D01*
X76958299Y-75232090D01*
X76959787Y-75151326D01*
X76960955Y-75057894D01*
X76961844Y-74950692D01*
X76962491Y-74828620D01*
X76962936Y-74690576D01*
X76963218Y-74535459D01*
X76963375Y-74362168D01*
X76963448Y-74169603D01*
X76963474Y-73956662D01*
X76963485Y-73820530D01*
X77765200Y-73820530D01*
X77765200Y-74970721D01*
X77835756Y-75017089D01*
X77876417Y-75040791D01*
X77930546Y-75066639D01*
X77979689Y-75084829D01*
X78043165Y-75100551D01*
X78139331Y-75111541D01*
X78223900Y-75103365D01*
X78297219Y-75075805D01*
X78359637Y-75028642D01*
X78411502Y-74961658D01*
X78453160Y-74874633D01*
X78484962Y-74767350D01*
X78487545Y-74755009D01*
X78496000Y-74693772D01*
X78501663Y-74616692D01*
X78504576Y-74529002D01*
X78504783Y-74435934D01*
X78502330Y-74342720D01*
X78497261Y-74254594D01*
X78489619Y-74176788D01*
X78479448Y-74114533D01*
X78478167Y-74108666D01*
X78449126Y-73998121D01*
X78414610Y-73907575D01*
X78373456Y-73834953D01*
X78324499Y-73778181D01*
X78266574Y-73735184D01*
X78234620Y-73719615D01*
X78161784Y-73700722D01*
X78080443Y-73697465D01*
X77995319Y-73709389D01*
X77911133Y-73736040D01*
X77832608Y-73776962D01*
X77765200Y-73820530D01*
X76963485Y-73820530D01*
X76963493Y-73722245D01*
X76963689Y-72037378D01*
X77869017Y-72037378D01*
X77844585Y-72074067D01*
X77838318Y-72083647D01*
X77812208Y-72129981D01*
X77794469Y-72177102D01*
X77782908Y-72232251D01*
X77775331Y-72302667D01*
X77774839Y-72309650D01*
X77773062Y-72347641D01*
X77771444Y-72401576D01*
X77769999Y-72468703D01*
X77768740Y-72546271D01*
X77767680Y-72631528D01*
X77766829Y-72721724D01*
X77766203Y-72814107D01*
X77765812Y-72905925D01*
X77765670Y-72994427D01*
X77765790Y-73076862D01*
X77766183Y-73150479D01*
X77766862Y-73212526D01*
X77767841Y-73260251D01*
X77769132Y-73290904D01*
X77770747Y-73301733D01*
X77778957Y-73297333D01*
X77800647Y-73282362D01*
X77830014Y-73260448D01*
X77878879Y-73226236D01*
X77967125Y-73179714D01*
X78065916Y-73146046D01*
X78178510Y-73124231D01*
X78308164Y-73113265D01*
X78400670Y-73112219D01*
X78522011Y-73122014D01*
X78632099Y-73146174D01*
X78735389Y-73185785D01*
X78836338Y-73241932D01*
X78881503Y-73272883D01*
X78986911Y-73364115D01*
X79078538Y-73473106D01*
X79156332Y-73599726D01*
X79220241Y-73743845D01*
X79270214Y-73905332D01*
X79306198Y-74084059D01*
X79328143Y-74279895D01*
X79333900Y-74435934D01*
X79335994Y-74492711D01*
G37*
X80476426Y-73116552D02*
X80324508Y-73136567D01*
X80189244Y-73170202D01*
X80069761Y-73217725D01*
X79965185Y-73279405D01*
X79887576Y-73342965D01*
X79818735Y-73417099D01*
X79764994Y-73496871D01*
X79722090Y-73589091D01*
X79706616Y-73632161D01*
X79693756Y-73671142D01*
X79682554Y-73707289D01*
X79672880Y-73742434D01*
X79664604Y-73778410D01*
X79657597Y-73817050D01*
X79651728Y-73860185D01*
X79646869Y-73909649D01*
X79642890Y-73967273D01*
X79639660Y-74034891D01*
X79637051Y-74114334D01*
X79634933Y-74207436D01*
X79633176Y-74316027D01*
X79631651Y-74441942D01*
X79630228Y-74587012D01*
X79628975Y-74729778D01*
X79627649Y-74885968D01*
X79626444Y-75021239D01*
X79625234Y-75137246D01*
X79623894Y-75235645D01*
X79622300Y-75318093D01*
X79620325Y-75386246D01*
X79617844Y-75441760D01*
X79614731Y-75486292D01*
X79610862Y-75521498D01*
X79606111Y-75549034D01*
X79600352Y-75570556D01*
X79593461Y-75587722D01*
X79585311Y-75602186D01*
X79575777Y-75615606D01*
X79564734Y-75629638D01*
X79560434Y-75635071D01*
X79544614Y-75657910D01*
X79537578Y-75673463D01*
X79537556Y-75673922D01*
X79548433Y-75676121D01*
X79579418Y-75678147D01*
X79628043Y-75679942D01*
X79691837Y-75681451D01*
X79768331Y-75682616D01*
X79855056Y-75683380D01*
X79949543Y-75683686D01*
X79960450Y-75683689D01*
X80383343Y-75683689D01*
X80386605Y-75587622D01*
X80389867Y-75491556D01*
X80451956Y-75542543D01*
X80549286Y-75610057D01*
X80659187Y-75664749D01*
X80745651Y-75694978D01*
X80814722Y-75709666D01*
X80898075Y-75719659D01*
X80987841Y-75724646D01*
X81076155Y-75724313D01*
X81155149Y-75718351D01*
X81191378Y-75712638D01*
X81331397Y-75674776D01*
X81457822Y-75619932D01*
X81569740Y-75548924D01*
X81666238Y-75462568D01*
X81746400Y-75361679D01*
X81809313Y-75247076D01*
X81853688Y-75120984D01*
X81866022Y-75064401D01*
X81873632Y-75002202D01*
X81877261Y-74927363D01*
X81877755Y-74893467D01*
X81877690Y-74890282D01*
X81117752Y-74890282D01*
X81108459Y-74965333D01*
X81080272Y-75029160D01*
X81031803Y-75084798D01*
X81026746Y-75089211D01*
X80978452Y-75124037D01*
X80926743Y-75146620D01*
X80866011Y-75158540D01*
X80790648Y-75161383D01*
X80772541Y-75160978D01*
X80718722Y-75158325D01*
X80678692Y-75152909D01*
X80643676Y-75142745D01*
X80604897Y-75125850D01*
X80594255Y-75120672D01*
X80533604Y-75084844D01*
X80486785Y-75042212D01*
X80474048Y-75026973D01*
X80429378Y-74970462D01*
X80429378Y-74774586D01*
X80429914Y-74695939D01*
X80431604Y-74637988D01*
X80434572Y-74598875D01*
X80438943Y-74576741D01*
X80443028Y-74570274D01*
X80458953Y-74567111D01*
X80492736Y-74564488D01*
X80539660Y-74562655D01*
X80595007Y-74561857D01*
X80603894Y-74561842D01*
X80724670Y-74567096D01*
X80827340Y-74583263D01*
X80913894Y-74610961D01*
X80986319Y-74650808D01*
X81041249Y-74697758D01*
X81085796Y-74755645D01*
X81110520Y-74818693D01*
X81117752Y-74890282D01*
X81877690Y-74890282D01*
X81875822Y-74799712D01*
X81867478Y-74720812D01*
X81851232Y-74649590D01*
X81825595Y-74578864D01*
X81801599Y-74526493D01*
X81742980Y-74431196D01*
X81664883Y-74343170D01*
X81569685Y-74264017D01*
X81459762Y-74195340D01*
X81337490Y-74138741D01*
X81205245Y-74095821D01*
X81140578Y-74080882D01*
X81004396Y-74058777D01*
X80855951Y-74044194D01*
X80704495Y-74037813D01*
X80577936Y-74039445D01*
X80416050Y-74046224D01*
X80423470Y-73987245D01*
X80442762Y-73888092D01*
X80473896Y-73807372D01*
X80517731Y-73744466D01*
X80575129Y-73698756D01*
X80646952Y-73669622D01*
X80734059Y-73656447D01*
X80837314Y-73658611D01*
X80875289Y-73662612D01*
X81016480Y-73687780D01*
X81153293Y-73728814D01*
X81247822Y-73766815D01*
X81292982Y-73786190D01*
X81331415Y-73801760D01*
X81357766Y-73811405D01*
X81365454Y-73813452D01*
X81375198Y-73804374D01*
X81391917Y-73775405D01*
X81415768Y-73726217D01*
X81446907Y-73656484D01*
X81485493Y-73565879D01*
X81492090Y-73550089D01*
X81522147Y-73477772D01*
X81549126Y-73412425D01*
X81571864Y-73356906D01*
X81589194Y-73314072D01*
X81599952Y-73286781D01*
X81603059Y-73277942D01*
X81593060Y-73273187D01*
X81566783Y-73267910D01*
X81538511Y-73264231D01*
X81508354Y-73259474D01*
X81460567Y-73250028D01*
X81399388Y-73236820D01*
X81329054Y-73220776D01*
X81253806Y-73202820D01*
X81225245Y-73195797D01*
X81120184Y-73170209D01*
X81032520Y-73150147D01*
X80957932Y-73134969D01*
X80892097Y-73124035D01*
X80830693Y-73116704D01*
X80769398Y-73112335D01*
X80703890Y-73110287D01*
X80645872Y-73109889D01*
X80476426Y-73116552D01*
G36*
X81877755Y-74893467D02*
G01*
X81877261Y-74927363D01*
X81873632Y-75002202D01*
X81866022Y-75064401D01*
X81853688Y-75120984D01*
X81809313Y-75247076D01*
X81746400Y-75361679D01*
X81666238Y-75462568D01*
X81569740Y-75548924D01*
X81457822Y-75619932D01*
X81331397Y-75674776D01*
X81191378Y-75712638D01*
X81155149Y-75718351D01*
X81076155Y-75724313D01*
X80987841Y-75724646D01*
X80898075Y-75719659D01*
X80814722Y-75709666D01*
X80745651Y-75694978D01*
X80659187Y-75664749D01*
X80549286Y-75610057D01*
X80451956Y-75542543D01*
X80389867Y-75491556D01*
X80386605Y-75587622D01*
X80383343Y-75683689D01*
X79960450Y-75683689D01*
X79949543Y-75683686D01*
X79855056Y-75683380D01*
X79768331Y-75682616D01*
X79691837Y-75681451D01*
X79628043Y-75679942D01*
X79579418Y-75678147D01*
X79548433Y-75676121D01*
X79537556Y-75673922D01*
X79537578Y-75673463D01*
X79544614Y-75657910D01*
X79560434Y-75635071D01*
X79564734Y-75629638D01*
X79575777Y-75615606D01*
X79585311Y-75602186D01*
X79593461Y-75587722D01*
X79600352Y-75570556D01*
X79606111Y-75549034D01*
X79610862Y-75521498D01*
X79614731Y-75486292D01*
X79617844Y-75441760D01*
X79620325Y-75386246D01*
X79622300Y-75318093D01*
X79623894Y-75235645D01*
X79625234Y-75137246D01*
X79626444Y-75021239D01*
X79627649Y-74885968D01*
X79628595Y-74774586D01*
X80429378Y-74774586D01*
X80429378Y-74970462D01*
X80474048Y-75026973D01*
X80486785Y-75042212D01*
X80533604Y-75084844D01*
X80594255Y-75120672D01*
X80604897Y-75125850D01*
X80643676Y-75142745D01*
X80678692Y-75152909D01*
X80718722Y-75158325D01*
X80772541Y-75160978D01*
X80790648Y-75161383D01*
X80866011Y-75158540D01*
X80926743Y-75146620D01*
X80978452Y-75124037D01*
X81026746Y-75089211D01*
X81031803Y-75084798D01*
X81080272Y-75029160D01*
X81108459Y-74965333D01*
X81117752Y-74890282D01*
X81110520Y-74818693D01*
X81085796Y-74755645D01*
X81041249Y-74697758D01*
X80986319Y-74650808D01*
X80913894Y-74610961D01*
X80827340Y-74583263D01*
X80724670Y-74567096D01*
X80603894Y-74561842D01*
X80595007Y-74561857D01*
X80539660Y-74562655D01*
X80492736Y-74564488D01*
X80458953Y-74567111D01*
X80443028Y-74570274D01*
X80438943Y-74576741D01*
X80434572Y-74598875D01*
X80431604Y-74637988D01*
X80429914Y-74695939D01*
X80429378Y-74774586D01*
X79628595Y-74774586D01*
X79628975Y-74729778D01*
X79630228Y-74587012D01*
X79631651Y-74441942D01*
X79633176Y-74316027D01*
X79634933Y-74207436D01*
X79637051Y-74114334D01*
X79639660Y-74034891D01*
X79642890Y-73967273D01*
X79646869Y-73909649D01*
X79651728Y-73860185D01*
X79657597Y-73817050D01*
X79664604Y-73778410D01*
X79672880Y-73742434D01*
X79682554Y-73707289D01*
X79693756Y-73671142D01*
X79706616Y-73632161D01*
X79722090Y-73589091D01*
X79764994Y-73496871D01*
X79818735Y-73417099D01*
X79887576Y-73342965D01*
X79965185Y-73279405D01*
X80069761Y-73217725D01*
X80189244Y-73170202D01*
X80324508Y-73136567D01*
X80476426Y-73116552D01*
X80645872Y-73109889D01*
X80703890Y-73110287D01*
X80769398Y-73112335D01*
X80830693Y-73116704D01*
X80892097Y-73124035D01*
X80957932Y-73134969D01*
X81032520Y-73150147D01*
X81120184Y-73170209D01*
X81225245Y-73195797D01*
X81253806Y-73202820D01*
X81329054Y-73220776D01*
X81399388Y-73236820D01*
X81460567Y-73250028D01*
X81508354Y-73259474D01*
X81538511Y-73264231D01*
X81566783Y-73267910D01*
X81593060Y-73273187D01*
X81603059Y-73277942D01*
X81599952Y-73286781D01*
X81589194Y-73314072D01*
X81571864Y-73356906D01*
X81549126Y-73412425D01*
X81522147Y-73477772D01*
X81492090Y-73550089D01*
X81485493Y-73565879D01*
X81446907Y-73656484D01*
X81415768Y-73726217D01*
X81391917Y-73775405D01*
X81375198Y-73804374D01*
X81365454Y-73813452D01*
X81357766Y-73811405D01*
X81331415Y-73801760D01*
X81292982Y-73786190D01*
X81247822Y-73766815D01*
X81153293Y-73728814D01*
X81016480Y-73687780D01*
X80875289Y-73662612D01*
X80837314Y-73658611D01*
X80734059Y-73656447D01*
X80646952Y-73669622D01*
X80575129Y-73698756D01*
X80517731Y-73744466D01*
X80473896Y-73807372D01*
X80442762Y-73888092D01*
X80423470Y-73987245D01*
X80416050Y-74046224D01*
X80577936Y-74039445D01*
X80704495Y-74037813D01*
X80855951Y-74044194D01*
X81004396Y-74058777D01*
X81140578Y-74080882D01*
X81205245Y-74095821D01*
X81337490Y-74138741D01*
X81459762Y-74195340D01*
X81569685Y-74264017D01*
X81664883Y-74343170D01*
X81742980Y-74431196D01*
X81801599Y-74526493D01*
X81825595Y-74578864D01*
X81851232Y-74649590D01*
X81867478Y-74720812D01*
X81875822Y-74799712D01*
X81877690Y-74890282D01*
X81877755Y-74893467D01*
G37*
X86096400Y-71739054D02*
X86085535Y-71852993D01*
X86053918Y-71960616D01*
X86003015Y-72059615D01*
X85934293Y-72147684D01*
X85849219Y-72222516D01*
X85752232Y-72280384D01*
X85645964Y-72320005D01*
X85538950Y-72338573D01*
X85433300Y-72337434D01*
X85331125Y-72317930D01*
X85234534Y-72281406D01*
X85145638Y-72229205D01*
X85066546Y-72162673D01*
X84999369Y-72083152D01*
X84946217Y-71991987D01*
X84909199Y-71890523D01*
X84890427Y-71780102D01*
X84888489Y-71730206D01*
X84888489Y-71642267D01*
X84836560Y-71642267D01*
X84800253Y-71645111D01*
X84773355Y-71656911D01*
X84746249Y-71680649D01*
X84707867Y-71719031D01*
X84707867Y-73910602D01*
X84707876Y-74172739D01*
X84707908Y-74413241D01*
X84707972Y-74633048D01*
X84708076Y-74833101D01*
X84708227Y-75014344D01*
X84708434Y-75177716D01*
X84708706Y-75324160D01*
X84709050Y-75454617D01*
X84709474Y-75570029D01*
X84709987Y-75671338D01*
X84710597Y-75759484D01*
X84711312Y-75835410D01*
X84712140Y-75900057D01*
X84713089Y-75954367D01*
X84714167Y-75999280D01*
X84715383Y-76035740D01*
X84716745Y-76064687D01*
X84718261Y-76087063D01*
X84719938Y-76103809D01*
X84721786Y-76115868D01*
X84723813Y-76124180D01*
X84726025Y-76129687D01*
X84727108Y-76131537D01*
X84731271Y-76138549D01*
X84734805Y-76144996D01*
X84738635Y-76150900D01*
X84743682Y-76156286D01*
X84750871Y-76161178D01*
X84761123Y-76165598D01*
X84775364Y-76169572D01*
X84794514Y-76173121D01*
X84819499Y-76176270D01*
X84851240Y-76179042D01*
X84890662Y-76181461D01*
X84938686Y-76183551D01*
X84996237Y-76185335D01*
X85064237Y-76186837D01*
X85143610Y-76188080D01*
X85235279Y-76189089D01*
X85340166Y-76189885D01*
X85459196Y-76190494D01*
X85593290Y-76190939D01*
X85743373Y-76191243D01*
X85910367Y-76191430D01*
X86095196Y-76191524D01*
X86298783Y-76191548D01*
X86522050Y-76191525D01*
X86765922Y-76191480D01*
X87031321Y-76191437D01*
X87069704Y-76191432D01*
X87336682Y-76191389D01*
X87582002Y-76191318D01*
X87806583Y-76191213D01*
X88011345Y-76191066D01*
X88197206Y-76190869D01*
X88365088Y-76190616D01*
X88515908Y-76190300D01*
X88650587Y-76189913D01*
X88770044Y-76189447D01*
X88875199Y-76188897D01*
X88966971Y-76188253D01*
X89046279Y-76187511D01*
X89114043Y-76186661D01*
X89171182Y-76185697D01*
X89218617Y-76184611D01*
X89257266Y-76183397D01*
X89288049Y-76182047D01*
X89311885Y-76180555D01*
X89329694Y-76178911D01*
X89342395Y-76177111D01*
X89350908Y-76175145D01*
X89355266Y-76173477D01*
X89363728Y-76169906D01*
X89371497Y-76167270D01*
X89378602Y-76164634D01*
X89385073Y-76161062D01*
X89390939Y-76155621D01*
X89396229Y-76147375D01*
X89400974Y-76135390D01*
X89405202Y-76118731D01*
X89408943Y-76096463D01*
X89412227Y-76067652D01*
X89415083Y-76031363D01*
X89417540Y-75986661D01*
X89419629Y-75932611D01*
X89421378Y-75868279D01*
X89422817Y-75792730D01*
X89423976Y-75705030D01*
X89424883Y-75604243D01*
X89425569Y-75489434D01*
X89426063Y-75359670D01*
X89426395Y-75214015D01*
X89426593Y-75051535D01*
X89426687Y-74871295D01*
X89426708Y-74672360D01*
X89426685Y-74453796D01*
X89426646Y-74214668D01*
X89426622Y-73954040D01*
X89426622Y-73911889D01*
X89426636Y-73648992D01*
X89426661Y-73407732D01*
X89426671Y-73187165D01*
X89426642Y-72986352D01*
X89426548Y-72804349D01*
X89426362Y-72640216D01*
X89426059Y-72493011D01*
X89425614Y-72361792D01*
X89425034Y-72251867D01*
X89122197Y-72251867D01*
X89082407Y-72309711D01*
X89071236Y-72325479D01*
X89061166Y-72339441D01*
X89052138Y-72352784D01*
X89044097Y-72366693D01*
X89036986Y-72382356D01*
X89030747Y-72400958D01*
X89025325Y-72423686D01*
X89020662Y-72451727D01*
X89016701Y-72486267D01*
X89013385Y-72528492D01*
X89010659Y-72579589D01*
X89008464Y-72640744D01*
X89006745Y-72713144D01*
X89005444Y-72797975D01*
X89004505Y-72896422D01*
X89003870Y-73009674D01*
X89003484Y-73138916D01*
X89003288Y-73285334D01*
X89003227Y-73450116D01*
X89003243Y-73634447D01*
X89003280Y-73839513D01*
X89003289Y-73962133D01*
X89003265Y-74179082D01*
X89003231Y-74374642D01*
X89003243Y-74549999D01*
X89003358Y-74706341D01*
X89003630Y-74844857D01*
X89004118Y-74966734D01*
X89004876Y-75073160D01*
X89005962Y-75165322D01*
X89007431Y-75244409D01*
X89009340Y-75311608D01*
X89011744Y-75368107D01*
X89014701Y-75415093D01*
X89018266Y-75453755D01*
X89022495Y-75485280D01*
X89027446Y-75510855D01*
X89033173Y-75531670D01*
X89039733Y-75548911D01*
X89047183Y-75563765D01*
X89055579Y-75577422D01*
X89064976Y-75591069D01*
X89075432Y-75605893D01*
X89081523Y-75614783D01*
X89120296Y-75672400D01*
X88588732Y-75672400D01*
X88465483Y-75672365D01*
X88362987Y-75672215D01*
X88279420Y-75671878D01*
X88212956Y-75671286D01*
X88161771Y-75670367D01*
X88124041Y-75669051D01*
X88097940Y-75667269D01*
X88081644Y-75664951D01*
X88073328Y-75662026D01*
X88071168Y-75658424D01*
X88073339Y-75654075D01*
X88074535Y-75652645D01*
X88099685Y-75615573D01*
X88125583Y-75562772D01*
X88149192Y-75500770D01*
X88157461Y-75474357D01*
X88162078Y-75456416D01*
X88165979Y-75435355D01*
X88169248Y-75409089D01*
X88171966Y-75375532D01*
X88174215Y-75332599D01*
X88176077Y-75278204D01*
X88177636Y-75210262D01*
X88178972Y-75126688D01*
X88180169Y-75025395D01*
X88181308Y-74904300D01*
X88181685Y-74859600D01*
X88182702Y-74734449D01*
X88183460Y-74630082D01*
X88183903Y-74544707D01*
X88183970Y-74476533D01*
X88183605Y-74423765D01*
X88182748Y-74384614D01*
X88181341Y-74357285D01*
X88179325Y-74339986D01*
X88176643Y-74330926D01*
X88173236Y-74328312D01*
X88169044Y-74330351D01*
X88164571Y-74334667D01*
X88154216Y-74347602D01*
X88132158Y-74376676D01*
X88099957Y-74419759D01*
X88059174Y-74474718D01*
X88011370Y-74539423D01*
X87958105Y-74611742D01*
X87900940Y-74689544D01*
X87841437Y-74770698D01*
X87781155Y-74853072D01*
X87721655Y-74934536D01*
X87664498Y-75012957D01*
X87611245Y-75086204D01*
X87563457Y-75152147D01*
X87522693Y-75208654D01*
X87490516Y-75253593D01*
X87468485Y-75284834D01*
X87463917Y-75291466D01*
X87440996Y-75328369D01*
X87414188Y-75376359D01*
X87388789Y-75425897D01*
X87385568Y-75432577D01*
X87363890Y-75480772D01*
X87351304Y-75518334D01*
X87345574Y-75554160D01*
X87344456Y-75596200D01*
X87345090Y-75672400D01*
X86190651Y-75672400D01*
X86281815Y-75578669D01*
X86328612Y-75528775D01*
X86378899Y-75472295D01*
X86424944Y-75418026D01*
X86445369Y-75392673D01*
X86475807Y-75353128D01*
X86515862Y-75299916D01*
X86564361Y-75234667D01*
X86620135Y-75159011D01*
X86682011Y-75074577D01*
X86748819Y-74982994D01*
X86819387Y-74885892D01*
X86892545Y-74784901D01*
X86967121Y-74681650D01*
X87041944Y-74577768D01*
X87115843Y-74474885D01*
X87187646Y-74374631D01*
X87256184Y-74278636D01*
X87320284Y-74188527D01*
X87378775Y-74105936D01*
X87430486Y-74032492D01*
X87474247Y-73969824D01*
X87508885Y-73919561D01*
X87533230Y-73883334D01*
X87546111Y-73862771D01*
X87547869Y-73858668D01*
X87539910Y-73847342D01*
X87519115Y-73820162D01*
X87486847Y-73778829D01*
X87444470Y-73725044D01*
X87393347Y-73660506D01*
X87334841Y-73586918D01*
X87270314Y-73505978D01*
X87201131Y-73419388D01*
X87128653Y-73328848D01*
X87054246Y-73236060D01*
X86994517Y-73161702D01*
X85983511Y-73161702D01*
X85977602Y-73174659D01*
X85963272Y-73196908D01*
X85962225Y-73198391D01*
X85943438Y-73228544D01*
X85923791Y-73265375D01*
X85919892Y-73273511D01*
X85916356Y-73281940D01*
X85913230Y-73292059D01*
X85910486Y-73305260D01*
X85908092Y-73322938D01*
X85906019Y-73346484D01*
X85904235Y-73377293D01*
X85902712Y-73416757D01*
X85901419Y-73466269D01*
X85900326Y-73527223D01*
X85899403Y-73601011D01*
X85898619Y-73689028D01*
X85897945Y-73792665D01*
X85897350Y-73913316D01*
X85896805Y-74052374D01*
X85896279Y-74211232D01*
X85895745Y-74390089D01*
X85895206Y-74575207D01*
X85894772Y-74739145D01*
X85894509Y-74883303D01*
X85894484Y-75009079D01*
X85894765Y-75117871D01*
X85895419Y-75211077D01*
X85896514Y-75290097D01*
X85898118Y-75356328D01*
X85900297Y-75411170D01*
X85903119Y-75456021D01*
X85906651Y-75492278D01*
X85910961Y-75521341D01*
X85916117Y-75544609D01*
X85922185Y-75563479D01*
X85929233Y-75579351D01*
X85937329Y-75593622D01*
X85946540Y-75607691D01*
X85955040Y-75620158D01*
X85972176Y-75646452D01*
X85982322Y-75664037D01*
X85983511Y-75667257D01*
X85972604Y-75668334D01*
X85941411Y-75669335D01*
X85892223Y-75670235D01*
X85827333Y-75671010D01*
X85749030Y-75671637D01*
X85659607Y-75672091D01*
X85561356Y-75672349D01*
X85492445Y-75672400D01*
X85387452Y-75672180D01*
X85290610Y-75671548D01*
X85204107Y-75670549D01*
X85130132Y-75669227D01*
X85070874Y-75667626D01*
X85028520Y-75665791D01*
X85005260Y-75663765D01*
X85001378Y-75662493D01*
X85009076Y-75647591D01*
X85017074Y-75639560D01*
X85030246Y-75622434D01*
X85047485Y-75592183D01*
X85059407Y-75567622D01*
X85086045Y-75508711D01*
X85089120Y-74331845D01*
X85092195Y-73154978D01*
X85537853Y-73154978D01*
X85635670Y-73155142D01*
X85726064Y-73155611D01*
X85806630Y-73156347D01*
X85874962Y-73157316D01*
X85928656Y-73158480D01*
X85965305Y-73159803D01*
X85982504Y-73161249D01*
X85983511Y-73161702D01*
X86994517Y-73161702D01*
X86979270Y-73142722D01*
X86905090Y-73050537D01*
X86833069Y-72961204D01*
X86764569Y-72876424D01*
X86700955Y-72797898D01*
X86643588Y-72727326D01*
X86593833Y-72666409D01*
X86553052Y-72616847D01*
X86535888Y-72596178D01*
X86449596Y-72495516D01*
X86372997Y-72412259D01*
X86304183Y-72344438D01*
X86241248Y-72290089D01*
X86231867Y-72282722D01*
X86192356Y-72252117D01*
X87324116Y-72251867D01*
X87318827Y-72299844D01*
X87322130Y-72357188D01*
X87343661Y-72425463D01*
X87383635Y-72505212D01*
X87428943Y-72577495D01*
X87445161Y-72600140D01*
X87473214Y-72637696D01*
X87511430Y-72688021D01*
X87558137Y-72748973D01*
X87611661Y-72818411D01*
X87670331Y-72894194D01*
X87732475Y-72974180D01*
X87796421Y-73056228D01*
X87860495Y-73138196D01*
X87923027Y-73217943D01*
X87982343Y-73293327D01*
X88036771Y-73362207D01*
X88084639Y-73422442D01*
X88124275Y-73471889D01*
X88154006Y-73508408D01*
X88172161Y-73529858D01*
X88175220Y-73533156D01*
X88178079Y-73525149D01*
X88180293Y-73494855D01*
X88181857Y-73442556D01*
X88182767Y-73368531D01*
X88183020Y-73273063D01*
X88182613Y-73156434D01*
X88181704Y-73036445D01*
X88180382Y-72904333D01*
X88178857Y-72792594D01*
X88176881Y-72699025D01*
X88174206Y-72621419D01*
X88170582Y-72557574D01*
X88165761Y-72505283D01*
X88159494Y-72462344D01*
X88151532Y-72426551D01*
X88141627Y-72395700D01*
X88129531Y-72367586D01*
X88114993Y-72340005D01*
X88100311Y-72314966D01*
X88062314Y-72251867D01*
X89122197Y-72251867D01*
X89425034Y-72251867D01*
X89425001Y-72245617D01*
X89424195Y-72143544D01*
X89423170Y-72054633D01*
X89421900Y-71977941D01*
X89420360Y-71912527D01*
X89418524Y-71857449D01*
X89416367Y-71811765D01*
X89413863Y-71774534D01*
X89410987Y-71744813D01*
X89407713Y-71721662D01*
X89404015Y-71704139D01*
X89399869Y-71691301D01*
X89395247Y-71682208D01*
X89390126Y-71675918D01*
X89384478Y-71671488D01*
X89378279Y-71667978D01*
X89371504Y-71664445D01*
X89365508Y-71660876D01*
X89360275Y-71658300D01*
X89352099Y-71655972D01*
X89339886Y-71653878D01*
X89322541Y-71652007D01*
X89298969Y-71650347D01*
X89268077Y-71648884D01*
X89228768Y-71647608D01*
X89179950Y-71646504D01*
X89120527Y-71645561D01*
X89049404Y-71644767D01*
X88965488Y-71644109D01*
X88867683Y-71643575D01*
X88754894Y-71643153D01*
X88626029Y-71642829D01*
X88479991Y-71642592D01*
X88315686Y-71642430D01*
X88132020Y-71642330D01*
X87927897Y-71642280D01*
X87716753Y-71642267D01*
X86096400Y-71642267D01*
X86096400Y-71739054D01*
G36*
X89425614Y-72361792D02*
G01*
X89426059Y-72493011D01*
X89426362Y-72640216D01*
X89426548Y-72804349D01*
X89426642Y-72986352D01*
X89426671Y-73187165D01*
X89426661Y-73407732D01*
X89426636Y-73648992D01*
X89426622Y-73911889D01*
X89426622Y-73954040D01*
X89426646Y-74214668D01*
X89426685Y-74453796D01*
X89426708Y-74672360D01*
X89426687Y-74871295D01*
X89426593Y-75051535D01*
X89426395Y-75214015D01*
X89426063Y-75359670D01*
X89425569Y-75489434D01*
X89424883Y-75604243D01*
X89423976Y-75705030D01*
X89422817Y-75792730D01*
X89421378Y-75868279D01*
X89419629Y-75932611D01*
X89417540Y-75986661D01*
X89415083Y-76031363D01*
X89412227Y-76067652D01*
X89408943Y-76096463D01*
X89405202Y-76118731D01*
X89400974Y-76135390D01*
X89396229Y-76147375D01*
X89390939Y-76155621D01*
X89385073Y-76161062D01*
X89378602Y-76164634D01*
X89371497Y-76167270D01*
X89363728Y-76169906D01*
X89355266Y-76173477D01*
X89350908Y-76175145D01*
X89342395Y-76177111D01*
X89329694Y-76178911D01*
X89311885Y-76180555D01*
X89288049Y-76182047D01*
X89257266Y-76183397D01*
X89218617Y-76184611D01*
X89171182Y-76185697D01*
X89114043Y-76186661D01*
X89046279Y-76187511D01*
X88966971Y-76188253D01*
X88875199Y-76188897D01*
X88770044Y-76189447D01*
X88650587Y-76189913D01*
X88515908Y-76190300D01*
X88365088Y-76190616D01*
X88197206Y-76190869D01*
X88011345Y-76191066D01*
X87806583Y-76191213D01*
X87582002Y-76191318D01*
X87336682Y-76191389D01*
X87069704Y-76191432D01*
X87031321Y-76191437D01*
X86765922Y-76191480D01*
X86522050Y-76191525D01*
X86298783Y-76191548D01*
X86095196Y-76191524D01*
X85910367Y-76191430D01*
X85743373Y-76191243D01*
X85593290Y-76190939D01*
X85459196Y-76190494D01*
X85340166Y-76189885D01*
X85235279Y-76189089D01*
X85143610Y-76188080D01*
X85064237Y-76186837D01*
X84996237Y-76185335D01*
X84938686Y-76183551D01*
X84890662Y-76181461D01*
X84851240Y-76179042D01*
X84819499Y-76176270D01*
X84794514Y-76173121D01*
X84775364Y-76169572D01*
X84761123Y-76165598D01*
X84750871Y-76161178D01*
X84743682Y-76156286D01*
X84738635Y-76150900D01*
X84734805Y-76144996D01*
X84731271Y-76138549D01*
X84727108Y-76131537D01*
X84726025Y-76129687D01*
X84723813Y-76124180D01*
X84721786Y-76115868D01*
X84719938Y-76103809D01*
X84718261Y-76087063D01*
X84716745Y-76064687D01*
X84715383Y-76035740D01*
X84714167Y-75999280D01*
X84713089Y-75954367D01*
X84712140Y-75900057D01*
X84711312Y-75835410D01*
X84710597Y-75759484D01*
X84709987Y-75671338D01*
X84709942Y-75662493D01*
X85001378Y-75662493D01*
X85005260Y-75663765D01*
X85028520Y-75665791D01*
X85070874Y-75667626D01*
X85130132Y-75669227D01*
X85204107Y-75670549D01*
X85290610Y-75671548D01*
X85387452Y-75672180D01*
X85492445Y-75672400D01*
X86190651Y-75672400D01*
X87345090Y-75672400D01*
X87344456Y-75596200D01*
X87345574Y-75554160D01*
X87351304Y-75518334D01*
X87363890Y-75480772D01*
X87385568Y-75432577D01*
X87388789Y-75425897D01*
X87414188Y-75376359D01*
X87440996Y-75328369D01*
X87463917Y-75291466D01*
X87468485Y-75284834D01*
X87490516Y-75253593D01*
X87522693Y-75208654D01*
X87563457Y-75152147D01*
X87611245Y-75086204D01*
X87664498Y-75012957D01*
X87721655Y-74934536D01*
X87781155Y-74853072D01*
X87841437Y-74770698D01*
X87900940Y-74689544D01*
X87958105Y-74611742D01*
X88011370Y-74539423D01*
X88059174Y-74474718D01*
X88099957Y-74419759D01*
X88132158Y-74376676D01*
X88154216Y-74347602D01*
X88164571Y-74334667D01*
X88169044Y-74330351D01*
X88173236Y-74328312D01*
X88176643Y-74330926D01*
X88179325Y-74339986D01*
X88181341Y-74357285D01*
X88182748Y-74384614D01*
X88183605Y-74423765D01*
X88183970Y-74476533D01*
X88183903Y-74544707D01*
X88183460Y-74630082D01*
X88182702Y-74734449D01*
X88181685Y-74859600D01*
X88181308Y-74904300D01*
X88180169Y-75025395D01*
X88178972Y-75126688D01*
X88177636Y-75210262D01*
X88176077Y-75278204D01*
X88174215Y-75332599D01*
X88171966Y-75375532D01*
X88169248Y-75409089D01*
X88165979Y-75435355D01*
X88162078Y-75456416D01*
X88157461Y-75474357D01*
X88149192Y-75500770D01*
X88125583Y-75562772D01*
X88099685Y-75615573D01*
X88074535Y-75652645D01*
X88073339Y-75654075D01*
X88071168Y-75658424D01*
X88073328Y-75662026D01*
X88081644Y-75664951D01*
X88097940Y-75667269D01*
X88124041Y-75669051D01*
X88161771Y-75670367D01*
X88212956Y-75671286D01*
X88279420Y-75671878D01*
X88362987Y-75672215D01*
X88465483Y-75672365D01*
X88588732Y-75672400D01*
X89120296Y-75672400D01*
X89081523Y-75614783D01*
X89075432Y-75605893D01*
X89064976Y-75591069D01*
X89055579Y-75577422D01*
X89047183Y-75563765D01*
X89039733Y-75548911D01*
X89033173Y-75531670D01*
X89027446Y-75510855D01*
X89022495Y-75485280D01*
X89018266Y-75453755D01*
X89014701Y-75415093D01*
X89011744Y-75368107D01*
X89009340Y-75311608D01*
X89007431Y-75244409D01*
X89005962Y-75165322D01*
X89004876Y-75073160D01*
X89004118Y-74966734D01*
X89003630Y-74844857D01*
X89003358Y-74706341D01*
X89003243Y-74549999D01*
X89003231Y-74374642D01*
X89003265Y-74179082D01*
X89003289Y-73962133D01*
X89003280Y-73839513D01*
X89003243Y-73634447D01*
X89003227Y-73450116D01*
X89003288Y-73285334D01*
X89003484Y-73138916D01*
X89003870Y-73009674D01*
X89004505Y-72896422D01*
X89005444Y-72797975D01*
X89006745Y-72713144D01*
X89008464Y-72640744D01*
X89010659Y-72579589D01*
X89013385Y-72528492D01*
X89016701Y-72486267D01*
X89020662Y-72451727D01*
X89025325Y-72423686D01*
X89030747Y-72400958D01*
X89036986Y-72382356D01*
X89044097Y-72366693D01*
X89052138Y-72352784D01*
X89061166Y-72339441D01*
X89071236Y-72325479D01*
X89082407Y-72309711D01*
X89122197Y-72251867D01*
X88062314Y-72251867D01*
X88100311Y-72314966D01*
X88114993Y-72340005D01*
X88129531Y-72367586D01*
X88141627Y-72395700D01*
X88151532Y-72426551D01*
X88159494Y-72462344D01*
X88165761Y-72505283D01*
X88170582Y-72557574D01*
X88174206Y-72621419D01*
X88176881Y-72699025D01*
X88178857Y-72792594D01*
X88180382Y-72904333D01*
X88181704Y-73036445D01*
X88182613Y-73156434D01*
X88183020Y-73273063D01*
X88182767Y-73368531D01*
X88181857Y-73442556D01*
X88180293Y-73494855D01*
X88178079Y-73525149D01*
X88175220Y-73533156D01*
X88172161Y-73529858D01*
X88154006Y-73508408D01*
X88124275Y-73471889D01*
X88084639Y-73422442D01*
X88036771Y-73362207D01*
X87982343Y-73293327D01*
X87923027Y-73217943D01*
X87860495Y-73138196D01*
X87796421Y-73056228D01*
X87732475Y-72974180D01*
X87670331Y-72894194D01*
X87611661Y-72818411D01*
X87558137Y-72748973D01*
X87511430Y-72688021D01*
X87473214Y-72637696D01*
X87445161Y-72600140D01*
X87428943Y-72577495D01*
X87383635Y-72505212D01*
X87343661Y-72425463D01*
X87322130Y-72357188D01*
X87318827Y-72299844D01*
X87324116Y-72251867D01*
X86192356Y-72252117D01*
X86231867Y-72282722D01*
X86241248Y-72290089D01*
X86304183Y-72344438D01*
X86372997Y-72412259D01*
X86449596Y-72495516D01*
X86535888Y-72596178D01*
X86553052Y-72616847D01*
X86593833Y-72666409D01*
X86643588Y-72727326D01*
X86700955Y-72797898D01*
X86764569Y-72876424D01*
X86833069Y-72961204D01*
X86905090Y-73050537D01*
X86979270Y-73142722D01*
X86994517Y-73161702D01*
X87054246Y-73236060D01*
X87128653Y-73328848D01*
X87201131Y-73419388D01*
X87270314Y-73505978D01*
X87334841Y-73586918D01*
X87393347Y-73660506D01*
X87444470Y-73725044D01*
X87486847Y-73778829D01*
X87519115Y-73820162D01*
X87539910Y-73847342D01*
X87547869Y-73858668D01*
X87546111Y-73862771D01*
X87533230Y-73883334D01*
X87508885Y-73919561D01*
X87474247Y-73969824D01*
X87430486Y-74032492D01*
X87378775Y-74105936D01*
X87320284Y-74188527D01*
X87256184Y-74278636D01*
X87187646Y-74374631D01*
X87115843Y-74474885D01*
X87041944Y-74577768D01*
X86967121Y-74681650D01*
X86892545Y-74784901D01*
X86819387Y-74885892D01*
X86748819Y-74982994D01*
X86682011Y-75074577D01*
X86620135Y-75159011D01*
X86564361Y-75234667D01*
X86515862Y-75299916D01*
X86475807Y-75353128D01*
X86445369Y-75392673D01*
X86424944Y-75418026D01*
X86378899Y-75472295D01*
X86328612Y-75528775D01*
X86281815Y-75578669D01*
X86190651Y-75672400D01*
X85492445Y-75672400D01*
X85561356Y-75672349D01*
X85659607Y-75672091D01*
X85749030Y-75671637D01*
X85827333Y-75671010D01*
X85892223Y-75670235D01*
X85941411Y-75669335D01*
X85972604Y-75668334D01*
X85983511Y-75667257D01*
X85982322Y-75664037D01*
X85972176Y-75646452D01*
X85955040Y-75620158D01*
X85946540Y-75607691D01*
X85937329Y-75593622D01*
X85929233Y-75579351D01*
X85922185Y-75563479D01*
X85916117Y-75544609D01*
X85910961Y-75521341D01*
X85906651Y-75492278D01*
X85903119Y-75456021D01*
X85900297Y-75411170D01*
X85898118Y-75356328D01*
X85896514Y-75290097D01*
X85895419Y-75211077D01*
X85894765Y-75117871D01*
X85894484Y-75009079D01*
X85894509Y-74883303D01*
X85894772Y-74739145D01*
X85895206Y-74575207D01*
X85895745Y-74390089D01*
X85896279Y-74211232D01*
X85896805Y-74052374D01*
X85897350Y-73913316D01*
X85897945Y-73792665D01*
X85898619Y-73689028D01*
X85899403Y-73601011D01*
X85900326Y-73527223D01*
X85901419Y-73466269D01*
X85902712Y-73416757D01*
X85904235Y-73377293D01*
X85906019Y-73346484D01*
X85908092Y-73322938D01*
X85910486Y-73305260D01*
X85913230Y-73292059D01*
X85916356Y-73281940D01*
X85919892Y-73273511D01*
X85923791Y-73265375D01*
X85943438Y-73228544D01*
X85962225Y-73198391D01*
X85963272Y-73196908D01*
X85977602Y-73174659D01*
X85983511Y-73161702D01*
X85982504Y-73161249D01*
X85965305Y-73159803D01*
X85928656Y-73158480D01*
X85874962Y-73157316D01*
X85806630Y-73156347D01*
X85726064Y-73155611D01*
X85635670Y-73155142D01*
X85537853Y-73154978D01*
X85092195Y-73154978D01*
X85089120Y-74331845D01*
X85086045Y-75508711D01*
X85059407Y-75567622D01*
X85047485Y-75592183D01*
X85030246Y-75622434D01*
X85017074Y-75639560D01*
X85009076Y-75647591D01*
X85001378Y-75662493D01*
X84709942Y-75662493D01*
X84709474Y-75570029D01*
X84709050Y-75454617D01*
X84708706Y-75324160D01*
X84708434Y-75177716D01*
X84708227Y-75014344D01*
X84708076Y-74833101D01*
X84707972Y-74633048D01*
X84707908Y-74413241D01*
X84707876Y-74172739D01*
X84707867Y-73910602D01*
X84707867Y-71719031D01*
X84746249Y-71680649D01*
X84773355Y-71656911D01*
X84800253Y-71645111D01*
X84836560Y-71642267D01*
X84888489Y-71642267D01*
X84888489Y-71730206D01*
X84890427Y-71780102D01*
X84909199Y-71890523D01*
X84946217Y-71991987D01*
X84999369Y-72083152D01*
X85066546Y-72162673D01*
X85145638Y-72229205D01*
X85234534Y-72281406D01*
X85331125Y-72317930D01*
X85433300Y-72337434D01*
X85538950Y-72338573D01*
X85645964Y-72320005D01*
X85752232Y-72280384D01*
X85849219Y-72222516D01*
X85934293Y-72147684D01*
X86003015Y-72059615D01*
X86053918Y-71960616D01*
X86085535Y-71852993D01*
X86096400Y-71739054D01*
X86096400Y-71642267D01*
X87716753Y-71642267D01*
X87927897Y-71642280D01*
X88132020Y-71642330D01*
X88315686Y-71642430D01*
X88479991Y-71642592D01*
X88626029Y-71642829D01*
X88754894Y-71643153D01*
X88867683Y-71643575D01*
X88965488Y-71644109D01*
X89049404Y-71644767D01*
X89120527Y-71645561D01*
X89179950Y-71646504D01*
X89228768Y-71647608D01*
X89268077Y-71648884D01*
X89298969Y-71650347D01*
X89322541Y-71652007D01*
X89339886Y-71653878D01*
X89352099Y-71655972D01*
X89360275Y-71658300D01*
X89365508Y-71660876D01*
X89371504Y-71664445D01*
X89378279Y-71667978D01*
X89384478Y-71671488D01*
X89390126Y-71675918D01*
X89395247Y-71682208D01*
X89399869Y-71691301D01*
X89404015Y-71704139D01*
X89407713Y-71721662D01*
X89410987Y-71744813D01*
X89413863Y-71774534D01*
X89416367Y-71811765D01*
X89418524Y-71857449D01*
X89420360Y-71912527D01*
X89421900Y-71977941D01*
X89423170Y-72054633D01*
X89424195Y-72143544D01*
X89425001Y-72245617D01*
X89425034Y-72251867D01*
X89425614Y-72361792D01*
G37*
%TD*%
M02*
